<?xml version="1.0" encoding="utf-8" standalone="no"?>
<!DOCTYPE svg PUBLIC "-//W3C//DTD SVG 1.1//EN"
  "http://www.w3.org/Graphics/SVG/1.1/DTD/svg11.dtd">
<svg xmlns:xlink="http://www.w3.org/1999/xlink" width="982.2425pt" height="621.548588pt" viewBox="0 0 982.2425 621.548588" xmlns="http://www.w3.org/2000/svg" version="1.1">
 <metadata>
  <rdf:RDF xmlns:dc="http://purl.org/dc/elements/1.1/" xmlns:cc="http://creativecommons.org/ns#" xmlns:rdf="http://www.w3.org/1999/02/22-rdf-syntax-ns#">
   <cc:Work>
    <dc:type rdf:resource="http://purl.org/dc/dcmitype/StillImage"/>
    <dc:date>2025-04-15T15:13:13.720625</dc:date>
    <dc:format>image/svg+xml</dc:format>
    <dc:creator>
     <cc:Agent>
      <dc:title>Matplotlib v3.10.0, https://matplotlib.org/</dc:title>
     </cc:Agent>
    </dc:creator>
   </cc:Work>
  </rdf:RDF>
 </metadata>
 <defs>
  <style type="text/css">*{stroke-linejoin: round; stroke-linecap: butt}</style>
 </defs>
 <g id="figure_1">
  <g id="patch_1">
   <path d="M 0 621.548588 
L 982.2425 621.548588 
L 982.2425 0 
L 0 0 
z
" style="fill: #ffffff"/>
  </g>
  <g id="axes_1">
   <g id="patch_2">
    <path d="M 44.1525 549.663654 
L 975.0425 549.663654 
L 975.0425 57.274 
L 44.1525 57.274 
z
" style="fill: #ffffff"/>
   </g>
   <g id="matplotlib.axis_1">
    <g id="xtick_1">
     <g id="line2d_1">
      <path d="M 119.014283 549.663654 
L 119.014283 57.274 
" clip-path="url(#pbb03182f64)" style="fill: none; stroke-dasharray: 2.96,1.28; stroke-dashoffset: 0; stroke: #cccccc; stroke-opacity: 0.3; stroke-width: 0.8"/>
     </g>
     <g id="line2d_2"/>
     <g id="text_1">
      <!-- 256 -->
      <g style="fill: #262626" transform="translate(112.499841 577.322841) rotate(-45) scale(0.12 -0.12)">
       <defs>
        <path id="DejaVuSans-Bold-32" d="M 1844 884 
L 3897 884 
L 3897 0 
L 506 0 
L 506 884 
L 2209 2388 
Q 2438 2594 2547 2791 
Q 2656 2988 2656 3200 
Q 2656 3528 2436 3728 
Q 2216 3928 1850 3928 
Q 1569 3928 1234 3808 
Q 900 3688 519 3450 
L 519 4475 
Q 925 4609 1322 4679 
Q 1719 4750 2100 4750 
Q 2938 4750 3402 4381 
Q 3866 4013 3866 3353 
Q 3866 2972 3669 2642 
Q 3472 2313 2841 1759 
L 1844 884 
z
" transform="scale(0.015625)"/>
        <path id="DejaVuSans-Bold-35" d="M 678 4666 
L 3669 4666 
L 3669 3781 
L 1638 3781 
L 1638 3059 
Q 1775 3097 1914 3117 
Q 2053 3138 2203 3138 
Q 3056 3138 3531 2711 
Q 4006 2284 4006 1522 
Q 4006 766 3489 337 
Q 2972 -91 2053 -91 
Q 1656 -91 1267 -14 
Q 878 63 494 219 
L 494 1166 
Q 875 947 1217 837 
Q 1559 728 1863 728 
Q 2300 728 2551 942 
Q 2803 1156 2803 1522 
Q 2803 1891 2551 2103 
Q 2300 2316 1863 2316 
Q 1603 2316 1309 2248 
Q 1016 2181 678 2041 
L 678 4666 
z
" transform="scale(0.015625)"/>
        <path id="DejaVuSans-Bold-36" d="M 2316 2303 
Q 2000 2303 1842 2098 
Q 1684 1894 1684 1484 
Q 1684 1075 1842 870 
Q 2000 666 2316 666 
Q 2634 666 2792 870 
Q 2950 1075 2950 1484 
Q 2950 1894 2792 2098 
Q 2634 2303 2316 2303 
z
M 3803 4544 
L 3803 3681 
Q 3506 3822 3243 3889 
Q 2981 3956 2731 3956 
Q 2194 3956 1894 3657 
Q 1594 3359 1544 2772 
Q 1750 2925 1990 3001 
Q 2231 3078 2516 3078 
Q 3231 3078 3670 2659 
Q 4109 2241 4109 1563 
Q 4109 813 3618 361 
Q 3128 -91 2303 -91 
Q 1394 -91 895 523 
Q 397 1138 397 2266 
Q 397 3422 980 4083 
Q 1563 4744 2578 4744 
Q 2900 4744 3203 4694 
Q 3506 4644 3803 4544 
z
" transform="scale(0.015625)"/>
       </defs>
       <use xlink:href="#DejaVuSans-Bold-32"/>
       <use xlink:href="#DejaVuSans-Bold-35" transform="translate(69.580078 0)"/>
       <use xlink:href="#DejaVuSans-Bold-36" transform="translate(139.160156 0)"/>
      </g>
     </g>
    </g>
    <g id="xtick_2">
     <g id="line2d_3">
      <path d="M 205.810554 549.663654 
L 205.810554 57.274 
" clip-path="url(#pbb03182f64)" style="fill: none; stroke-dasharray: 2.96,1.28; stroke-dashoffset: 0; stroke: #cccccc; stroke-opacity: 0.3; stroke-width: 0.8"/>
     </g>
     <g id="line2d_4"/>
     <g id="text_2">
      <!-- 512 -->
      <g style="fill: #262626" transform="translate(199.296111 577.322841) rotate(-45) scale(0.12 -0.12)">
       <defs>
        <path id="DejaVuSans-Bold-31" d="M 750 831 
L 1813 831 
L 1813 3847 
L 722 3622 
L 722 4441 
L 1806 4666 
L 2950 4666 
L 2950 831 
L 4013 831 
L 4013 0 
L 750 0 
L 750 831 
z
" transform="scale(0.015625)"/>
       </defs>
       <use xlink:href="#DejaVuSans-Bold-35"/>
       <use xlink:href="#DejaVuSans-Bold-31" transform="translate(69.580078 0)"/>
       <use xlink:href="#DejaVuSans-Bold-32" transform="translate(139.160156 0)"/>
      </g>
     </g>
    </g>
    <g id="xtick_3">
     <g id="line2d_5">
      <path d="M 292.606824 549.663654 
L 292.606824 57.274 
" clip-path="url(#pbb03182f64)" style="fill: none; stroke-dasharray: 2.96,1.28; stroke-dashoffset: 0; stroke: #cccccc; stroke-opacity: 0.3; stroke-width: 0.8"/>
     </g>
     <g id="line2d_6"/>
     <g id="text_3">
      <!-- 1024 -->
      <g style="fill: #262626" transform="translate(283.140432 583.22674) rotate(-45) scale(0.12 -0.12)">
       <defs>
        <path id="DejaVuSans-Bold-30" d="M 2944 2338 
Q 2944 3213 2780 3570 
Q 2616 3928 2228 3928 
Q 1841 3928 1675 3570 
Q 1509 3213 1509 2338 
Q 1509 1453 1675 1090 
Q 1841 728 2228 728 
Q 2613 728 2778 1090 
Q 2944 1453 2944 2338 
z
M 4147 2328 
Q 4147 1169 3647 539 
Q 3147 -91 2228 -91 
Q 1306 -91 806 539 
Q 306 1169 306 2328 
Q 306 3491 806 4120 
Q 1306 4750 2228 4750 
Q 3147 4750 3647 4120 
Q 4147 3491 4147 2328 
z
" transform="scale(0.015625)"/>
        <path id="DejaVuSans-Bold-34" d="M 2356 3675 
L 1038 1722 
L 2356 1722 
L 2356 3675 
z
M 2156 4666 
L 3494 4666 
L 3494 1722 
L 4159 1722 
L 4159 850 
L 3494 850 
L 3494 0 
L 2356 0 
L 2356 850 
L 288 850 
L 288 1881 
L 2156 4666 
z
" transform="scale(0.015625)"/>
       </defs>
       <use xlink:href="#DejaVuSans-Bold-31"/>
       <use xlink:href="#DejaVuSans-Bold-30" transform="translate(69.580078 0)"/>
       <use xlink:href="#DejaVuSans-Bold-32" transform="translate(139.160156 0)"/>
       <use xlink:href="#DejaVuSans-Bold-34" transform="translate(208.740234 0)"/>
      </g>
     </g>
    </g>
    <g id="xtick_4">
     <g id="line2d_7">
      <path d="M 379.403094 549.663654 
L 379.403094 57.274 
" clip-path="url(#pbb03182f64)" style="fill: none; stroke-dasharray: 2.96,1.28; stroke-dashoffset: 0; stroke: #cccccc; stroke-opacity: 0.3; stroke-width: 0.8"/>
     </g>
     <g id="line2d_8"/>
     <g id="text_4">
      <!-- 2048 -->
      <g style="fill: #262626" transform="translate(369.936702 583.22674) rotate(-45) scale(0.12 -0.12)">
       <defs>
        <path id="DejaVuSans-Bold-38" d="M 2228 2088 
Q 1891 2088 1709 1903 
Q 1528 1719 1528 1375 
Q 1528 1031 1709 848 
Q 1891 666 2228 666 
Q 2563 666 2741 848 
Q 2919 1031 2919 1375 
Q 2919 1722 2741 1905 
Q 2563 2088 2228 2088 
z
M 1350 2484 
Q 925 2613 709 2878 
Q 494 3144 494 3541 
Q 494 4131 934 4440 
Q 1375 4750 2228 4750 
Q 3075 4750 3515 4442 
Q 3956 4134 3956 3541 
Q 3956 3144 3739 2878 
Q 3522 2613 3097 2484 
Q 3572 2353 3814 2058 
Q 4056 1763 4056 1313 
Q 4056 619 3595 264 
Q 3134 -91 2228 -91 
Q 1319 -91 855 264 
Q 391 619 391 1313 
Q 391 1763 633 2058 
Q 875 2353 1350 2484 
z
M 1631 3419 
Q 1631 3141 1786 2991 
Q 1941 2841 2228 2841 
Q 2509 2841 2662 2991 
Q 2816 3141 2816 3419 
Q 2816 3697 2662 3845 
Q 2509 3994 2228 3994 
Q 1941 3994 1786 3844 
Q 1631 3694 1631 3419 
z
" transform="scale(0.015625)"/>
       </defs>
       <use xlink:href="#DejaVuSans-Bold-32"/>
       <use xlink:href="#DejaVuSans-Bold-30" transform="translate(69.580078 0)"/>
       <use xlink:href="#DejaVuSans-Bold-34" transform="translate(139.160156 0)"/>
       <use xlink:href="#DejaVuSans-Bold-38" transform="translate(208.740234 0)"/>
      </g>
     </g>
    </g>
    <g id="xtick_5">
     <g id="line2d_9">
      <path d="M 466.199365 549.663654 
L 466.199365 57.274 
" clip-path="url(#pbb03182f64)" style="fill: none; stroke-dasharray: 2.96,1.28; stroke-dashoffset: 0; stroke: #cccccc; stroke-opacity: 0.3; stroke-width: 0.8"/>
     </g>
     <g id="line2d_10"/>
     <g id="text_5">
      <!-- 4096 -->
      <g style="fill: #262626" transform="translate(456.732973 583.22674) rotate(-45) scale(0.12 -0.12)">
       <defs>
        <path id="DejaVuSans-Bold-39" d="M 641 103 
L 641 966 
Q 928 831 1190 764 
Q 1453 697 1709 697 
Q 2247 697 2547 995 
Q 2847 1294 2900 1881 
Q 2688 1725 2447 1647 
Q 2206 1569 1925 1569 
Q 1209 1569 770 1986 
Q 331 2403 331 3084 
Q 331 3838 820 4291 
Q 1309 4744 2131 4744 
Q 3044 4744 3544 4128 
Q 4044 3513 4044 2388 
Q 4044 1231 3459 570 
Q 2875 -91 1856 -91 
Q 1528 -91 1228 -42 
Q 928 6 641 103 
z
M 2125 2350 
Q 2441 2350 2600 2554 
Q 2759 2759 2759 3169 
Q 2759 3575 2600 3781 
Q 2441 3988 2125 3988 
Q 1809 3988 1650 3781 
Q 1491 3575 1491 3169 
Q 1491 2759 1650 2554 
Q 1809 2350 2125 2350 
z
" transform="scale(0.015625)"/>
       </defs>
       <use xlink:href="#DejaVuSans-Bold-34"/>
       <use xlink:href="#DejaVuSans-Bold-30" transform="translate(69.580078 0)"/>
       <use xlink:href="#DejaVuSans-Bold-39" transform="translate(139.160156 0)"/>
       <use xlink:href="#DejaVuSans-Bold-36" transform="translate(208.740234 0)"/>
      </g>
     </g>
    </g>
    <g id="xtick_6">
     <g id="line2d_11">
      <path d="M 552.995635 549.663654 
L 552.995635 57.274 
" clip-path="url(#pbb03182f64)" style="fill: none; stroke-dasharray: 2.96,1.28; stroke-dashoffset: 0; stroke: #cccccc; stroke-opacity: 0.3; stroke-width: 0.8"/>
     </g>
     <g id="line2d_12"/>
     <g id="text_6">
      <!-- 8192 -->
      <g style="fill: #262626" transform="translate(543.529243 583.22674) rotate(-45) scale(0.12 -0.12)">
       <use xlink:href="#DejaVuSans-Bold-38"/>
       <use xlink:href="#DejaVuSans-Bold-31" transform="translate(69.580078 0)"/>
       <use xlink:href="#DejaVuSans-Bold-39" transform="translate(139.160156 0)"/>
       <use xlink:href="#DejaVuSans-Bold-32" transform="translate(208.740234 0)"/>
      </g>
     </g>
    </g>
    <g id="xtick_7">
     <g id="line2d_13">
      <path d="M 639.791906 549.663654 
L 639.791906 57.274 
" clip-path="url(#pbb03182f64)" style="fill: none; stroke-dasharray: 2.96,1.28; stroke-dashoffset: 0; stroke: #cccccc; stroke-opacity: 0.3; stroke-width: 0.8"/>
     </g>
     <g id="line2d_14"/>
     <g id="text_7">
      <!-- 16384 -->
      <g style="fill: #262626" transform="translate(627.373564 589.13064) rotate(-45) scale(0.12 -0.12)">
       <defs>
        <path id="DejaVuSans-Bold-33" d="M 2981 2516 
Q 3453 2394 3698 2092 
Q 3944 1791 3944 1325 
Q 3944 631 3412 270 
Q 2881 -91 1863 -91 
Q 1503 -91 1142 -33 
Q 781 25 428 141 
L 428 1069 
Q 766 900 1098 814 
Q 1431 728 1753 728 
Q 2231 728 2486 893 
Q 2741 1059 2741 1369 
Q 2741 1688 2480 1852 
Q 2219 2016 1709 2016 
L 1228 2016 
L 1228 2791 
L 1734 2791 
Q 2188 2791 2409 2933 
Q 2631 3075 2631 3366 
Q 2631 3634 2415 3781 
Q 2200 3928 1806 3928 
Q 1516 3928 1219 3862 
Q 922 3797 628 3669 
L 628 4550 
Q 984 4650 1334 4700 
Q 1684 4750 2022 4750 
Q 2931 4750 3382 4451 
Q 3834 4153 3834 3553 
Q 3834 3144 3618 2883 
Q 3403 2622 2981 2516 
z
" transform="scale(0.015625)"/>
       </defs>
       <use xlink:href="#DejaVuSans-Bold-31"/>
       <use xlink:href="#DejaVuSans-Bold-36" transform="translate(69.580078 0)"/>
       <use xlink:href="#DejaVuSans-Bold-33" transform="translate(139.160156 0)"/>
       <use xlink:href="#DejaVuSans-Bold-38" transform="translate(208.740234 0)"/>
       <use xlink:href="#DejaVuSans-Bold-34" transform="translate(278.320312 0)"/>
      </g>
     </g>
    </g>
    <g id="xtick_8">
     <g id="line2d_15">
      <path d="M 726.588176 549.663654 
L 726.588176 57.274 
" clip-path="url(#pbb03182f64)" style="fill: none; stroke-dasharray: 2.96,1.28; stroke-dashoffset: 0; stroke: #cccccc; stroke-opacity: 0.3; stroke-width: 0.8"/>
     </g>
     <g id="line2d_16"/>
     <g id="text_8">
      <!-- 32768 -->
      <g style="fill: #262626" transform="translate(714.169834 589.13064) rotate(-45) scale(0.12 -0.12)">
       <defs>
        <path id="DejaVuSans-Bold-37" d="M 428 4666 
L 3944 4666 
L 3944 3988 
L 2125 0 
L 953 0 
L 2675 3781 
L 428 3781 
L 428 4666 
z
" transform="scale(0.015625)"/>
       </defs>
       <use xlink:href="#DejaVuSans-Bold-33"/>
       <use xlink:href="#DejaVuSans-Bold-32" transform="translate(69.580078 0)"/>
       <use xlink:href="#DejaVuSans-Bold-37" transform="translate(139.160156 0)"/>
       <use xlink:href="#DejaVuSans-Bold-36" transform="translate(208.740234 0)"/>
       <use xlink:href="#DejaVuSans-Bold-38" transform="translate(278.320312 0)"/>
      </g>
     </g>
    </g>
    <g id="xtick_9">
     <g id="line2d_17">
      <path d="M 813.384446 549.663654 
L 813.384446 57.274 
" clip-path="url(#pbb03182f64)" style="fill: none; stroke-dasharray: 2.96,1.28; stroke-dashoffset: 0; stroke: #cccccc; stroke-opacity: 0.3; stroke-width: 0.8"/>
     </g>
     <g id="line2d_18"/>
     <g id="text_9">
      <!-- 65536 -->
      <g style="fill: #262626" transform="translate(800.966105 589.13064) rotate(-45) scale(0.12 -0.12)">
       <use xlink:href="#DejaVuSans-Bold-36"/>
       <use xlink:href="#DejaVuSans-Bold-35" transform="translate(69.580078 0)"/>
       <use xlink:href="#DejaVuSans-Bold-35" transform="translate(139.160156 0)"/>
       <use xlink:href="#DejaVuSans-Bold-33" transform="translate(208.740234 0)"/>
       <use xlink:href="#DejaVuSans-Bold-36" transform="translate(278.320312 0)"/>
      </g>
     </g>
    </g>
    <g id="xtick_10">
     <g id="line2d_19">
      <path d="M 900.180717 549.663654 
L 900.180717 57.274 
" clip-path="url(#pbb03182f64)" style="fill: none; stroke-dasharray: 2.96,1.28; stroke-dashoffset: 0; stroke: #cccccc; stroke-opacity: 0.3; stroke-width: 0.8"/>
     </g>
     <g id="line2d_20"/>
     <g id="text_10">
      <!-- 131072 -->
      <g style="fill: #262626" transform="translate(884.810425 595.03454) rotate(-45) scale(0.12 -0.12)">
       <use xlink:href="#DejaVuSans-Bold-31"/>
       <use xlink:href="#DejaVuSans-Bold-33" transform="translate(69.580078 0)"/>
       <use xlink:href="#DejaVuSans-Bold-31" transform="translate(139.160156 0)"/>
       <use xlink:href="#DejaVuSans-Bold-30" transform="translate(208.740234 0)"/>
       <use xlink:href="#DejaVuSans-Bold-37" transform="translate(278.320312 0)"/>
       <use xlink:href="#DejaVuSans-Bold-32" transform="translate(347.900391 0)"/>
      </g>
     </g>
    </g>
    <g id="text_11">
     <!-- Bit Size -->
     <g style="fill: #262626" transform="translate(479.816875 611.437026) scale(0.14 -0.14)">
      <defs>
       <path id="DejaVuSans-Bold-42" d="M 2456 2859 
Q 2741 2859 2887 2984 
Q 3034 3109 3034 3353 
Q 3034 3594 2887 3720 
Q 2741 3847 2456 3847 
L 1791 3847 
L 1791 2859 
L 2456 2859 
z
M 2497 819 
Q 2859 819 3042 972 
Q 3225 1125 3225 1434 
Q 3225 1738 3044 1889 
Q 2863 2041 2497 2041 
L 1791 2041 
L 1791 819 
L 2497 819 
z
M 3616 2497 
Q 4003 2384 4215 2081 
Q 4428 1778 4428 1338 
Q 4428 663 3972 331 
Q 3516 0 2584 0 
L 588 0 
L 588 4666 
L 2394 4666 
Q 3366 4666 3802 4372 
Q 4238 4078 4238 3431 
Q 4238 3091 4078 2852 
Q 3919 2613 3616 2497 
z
" transform="scale(0.015625)"/>
       <path id="DejaVuSans-Bold-69" d="M 538 3500 
L 1656 3500 
L 1656 0 
L 538 0 
L 538 3500 
z
M 538 4863 
L 1656 4863 
L 1656 3950 
L 538 3950 
L 538 4863 
z
" transform="scale(0.015625)"/>
       <path id="DejaVuSans-Bold-74" d="M 1759 4494 
L 1759 3500 
L 2913 3500 
L 2913 2700 
L 1759 2700 
L 1759 1216 
Q 1759 972 1856 886 
Q 1953 800 2241 800 
L 2816 800 
L 2816 0 
L 1856 0 
Q 1194 0 917 276 
Q 641 553 641 1216 
L 641 2700 
L 84 2700 
L 84 3500 
L 641 3500 
L 641 4494 
L 1759 4494 
z
" transform="scale(0.015625)"/>
       <path id="DejaVuSans-Bold-20" transform="scale(0.015625)"/>
       <path id="DejaVuSans-Bold-53" d="M 3834 4519 
L 3834 3531 
Q 3450 3703 3084 3790 
Q 2719 3878 2394 3878 
Q 1963 3878 1756 3759 
Q 1550 3641 1550 3391 
Q 1550 3203 1689 3098 
Q 1828 2994 2194 2919 
L 2706 2816 
Q 3484 2659 3812 2340 
Q 4141 2022 4141 1434 
Q 4141 663 3683 286 
Q 3225 -91 2284 -91 
Q 1841 -91 1394 -6 
Q 947 78 500 244 
L 500 1259 
Q 947 1022 1364 901 
Q 1781 781 2169 781 
Q 2563 781 2772 912 
Q 2981 1044 2981 1288 
Q 2981 1506 2839 1625 
Q 2697 1744 2272 1838 
L 1806 1941 
Q 1106 2091 782 2419 
Q 459 2747 459 3303 
Q 459 4000 909 4375 
Q 1359 4750 2203 4750 
Q 2588 4750 2994 4692 
Q 3400 4634 3834 4519 
z
" transform="scale(0.015625)"/>
       <path id="DejaVuSans-Bold-7a" d="M 366 3500 
L 3419 3500 
L 3419 2719 
L 1575 800 
L 3419 800 
L 3419 0 
L 288 0 
L 288 781 
L 2131 2700 
L 366 2700 
L 366 3500 
z
" transform="scale(0.015625)"/>
       <path id="DejaVuSans-Bold-65" d="M 4031 1759 
L 4031 1441 
L 1416 1441 
Q 1456 1047 1700 850 
Q 1944 653 2381 653 
Q 2734 653 3104 758 
Q 3475 863 3866 1075 
L 3866 213 
Q 3469 63 3072 -14 
Q 2675 -91 2278 -91 
Q 1328 -91 801 392 
Q 275 875 275 1747 
Q 275 2603 792 3093 
Q 1309 3584 2216 3584 
Q 3041 3584 3536 3087 
Q 4031 2591 4031 1759 
z
M 2881 2131 
Q 2881 2450 2695 2645 
Q 2509 2841 2209 2841 
Q 1884 2841 1681 2658 
Q 1478 2475 1428 2131 
L 2881 2131 
z
" transform="scale(0.015625)"/>
      </defs>
      <use xlink:href="#DejaVuSans-Bold-42"/>
      <use xlink:href="#DejaVuSans-Bold-69" transform="translate(76.220703 0)"/>
      <use xlink:href="#DejaVuSans-Bold-74" transform="translate(110.498047 0)"/>
      <use xlink:href="#DejaVuSans-Bold-20" transform="translate(158.300781 0)"/>
      <use xlink:href="#DejaVuSans-Bold-53" transform="translate(193.115234 0)"/>
      <use xlink:href="#DejaVuSans-Bold-69" transform="translate(265.136719 0)"/>
      <use xlink:href="#DejaVuSans-Bold-7a" transform="translate(299.414062 0)"/>
      <use xlink:href="#DejaVuSans-Bold-65" transform="translate(357.617188 0)"/>
     </g>
    </g>
   </g>
   <g id="matplotlib.axis_2">
    <g id="ytick_1">
     <g id="line2d_21">
      <path d="M 44.1525 549.663654 
L 975.0425 549.663654 
" clip-path="url(#pbb03182f64)" style="fill: none; stroke-dasharray: 2.96,1.28; stroke-dashoffset: 0; stroke: #cccccc; stroke-opacity: 0.3; stroke-width: 0.8"/>
     </g>
     <g id="line2d_22"/>
     <g id="text_12">
      <!-- 0.0 -->
      <g style="fill: #262626" transform="translate(24.749375 553.462872) scale(0.1 -0.1)">
       <defs>
        <path id="DejaVuSans-30" d="M 2034 4250 
Q 1547 4250 1301 3770 
Q 1056 3291 1056 2328 
Q 1056 1369 1301 889 
Q 1547 409 2034 409 
Q 2525 409 2770 889 
Q 3016 1369 3016 2328 
Q 3016 3291 2770 3770 
Q 2525 4250 2034 4250 
z
M 2034 4750 
Q 2819 4750 3233 4129 
Q 3647 3509 3647 2328 
Q 3647 1150 3233 529 
Q 2819 -91 2034 -91 
Q 1250 -91 836 529 
Q 422 1150 422 2328 
Q 422 3509 836 4129 
Q 1250 4750 2034 4750 
z
" transform="scale(0.015625)"/>
        <path id="DejaVuSans-2e" d="M 684 794 
L 1344 794 
L 1344 0 
L 684 0 
L 684 794 
z
" transform="scale(0.015625)"/>
       </defs>
       <use xlink:href="#DejaVuSans-30"/>
       <use xlink:href="#DejaVuSans-2e" transform="translate(63.623047 0)"/>
       <use xlink:href="#DejaVuSans-30" transform="translate(95.410156 0)"/>
      </g>
     </g>
    </g>
    <g id="ytick_2">
     <g id="line2d_23">
      <path d="M 44.1525 494.953692 
L 975.0425 494.953692 
" clip-path="url(#pbb03182f64)" style="fill: none; stroke-dasharray: 2.96,1.28; stroke-dashoffset: 0; stroke: #cccccc; stroke-opacity: 0.3; stroke-width: 0.8"/>
     </g>
     <g id="line2d_24"/>
     <g id="text_13">
      <!-- 0.5 -->
      <g style="fill: #262626" transform="translate(24.749375 498.752911) scale(0.1 -0.1)">
       <defs>
        <path id="DejaVuSans-35" d="M 691 4666 
L 3169 4666 
L 3169 4134 
L 1269 4134 
L 1269 2991 
Q 1406 3038 1543 3061 
Q 1681 3084 1819 3084 
Q 2600 3084 3056 2656 
Q 3513 2228 3513 1497 
Q 3513 744 3044 326 
Q 2575 -91 1722 -91 
Q 1428 -91 1123 -41 
Q 819 9 494 109 
L 494 744 
Q 775 591 1075 516 
Q 1375 441 1709 441 
Q 2250 441 2565 725 
Q 2881 1009 2881 1497 
Q 2881 1984 2565 2268 
Q 2250 2553 1709 2553 
Q 1456 2553 1204 2497 
Q 953 2441 691 2322 
L 691 4666 
z
" transform="scale(0.015625)"/>
       </defs>
       <use xlink:href="#DejaVuSans-30"/>
       <use xlink:href="#DejaVuSans-2e" transform="translate(63.623047 0)"/>
       <use xlink:href="#DejaVuSans-35" transform="translate(95.410156 0)"/>
      </g>
     </g>
    </g>
    <g id="ytick_3">
     <g id="line2d_25">
      <path d="M 44.1525 440.243731 
L 975.0425 440.243731 
" clip-path="url(#pbb03182f64)" style="fill: none; stroke-dasharray: 2.96,1.28; stroke-dashoffset: 0; stroke: #cccccc; stroke-opacity: 0.3; stroke-width: 0.8"/>
     </g>
     <g id="line2d_26"/>
     <g id="text_14">
      <!-- 1.0 -->
      <g style="fill: #262626" transform="translate(24.749375 444.042949) scale(0.1 -0.1)">
       <defs>
        <path id="DejaVuSans-31" d="M 794 531 
L 1825 531 
L 1825 4091 
L 703 3866 
L 703 4441 
L 1819 4666 
L 2450 4666 
L 2450 531 
L 3481 531 
L 3481 0 
L 794 0 
L 794 531 
z
" transform="scale(0.015625)"/>
       </defs>
       <use xlink:href="#DejaVuSans-31"/>
       <use xlink:href="#DejaVuSans-2e" transform="translate(63.623047 0)"/>
       <use xlink:href="#DejaVuSans-30" transform="translate(95.410156 0)"/>
      </g>
     </g>
    </g>
    <g id="ytick_4">
     <g id="line2d_27">
      <path d="M 44.1525 385.533769 
L 975.0425 385.533769 
" clip-path="url(#pbb03182f64)" style="fill: none; stroke-dasharray: 2.96,1.28; stroke-dashoffset: 0; stroke: #cccccc; stroke-opacity: 0.3; stroke-width: 0.8"/>
     </g>
     <g id="line2d_28"/>
     <g id="text_15">
      <!-- 1.5 -->
      <g style="fill: #262626" transform="translate(24.749375 389.332988) scale(0.1 -0.1)">
       <use xlink:href="#DejaVuSans-31"/>
       <use xlink:href="#DejaVuSans-2e" transform="translate(63.623047 0)"/>
       <use xlink:href="#DejaVuSans-35" transform="translate(95.410156 0)"/>
      </g>
     </g>
    </g>
    <g id="ytick_5">
     <g id="line2d_29">
      <path d="M 44.1525 330.823808 
L 975.0425 330.823808 
" clip-path="url(#pbb03182f64)" style="fill: none; stroke-dasharray: 2.96,1.28; stroke-dashoffset: 0; stroke: #cccccc; stroke-opacity: 0.3; stroke-width: 0.8"/>
     </g>
     <g id="line2d_30"/>
     <g id="text_16">
      <!-- 2.0 -->
      <g style="fill: #262626" transform="translate(24.749375 334.623026) scale(0.1 -0.1)">
       <defs>
        <path id="DejaVuSans-32" d="M 1228 531 
L 3431 531 
L 3431 0 
L 469 0 
L 469 531 
Q 828 903 1448 1529 
Q 2069 2156 2228 2338 
Q 2531 2678 2651 2914 
Q 2772 3150 2772 3378 
Q 2772 3750 2511 3984 
Q 2250 4219 1831 4219 
Q 1534 4219 1204 4116 
Q 875 4013 500 3803 
L 500 4441 
Q 881 4594 1212 4672 
Q 1544 4750 1819 4750 
Q 2544 4750 2975 4387 
Q 3406 4025 3406 3419 
Q 3406 3131 3298 2873 
Q 3191 2616 2906 2266 
Q 2828 2175 2409 1742 
Q 1991 1309 1228 531 
z
" transform="scale(0.015625)"/>
       </defs>
       <use xlink:href="#DejaVuSans-32"/>
       <use xlink:href="#DejaVuSans-2e" transform="translate(63.623047 0)"/>
       <use xlink:href="#DejaVuSans-30" transform="translate(95.410156 0)"/>
      </g>
     </g>
    </g>
    <g id="ytick_6">
     <g id="line2d_31">
      <path d="M 44.1525 276.113846 
L 975.0425 276.113846 
" clip-path="url(#pbb03182f64)" style="fill: none; stroke-dasharray: 2.96,1.28; stroke-dashoffset: 0; stroke: #cccccc; stroke-opacity: 0.3; stroke-width: 0.8"/>
     </g>
     <g id="line2d_32"/>
     <g id="text_17">
      <!-- 2.5 -->
      <g style="fill: #262626" transform="translate(24.749375 279.913065) scale(0.1 -0.1)">
       <use xlink:href="#DejaVuSans-32"/>
       <use xlink:href="#DejaVuSans-2e" transform="translate(63.623047 0)"/>
       <use xlink:href="#DejaVuSans-35" transform="translate(95.410156 0)"/>
      </g>
     </g>
    </g>
    <g id="ytick_7">
     <g id="line2d_33">
      <path d="M 44.1525 221.403885 
L 975.0425 221.403885 
" clip-path="url(#pbb03182f64)" style="fill: none; stroke-dasharray: 2.96,1.28; stroke-dashoffset: 0; stroke: #cccccc; stroke-opacity: 0.3; stroke-width: 0.8"/>
     </g>
     <g id="line2d_34"/>
     <g id="text_18">
      <!-- 3.0 -->
      <g style="fill: #262626" transform="translate(24.749375 225.203103) scale(0.1 -0.1)">
       <defs>
        <path id="DejaVuSans-33" d="M 2597 2516 
Q 3050 2419 3304 2112 
Q 3559 1806 3559 1356 
Q 3559 666 3084 287 
Q 2609 -91 1734 -91 
Q 1441 -91 1130 -33 
Q 819 25 488 141 
L 488 750 
Q 750 597 1062 519 
Q 1375 441 1716 441 
Q 2309 441 2620 675 
Q 2931 909 2931 1356 
Q 2931 1769 2642 2001 
Q 2353 2234 1838 2234 
L 1294 2234 
L 1294 2753 
L 1863 2753 
Q 2328 2753 2575 2939 
Q 2822 3125 2822 3475 
Q 2822 3834 2567 4026 
Q 2313 4219 1838 4219 
Q 1578 4219 1281 4162 
Q 984 4106 628 3988 
L 628 4550 
Q 988 4650 1302 4700 
Q 1616 4750 1894 4750 
Q 2613 4750 3031 4423 
Q 3450 4097 3450 3541 
Q 3450 3153 3228 2886 
Q 3006 2619 2597 2516 
z
" transform="scale(0.015625)"/>
       </defs>
       <use xlink:href="#DejaVuSans-33"/>
       <use xlink:href="#DejaVuSans-2e" transform="translate(63.623047 0)"/>
       <use xlink:href="#DejaVuSans-30" transform="translate(95.410156 0)"/>
      </g>
     </g>
    </g>
    <g id="ytick_8">
     <g id="line2d_35">
      <path d="M 44.1525 166.693923 
L 975.0425 166.693923 
" clip-path="url(#pbb03182f64)" style="fill: none; stroke-dasharray: 2.96,1.28; stroke-dashoffset: 0; stroke: #cccccc; stroke-opacity: 0.3; stroke-width: 0.8"/>
     </g>
     <g id="line2d_36"/>
     <g id="text_19">
      <!-- 3.5 -->
      <g style="fill: #262626" transform="translate(24.749375 170.493142) scale(0.1 -0.1)">
       <use xlink:href="#DejaVuSans-33"/>
       <use xlink:href="#DejaVuSans-2e" transform="translate(63.623047 0)"/>
       <use xlink:href="#DejaVuSans-35" transform="translate(95.410156 0)"/>
      </g>
     </g>
    </g>
    <g id="ytick_9">
     <g id="line2d_37">
      <path d="M 44.1525 111.983962 
L 975.0425 111.983962 
" clip-path="url(#pbb03182f64)" style="fill: none; stroke-dasharray: 2.96,1.28; stroke-dashoffset: 0; stroke: #cccccc; stroke-opacity: 0.3; stroke-width: 0.8"/>
     </g>
     <g id="line2d_38"/>
     <g id="text_20">
      <!-- 4.0 -->
      <g style="fill: #262626" transform="translate(24.749375 115.78318) scale(0.1 -0.1)">
       <defs>
        <path id="DejaVuSans-34" d="M 2419 4116 
L 825 1625 
L 2419 1625 
L 2419 4116 
z
M 2253 4666 
L 3047 4666 
L 3047 1625 
L 3713 1625 
L 3713 1100 
L 3047 1100 
L 3047 0 
L 2419 0 
L 2419 1100 
L 313 1100 
L 313 1709 
L 2253 4666 
z
" transform="scale(0.015625)"/>
       </defs>
       <use xlink:href="#DejaVuSans-34"/>
       <use xlink:href="#DejaVuSans-2e" transform="translate(63.623047 0)"/>
       <use xlink:href="#DejaVuSans-30" transform="translate(95.410156 0)"/>
      </g>
     </g>
    </g>
    <g id="ytick_10">
     <g id="line2d_39">
      <path d="M 44.1525 57.274 
L 975.0425 57.274 
" clip-path="url(#pbb03182f64)" style="fill: none; stroke-dasharray: 2.96,1.28; stroke-dashoffset: 0; stroke: #cccccc; stroke-opacity: 0.3; stroke-width: 0.8"/>
     </g>
     <g id="line2d_40"/>
     <g id="text_21">
      <!-- 4.5 -->
      <g style="fill: #262626" transform="translate(24.749375 61.073219) scale(0.1 -0.1)">
       <use xlink:href="#DejaVuSans-34"/>
       <use xlink:href="#DejaVuSans-2e" transform="translate(63.623047 0)"/>
       <use xlink:href="#DejaVuSans-35" transform="translate(95.410156 0)"/>
      </g>
     </g>
    </g>
    <g id="text_22">
     <!-- Speedup Factor (×) -->
     <g style="fill: #262626" transform="translate(17.837813 380.009452) rotate(-90) scale(0.14 -0.14)">
      <defs>
       <path id="DejaVuSans-Bold-70" d="M 1656 506 
L 1656 -1331 
L 538 -1331 
L 538 3500 
L 1656 3500 
L 1656 2988 
Q 1888 3294 2169 3439 
Q 2450 3584 2816 3584 
Q 3463 3584 3878 3070 
Q 4294 2556 4294 1747 
Q 4294 938 3878 423 
Q 3463 -91 2816 -91 
Q 2450 -91 2169 54 
Q 1888 200 1656 506 
z
M 2400 2772 
Q 2041 2772 1848 2508 
Q 1656 2244 1656 1747 
Q 1656 1250 1848 986 
Q 2041 722 2400 722 
Q 2759 722 2948 984 
Q 3138 1247 3138 1747 
Q 3138 2247 2948 2509 
Q 2759 2772 2400 2772 
z
" transform="scale(0.015625)"/>
       <path id="DejaVuSans-Bold-64" d="M 2919 2988 
L 2919 4863 
L 4044 4863 
L 4044 0 
L 2919 0 
L 2919 506 
Q 2688 197 2409 53 
Q 2131 -91 1766 -91 
Q 1119 -91 703 423 
Q 288 938 288 1747 
Q 288 2556 703 3070 
Q 1119 3584 1766 3584 
Q 2128 3584 2408 3439 
Q 2688 3294 2919 2988 
z
M 2181 722 
Q 2541 722 2730 984 
Q 2919 1247 2919 1747 
Q 2919 2247 2730 2509 
Q 2541 2772 2181 2772 
Q 1825 2772 1636 2509 
Q 1447 2247 1447 1747 
Q 1447 1247 1636 984 
Q 1825 722 2181 722 
z
" transform="scale(0.015625)"/>
       <path id="DejaVuSans-Bold-75" d="M 500 1363 
L 500 3500 
L 1625 3500 
L 1625 3150 
Q 1625 2866 1622 2436 
Q 1619 2006 1619 1863 
Q 1619 1441 1641 1255 
Q 1663 1069 1716 984 
Q 1784 875 1895 815 
Q 2006 756 2150 756 
Q 2500 756 2700 1025 
Q 2900 1294 2900 1772 
L 2900 3500 
L 4019 3500 
L 4019 0 
L 2900 0 
L 2900 506 
Q 2647 200 2364 54 
Q 2081 -91 1741 -91 
Q 1134 -91 817 281 
Q 500 653 500 1363 
z
" transform="scale(0.015625)"/>
       <path id="DejaVuSans-Bold-46" d="M 588 4666 
L 3834 4666 
L 3834 3756 
L 1791 3756 
L 1791 2888 
L 3713 2888 
L 3713 1978 
L 1791 1978 
L 1791 0 
L 588 0 
L 588 4666 
z
" transform="scale(0.015625)"/>
       <path id="DejaVuSans-Bold-61" d="M 2106 1575 
Q 1756 1575 1579 1456 
Q 1403 1338 1403 1106 
Q 1403 894 1545 773 
Q 1688 653 1941 653 
Q 2256 653 2472 879 
Q 2688 1106 2688 1447 
L 2688 1575 
L 2106 1575 
z
M 3816 1997 
L 3816 0 
L 2688 0 
L 2688 519 
Q 2463 200 2181 54 
Q 1900 -91 1497 -91 
Q 953 -91 614 226 
Q 275 544 275 1050 
Q 275 1666 698 1953 
Q 1122 2241 2028 2241 
L 2688 2241 
L 2688 2328 
Q 2688 2594 2478 2717 
Q 2269 2841 1825 2841 
Q 1466 2841 1156 2769 
Q 847 2697 581 2553 
L 581 3406 
Q 941 3494 1303 3539 
Q 1666 3584 2028 3584 
Q 2975 3584 3395 3211 
Q 3816 2838 3816 1997 
z
" transform="scale(0.015625)"/>
       <path id="DejaVuSans-Bold-63" d="M 3366 3391 
L 3366 2478 
Q 3138 2634 2908 2709 
Q 2678 2784 2431 2784 
Q 1963 2784 1702 2511 
Q 1441 2238 1441 1747 
Q 1441 1256 1702 982 
Q 1963 709 2431 709 
Q 2694 709 2930 787 
Q 3166 866 3366 1019 
L 3366 103 
Q 3103 6 2833 -42 
Q 2563 -91 2291 -91 
Q 1344 -91 809 395 
Q 275 881 275 1747 
Q 275 2613 809 3098 
Q 1344 3584 2291 3584 
Q 2566 3584 2833 3536 
Q 3100 3488 3366 3391 
z
" transform="scale(0.015625)"/>
       <path id="DejaVuSans-Bold-6f" d="M 2203 2784 
Q 1831 2784 1636 2517 
Q 1441 2250 1441 1747 
Q 1441 1244 1636 976 
Q 1831 709 2203 709 
Q 2569 709 2762 976 
Q 2956 1244 2956 1747 
Q 2956 2250 2762 2517 
Q 2569 2784 2203 2784 
z
M 2203 3584 
Q 3106 3584 3614 3096 
Q 4122 2609 4122 1747 
Q 4122 884 3614 396 
Q 3106 -91 2203 -91 
Q 1297 -91 786 396 
Q 275 884 275 1747 
Q 275 2609 786 3096 
Q 1297 3584 2203 3584 
z
" transform="scale(0.015625)"/>
       <path id="DejaVuSans-Bold-72" d="M 3138 2547 
Q 2991 2616 2845 2648 
Q 2700 2681 2553 2681 
Q 2122 2681 1889 2404 
Q 1656 2128 1656 1613 
L 1656 0 
L 538 0 
L 538 3500 
L 1656 3500 
L 1656 2925 
Q 1872 3269 2151 3426 
Q 2431 3584 2822 3584 
Q 2878 3584 2943 3579 
Q 3009 3575 3134 3559 
L 3138 2547 
z
" transform="scale(0.015625)"/>
       <path id="DejaVuSans-Bold-28" d="M 2413 -844 
L 1484 -844 
Q 1006 -72 778 623 
Q 550 1319 550 2003 
Q 550 2688 779 3389 
Q 1009 4091 1484 4856 
L 2413 4856 
Q 2013 4116 1813 3408 
Q 1613 2700 1613 2009 
Q 1613 1319 1811 609 
Q 2009 -100 2413 -844 
z
" transform="scale(0.015625)"/>
       <path id="DejaVuSans-Bold-d7" d="M 4563 3359 
L 3206 2003 
L 4563 653 
L 4038 128 
L 2681 1478 
L 1325 128 
L 800 653 
L 2156 2003 
L 800 3359 
L 1325 3884 
L 2681 2528 
L 4038 3884 
L 4563 3359 
z
" transform="scale(0.015625)"/>
       <path id="DejaVuSans-Bold-29" d="M 513 -844 
Q 913 -100 1113 609 
Q 1313 1319 1313 2009 
Q 1313 2700 1113 3408 
Q 913 4116 513 4856 
L 1441 4856 
Q 1916 4091 2145 3389 
Q 2375 2688 2375 2003 
Q 2375 1319 2147 623 
Q 1919 -72 1441 -844 
L 513 -844 
z
" transform="scale(0.015625)"/>
      </defs>
      <use xlink:href="#DejaVuSans-Bold-53"/>
      <use xlink:href="#DejaVuSans-Bold-70" transform="translate(72.021484 0)"/>
      <use xlink:href="#DejaVuSans-Bold-65" transform="translate(143.603516 0)"/>
      <use xlink:href="#DejaVuSans-Bold-65" transform="translate(211.425781 0)"/>
      <use xlink:href="#DejaVuSans-Bold-64" transform="translate(279.248047 0)"/>
      <use xlink:href="#DejaVuSans-Bold-75" transform="translate(350.830078 0)"/>
      <use xlink:href="#DejaVuSans-Bold-70" transform="translate(422.021484 0)"/>
      <use xlink:href="#DejaVuSans-Bold-20" transform="translate(493.603516 0)"/>
      <use xlink:href="#DejaVuSans-Bold-46" transform="translate(528.417969 0)"/>
      <use xlink:href="#DejaVuSans-Bold-61" transform="translate(590.853516 0)"/>
      <use xlink:href="#DejaVuSans-Bold-63" transform="translate(658.333984 0)"/>
      <use xlink:href="#DejaVuSans-Bold-74" transform="translate(717.611328 0)"/>
      <use xlink:href="#DejaVuSans-Bold-6f" transform="translate(765.414062 0)"/>
      <use xlink:href="#DejaVuSans-Bold-72" transform="translate(834.115234 0)"/>
      <use xlink:href="#DejaVuSans-Bold-20" transform="translate(883.431641 0)"/>
      <use xlink:href="#DejaVuSans-Bold-28" transform="translate(918.246094 0)"/>
      <use xlink:href="#DejaVuSans-Bold-d7" transform="translate(963.949219 0)"/>
      <use xlink:href="#DejaVuSans-Bold-29" transform="translate(1047.738281 0)"/>
     </g>
    </g>
   </g>
   <g id="patch_3">
    <path d="M 86.465682 549.663654 
L 108.164749 549.663654 
L 108.164749 287.055838 
L 86.465682 287.055838 
z
" clip-path="url(#pbb03182f64)" style="fill: #009e73; opacity: 0.9"/>
   </g>
   <g id="patch_4">
    <path d="M 173.261952 549.663654 
L 194.96102 549.663654 
L 194.96102 303.468827 
L 173.261952 303.468827 
z
" clip-path="url(#pbb03182f64)" style="fill: #009e73; opacity: 0.9"/>
   </g>
   <g id="patch_5">
    <path d="M 260.058223 549.663654 
L 281.75729 549.663654 
L 281.75729 324.387342 
L 260.058223 324.387342 
z
" clip-path="url(#pbb03182f64)" style="fill: #009e73; opacity: 0.9"/>
   </g>
   <g id="patch_6">
    <path d="M 346.854493 549.663654 
L 368.553561 549.663654 
L 368.553561 342.981577 
L 346.854493 342.981577 
z
" clip-path="url(#pbb03182f64)" style="fill: #009e73; opacity: 0.9"/>
   </g>
   <g id="patch_7">
    <path d="M 433.650763 549.663654 
L 455.349831 549.663654 
L 455.349831 359.272988 
L 433.650763 359.272988 
z
" clip-path="url(#pbb03182f64)" style="fill: #009e73; opacity: 0.9"/>
   </g>
   <g id="patch_8">
    <path d="M 520.447034 549.663654 
L 542.146101 549.663654 
L 542.146101 358.737053 
L 520.447034 358.737053 
z
" clip-path="url(#pbb03182f64)" style="fill: #009e73; opacity: 0.9"/>
   </g>
   <g id="patch_9">
    <path d="M 607.243304 549.663654 
L 628.942372 549.663654 
L 628.942372 332.357732 
L 607.243304 332.357732 
z
" clip-path="url(#pbb03182f64)" style="fill: #009e73; opacity: 0.9"/>
   </g>
   <g id="patch_10">
    <path d="M 694.039575 549.663654 
L 715.738642 549.663654 
L 715.738642 309.234226 
L 694.039575 309.234226 
z
" clip-path="url(#pbb03182f64)" style="fill: #009e73; opacity: 0.9"/>
   </g>
   <g id="patch_11">
    <path d="M 780.835845 549.663654 
L 802.534913 549.663654 
L 802.534913 316.127452 
L 780.835845 316.127452 
z
" clip-path="url(#pbb03182f64)" style="fill: #009e73; opacity: 0.9"/>
   </g>
   <g id="patch_12">
    <path d="M 867.632115 549.663654 
L 889.331183 549.663654 
L 889.331183 302.494625 
L 867.632115 302.494625 
z
" clip-path="url(#pbb03182f64)" style="fill: #009e73; opacity: 0.9"/>
   </g>
   <g id="patch_13">
    <path d="M 108.164749 549.663654 
L 129.863817 549.663654 
L 129.863817 111.983962 
L 108.164749 111.983962 
z
" clip-path="url(#pbb03182f64)" style="fill: #cc79a7; opacity: 0.9"/>
   </g>
   <g id="patch_14">
    <path d="M 194.96102 549.663654 
L 216.660087 549.663654 
L 216.660087 303.468827 
L 194.96102 303.468827 
z
" clip-path="url(#pbb03182f64)" style="fill: #cc79a7; opacity: 0.9"/>
   </g>
   <g id="patch_15">
    <path d="M 281.75729 549.663654 
L 303.456358 549.663654 
L 303.456358 324.387342 
L 281.75729 324.387342 
z
" clip-path="url(#pbb03182f64)" style="fill: #cc79a7; opacity: 0.9"/>
   </g>
   <g id="patch_16">
    <path d="M 368.553561 549.663654 
L 390.252628 549.663654 
L 390.252628 326.447011 
L 368.553561 326.447011 
z
" clip-path="url(#pbb03182f64)" style="fill: #cc79a7; opacity: 0.9"/>
   </g>
   <g id="patch_17">
    <path d="M 455.349831 549.663654 
L 477.048899 549.663654 
L 477.048899 317.479915 
L 455.349831 317.479915 
z
" clip-path="url(#pbb03182f64)" style="fill: #cc79a7; opacity: 0.9"/>
   </g>
   <g id="patch_18">
    <path d="M 542.146101 549.663654 
L 563.845169 549.663654 
L 563.845169 303.468827 
L 542.146101 303.468827 
z
" clip-path="url(#pbb03182f64)" style="fill: #cc79a7; opacity: 0.9"/>
   </g>
   <g id="patch_19">
    <path d="M 628.942372 549.663654 
L 650.641439 549.663654 
L 650.641439 267.824458 
L 628.942372 267.824458 
z
" clip-path="url(#pbb03182f64)" style="fill: #cc79a7; opacity: 0.9"/>
   </g>
   <g id="patch_20">
    <path d="M 715.738642 549.663654 
L 737.43771 549.663654 
L 737.43771 226.677134 
L 715.738642 226.677134 
z
" clip-path="url(#pbb03182f64)" style="fill: #cc79a7; opacity: 0.9"/>
   </g>
   <g id="patch_21">
    <path d="M 802.534913 549.663654 
L 824.23398 549.663654 
L 824.23398 238.983362 
L 802.534913 238.983362 
z
" clip-path="url(#pbb03182f64)" style="fill: #cc79a7; opacity: 0.9"/>
   </g>
   <g id="patch_22">
    <path d="M 889.331183 549.663654 
L 911.030251 549.663654 
L 911.030251 219.420442 
L 889.331183 219.420442 
z
" clip-path="url(#pbb03182f64)" style="fill: #cc79a7; opacity: 0.9"/>
   </g>
   <g id="patch_23">
    <path d="M 129.863817 549.663654 
L 151.562885 549.663654 
L 151.562885 367.297115 
L 129.863817 367.297115 
z
" clip-path="url(#pbb03182f64)" style="fill: #cc79a7; opacity: 0.9"/>
   </g>
   <g id="patch_24">
    <path d="M 216.660087 549.663654 
L 238.359155 549.663654 
L 238.359155 440.243731 
L 216.660087 440.243731 
z
" clip-path="url(#pbb03182f64)" style="fill: #cc79a7; opacity: 0.9"/>
   </g>
   <g id="patch_25">
    <path d="M 303.456358 549.663654 
L 325.155425 549.663654 
L 325.155425 440.243731 
L 303.456358 440.243731 
z
" clip-path="url(#pbb03182f64)" style="fill: #cc79a7; opacity: 0.9"/>
   </g>
   <g id="patch_26">
    <path d="M 390.252628 549.663654 
L 411.951696 549.663654 
L 411.951696 431.490137 
L 390.252628 431.490137 
z
" clip-path="url(#pbb03182f64)" style="fill: #cc79a7; opacity: 0.9"/>
   </g>
   <g id="patch_27">
    <path d="M 477.048899 549.663654 
L 498.747966 549.663654 
L 498.747966 416.224723 
L 477.048899 416.224723 
z
" clip-path="url(#pbb03182f64)" style="fill: #cc79a7; opacity: 0.9"/>
   </g>
   <g id="patch_28">
    <path d="M 563.845169 549.663654 
L 585.544237 549.663654 
L 585.544237 408.569542 
L 563.845169 408.569542 
z
" clip-path="url(#pbb03182f64)" style="fill: #cc79a7; opacity: 0.9"/>
   </g>
   <g id="patch_29">
    <path d="M 650.641439 549.663654 
L 672.340507 549.663654 
L 672.340507 407.749329 
L 650.641439 407.749329 
z
" clip-path="url(#pbb03182f64)" style="fill: #cc79a7; opacity: 0.9"/>
   </g>
   <g id="patch_30">
    <path d="M 737.43771 549.663654 
L 759.136777 549.663654 
L 759.136777 402.671829 
L 737.43771 402.671829 
z
" clip-path="url(#pbb03182f64)" style="fill: #cc79a7; opacity: 0.9"/>
   </g>
   <g id="patch_31">
    <path d="M 824.23398 549.663654 
L 845.933048 549.663654 
L 845.933048 404.099011 
L 824.23398 404.099011 
z
" clip-path="url(#pbb03182f64)" style="fill: #cc79a7; opacity: 0.9"/>
   </g>
   <g id="patch_32">
    <path d="M 911.030251 549.663654 
L 932.729318 549.663654 
L 932.729318 403.467397 
L 911.030251 403.467397 
z
" clip-path="url(#pbb03182f64)" style="fill: #cc79a7; opacity: 0.9"/>
   </g>
   <g id="line2d_41">
    <path d="M 44.1525 440.243731 
L 975.0425 440.243731 
" clip-path="url(#pbb03182f64)" style="fill: none; stroke-dasharray: 5.55,2.4; stroke-dashoffset: 0; stroke: #000000; stroke-opacity: 0.5; stroke-width: 1.5"/>
   </g>
   <g id="patch_33">
    <path d="M 44.1525 549.663654 
L 44.1525 57.274 
" style="fill: none; stroke: #cccccc; stroke-linejoin: miter; stroke-linecap: square"/>
   </g>
   <g id="patch_34">
    <path d="M 975.0425 549.663654 
L 975.0425 57.274 
" style="fill: none; stroke: #cccccc; stroke-linejoin: miter; stroke-linecap: square"/>
   </g>
   <g id="patch_35">
    <path d="M 44.1525 549.663654 
L 975.0425 549.663654 
" style="fill: none; stroke: #cccccc; stroke-linejoin: miter; stroke-linecap: square"/>
   </g>
   <g id="patch_36">
    <path d="M 44.1525 57.274 
L 975.0425 57.274 
" style="fill: none; stroke: #cccccc; stroke-linejoin: miter; stroke-linecap: square"/>
   </g>
   <g id="text_23">
    <!-- 2.40x -->
    <g style="fill: #262626" transform="translate(83.310372 276.113846) scale(0.09 -0.09)">
     <defs>
      <path id="DejaVuSans-Bold-2e" d="M 653 1209 
L 1778 1209 
L 1778 0 
L 653 0 
L 653 1209 
z
" transform="scale(0.015625)"/>
      <path id="DejaVuSans-Bold-78" d="M 1422 1791 
L 159 3500 
L 1344 3500 
L 2059 2463 
L 2784 3500 
L 3969 3500 
L 2706 1797 
L 4031 0 
L 2847 0 
L 2059 1106 
L 1281 0 
L 97 0 
L 1422 1791 
z
" transform="scale(0.015625)"/>
     </defs>
     <use xlink:href="#DejaVuSans-Bold-32"/>
     <use xlink:href="#DejaVuSans-Bold-2e" transform="translate(69.580078 0)"/>
     <use xlink:href="#DejaVuSans-Bold-34" transform="translate(107.568359 0)"/>
     <use xlink:href="#DejaVuSans-Bold-30" transform="translate(177.148438 0)"/>
     <use xlink:href="#DejaVuSans-Bold-78" transform="translate(246.728516 0)"/>
    </g>
   </g>
   <g id="text_24">
    <!-- 4.00x -->
    <g style="fill: #262626" transform="translate(105.009439 101.041969) scale(0.09 -0.09)">
     <use xlink:href="#DejaVuSans-Bold-34"/>
     <use xlink:href="#DejaVuSans-Bold-2e" transform="translate(69.580078 0)"/>
     <use xlink:href="#DejaVuSans-Bold-30" transform="translate(107.568359 0)"/>
     <use xlink:href="#DejaVuSans-Bold-30" transform="translate(177.148438 0)"/>
     <use xlink:href="#DejaVuSans-Bold-78" transform="translate(246.728516 0)"/>
    </g>
   </g>
   <g id="text_25">
    <!-- 1.67x -->
    <g style="fill: #262626" transform="translate(126.708507 356.355123) scale(0.09 -0.09)">
     <use xlink:href="#DejaVuSans-Bold-31"/>
     <use xlink:href="#DejaVuSans-Bold-2e" transform="translate(69.580078 0)"/>
     <use xlink:href="#DejaVuSans-Bold-36" transform="translate(107.568359 0)"/>
     <use xlink:href="#DejaVuSans-Bold-37" transform="translate(177.148438 0)"/>
     <use xlink:href="#DejaVuSans-Bold-78" transform="translate(246.728516 0)"/>
    </g>
   </g>
   <g id="text_26">
    <!-- 2.25x -->
    <g style="fill: #262626" transform="translate(170.106642 292.526835) scale(0.09 -0.09)">
     <use xlink:href="#DejaVuSans-Bold-32"/>
     <use xlink:href="#DejaVuSans-Bold-2e" transform="translate(69.580078 0)"/>
     <use xlink:href="#DejaVuSans-Bold-32" transform="translate(107.568359 0)"/>
     <use xlink:href="#DejaVuSans-Bold-35" transform="translate(177.148438 0)"/>
     <use xlink:href="#DejaVuSans-Bold-78" transform="translate(246.728516 0)"/>
    </g>
   </g>
   <g id="text_27">
    <!-- 2.25x -->
    <g style="fill: #262626" transform="translate(191.80571 292.526835) scale(0.09 -0.09)">
     <use xlink:href="#DejaVuSans-Bold-32"/>
     <use xlink:href="#DejaVuSans-Bold-2e" transform="translate(69.580078 0)"/>
     <use xlink:href="#DejaVuSans-Bold-32" transform="translate(107.568359 0)"/>
     <use xlink:href="#DejaVuSans-Bold-35" transform="translate(177.148438 0)"/>
     <use xlink:href="#DejaVuSans-Bold-78" transform="translate(246.728516 0)"/>
    </g>
   </g>
   <g id="text_28">
    <!-- 1.00x -->
    <g style="fill: #262626" transform="translate(213.504777 429.301738) scale(0.09 -0.09)">
     <use xlink:href="#DejaVuSans-Bold-31"/>
     <use xlink:href="#DejaVuSans-Bold-2e" transform="translate(69.580078 0)"/>
     <use xlink:href="#DejaVuSans-Bold-30" transform="translate(107.568359 0)"/>
     <use xlink:href="#DejaVuSans-Bold-30" transform="translate(177.148438 0)"/>
     <use xlink:href="#DejaVuSans-Bold-78" transform="translate(246.728516 0)"/>
    </g>
   </g>
   <g id="text_29">
    <!-- 2.06x -->
    <g style="fill: #262626" transform="translate(256.902913 313.445349) scale(0.09 -0.09)">
     <use xlink:href="#DejaVuSans-Bold-32"/>
     <use xlink:href="#DejaVuSans-Bold-2e" transform="translate(69.580078 0)"/>
     <use xlink:href="#DejaVuSans-Bold-30" transform="translate(107.568359 0)"/>
     <use xlink:href="#DejaVuSans-Bold-36" transform="translate(177.148438 0)"/>
     <use xlink:href="#DejaVuSans-Bold-78" transform="translate(246.728516 0)"/>
    </g>
   </g>
   <g id="text_30">
    <!-- 2.06x -->
    <g style="fill: #262626" transform="translate(278.60198 313.445349) scale(0.09 -0.09)">
     <use xlink:href="#DejaVuSans-Bold-32"/>
     <use xlink:href="#DejaVuSans-Bold-2e" transform="translate(69.580078 0)"/>
     <use xlink:href="#DejaVuSans-Bold-30" transform="translate(107.568359 0)"/>
     <use xlink:href="#DejaVuSans-Bold-36" transform="translate(177.148438 0)"/>
     <use xlink:href="#DejaVuSans-Bold-78" transform="translate(246.728516 0)"/>
    </g>
   </g>
   <g id="text_31">
    <!-- 1.00x -->
    <g style="fill: #262626" transform="translate(300.301048 429.301738) scale(0.09 -0.09)">
     <use xlink:href="#DejaVuSans-Bold-31"/>
     <use xlink:href="#DejaVuSans-Bold-2e" transform="translate(69.580078 0)"/>
     <use xlink:href="#DejaVuSans-Bold-30" transform="translate(107.568359 0)"/>
     <use xlink:href="#DejaVuSans-Bold-30" transform="translate(177.148438 0)"/>
     <use xlink:href="#DejaVuSans-Bold-78" transform="translate(246.728516 0)"/>
    </g>
   </g>
   <g id="text_32">
    <!-- 1.89x -->
    <g style="fill: #262626" transform="translate(343.699183 332.039585) scale(0.09 -0.09)">
     <use xlink:href="#DejaVuSans-Bold-31"/>
     <use xlink:href="#DejaVuSans-Bold-2e" transform="translate(69.580078 0)"/>
     <use xlink:href="#DejaVuSans-Bold-38" transform="translate(107.568359 0)"/>
     <use xlink:href="#DejaVuSans-Bold-39" transform="translate(177.148438 0)"/>
     <use xlink:href="#DejaVuSans-Bold-78" transform="translate(246.728516 0)"/>
    </g>
   </g>
   <g id="text_33">
    <!-- 2.04x -->
    <g style="fill: #262626" transform="translate(365.398251 315.505018) scale(0.09 -0.09)">
     <use xlink:href="#DejaVuSans-Bold-32"/>
     <use xlink:href="#DejaVuSans-Bold-2e" transform="translate(69.580078 0)"/>
     <use xlink:href="#DejaVuSans-Bold-30" transform="translate(107.568359 0)"/>
     <use xlink:href="#DejaVuSans-Bold-34" transform="translate(177.148438 0)"/>
     <use xlink:href="#DejaVuSans-Bold-78" transform="translate(246.728516 0)"/>
    </g>
   </g>
   <g id="text_34">
    <!-- 1.08x -->
    <g style="fill: #262626" transform="translate(387.097318 420.548145) scale(0.09 -0.09)">
     <use xlink:href="#DejaVuSans-Bold-31"/>
     <use xlink:href="#DejaVuSans-Bold-2e" transform="translate(69.580078 0)"/>
     <use xlink:href="#DejaVuSans-Bold-30" transform="translate(107.568359 0)"/>
     <use xlink:href="#DejaVuSans-Bold-38" transform="translate(177.148438 0)"/>
     <use xlink:href="#DejaVuSans-Bold-78" transform="translate(246.728516 0)"/>
    </g>
   </g>
   <g id="text_35">
    <!-- 1.74x -->
    <g style="fill: #262626" transform="translate(430.495453 348.330995) scale(0.09 -0.09)">
     <use xlink:href="#DejaVuSans-Bold-31"/>
     <use xlink:href="#DejaVuSans-Bold-2e" transform="translate(69.580078 0)"/>
     <use xlink:href="#DejaVuSans-Bold-37" transform="translate(107.568359 0)"/>
     <use xlink:href="#DejaVuSans-Bold-34" transform="translate(177.148438 0)"/>
     <use xlink:href="#DejaVuSans-Bold-78" transform="translate(246.728516 0)"/>
    </g>
   </g>
   <g id="text_36">
    <!-- 2.12x -->
    <g style="fill: #262626" transform="translate(452.194521 306.537922) scale(0.09 -0.09)">
     <use xlink:href="#DejaVuSans-Bold-32"/>
     <use xlink:href="#DejaVuSans-Bold-2e" transform="translate(69.580078 0)"/>
     <use xlink:href="#DejaVuSans-Bold-31" transform="translate(107.568359 0)"/>
     <use xlink:href="#DejaVuSans-Bold-32" transform="translate(177.148438 0)"/>
     <use xlink:href="#DejaVuSans-Bold-78" transform="translate(246.728516 0)"/>
    </g>
   </g>
   <g id="text_37">
    <!-- 1.22x -->
    <g style="fill: #262626" transform="translate(473.893589 405.282731) scale(0.09 -0.09)">
     <use xlink:href="#DejaVuSans-Bold-31"/>
     <use xlink:href="#DejaVuSans-Bold-2e" transform="translate(69.580078 0)"/>
     <use xlink:href="#DejaVuSans-Bold-32" transform="translate(107.568359 0)"/>
     <use xlink:href="#DejaVuSans-Bold-32" transform="translate(177.148438 0)"/>
     <use xlink:href="#DejaVuSans-Bold-78" transform="translate(246.728516 0)"/>
    </g>
   </g>
   <g id="text_38">
    <!-- 1.74x -->
    <g style="fill: #262626" transform="translate(517.291724 347.795061) scale(0.09 -0.09)">
     <use xlink:href="#DejaVuSans-Bold-31"/>
     <use xlink:href="#DejaVuSans-Bold-2e" transform="translate(69.580078 0)"/>
     <use xlink:href="#DejaVuSans-Bold-37" transform="translate(107.568359 0)"/>
     <use xlink:href="#DejaVuSans-Bold-34" transform="translate(177.148438 0)"/>
     <use xlink:href="#DejaVuSans-Bold-78" transform="translate(246.728516 0)"/>
    </g>
   </g>
   <g id="text_39">
    <!-- 2.25x -->
    <g style="fill: #262626" transform="translate(538.990791 292.526835) scale(0.09 -0.09)">
     <use xlink:href="#DejaVuSans-Bold-32"/>
     <use xlink:href="#DejaVuSans-Bold-2e" transform="translate(69.580078 0)"/>
     <use xlink:href="#DejaVuSans-Bold-32" transform="translate(107.568359 0)"/>
     <use xlink:href="#DejaVuSans-Bold-35" transform="translate(177.148438 0)"/>
     <use xlink:href="#DejaVuSans-Bold-78" transform="translate(246.728516 0)"/>
    </g>
   </g>
   <g id="text_40">
    <!-- 1.29x -->
    <g style="fill: #262626" transform="translate(560.689859 397.62755) scale(0.09 -0.09)">
     <use xlink:href="#DejaVuSans-Bold-31"/>
     <use xlink:href="#DejaVuSans-Bold-2e" transform="translate(69.580078 0)"/>
     <use xlink:href="#DejaVuSans-Bold-32" transform="translate(107.568359 0)"/>
     <use xlink:href="#DejaVuSans-Bold-39" transform="translate(177.148438 0)"/>
     <use xlink:href="#DejaVuSans-Bold-78" transform="translate(246.728516 0)"/>
    </g>
   </g>
   <g id="text_41">
    <!-- 1.99x -->
    <g style="fill: #262626" transform="translate(604.087994 321.415739) scale(0.09 -0.09)">
     <use xlink:href="#DejaVuSans-Bold-31"/>
     <use xlink:href="#DejaVuSans-Bold-2e" transform="translate(69.580078 0)"/>
     <use xlink:href="#DejaVuSans-Bold-39" transform="translate(107.568359 0)"/>
     <use xlink:href="#DejaVuSans-Bold-39" transform="translate(177.148438 0)"/>
     <use xlink:href="#DejaVuSans-Bold-78" transform="translate(246.728516 0)"/>
    </g>
   </g>
   <g id="text_42">
    <!-- 2.58x -->
    <g style="fill: #262626" transform="translate(625.787062 256.882466) scale(0.09 -0.09)">
     <use xlink:href="#DejaVuSans-Bold-32"/>
     <use xlink:href="#DejaVuSans-Bold-2e" transform="translate(69.580078 0)"/>
     <use xlink:href="#DejaVuSans-Bold-35" transform="translate(107.568359 0)"/>
     <use xlink:href="#DejaVuSans-Bold-38" transform="translate(177.148438 0)"/>
     <use xlink:href="#DejaVuSans-Bold-78" transform="translate(246.728516 0)"/>
    </g>
   </g>
   <g id="text_43">
    <!-- 1.30x -->
    <g style="fill: #262626" transform="translate(647.486129 396.807337) scale(0.09 -0.09)">
     <use xlink:href="#DejaVuSans-Bold-31"/>
     <use xlink:href="#DejaVuSans-Bold-2e" transform="translate(69.580078 0)"/>
     <use xlink:href="#DejaVuSans-Bold-33" transform="translate(107.568359 0)"/>
     <use xlink:href="#DejaVuSans-Bold-30" transform="translate(177.148438 0)"/>
     <use xlink:href="#DejaVuSans-Bold-78" transform="translate(246.728516 0)"/>
    </g>
   </g>
   <g id="text_44">
    <!-- 2.20x -->
    <g style="fill: #262626" transform="translate(690.884265 298.292234) scale(0.09 -0.09)">
     <use xlink:href="#DejaVuSans-Bold-32"/>
     <use xlink:href="#DejaVuSans-Bold-2e" transform="translate(69.580078 0)"/>
     <use xlink:href="#DejaVuSans-Bold-32" transform="translate(107.568359 0)"/>
     <use xlink:href="#DejaVuSans-Bold-30" transform="translate(177.148438 0)"/>
     <use xlink:href="#DejaVuSans-Bold-78" transform="translate(246.728516 0)"/>
    </g>
   </g>
   <g id="text_45">
    <!-- 2.95x -->
    <g style="fill: #262626" transform="translate(712.583332 215.735142) scale(0.09 -0.09)">
     <use xlink:href="#DejaVuSans-Bold-32"/>
     <use xlink:href="#DejaVuSans-Bold-2e" transform="translate(69.580078 0)"/>
     <use xlink:href="#DejaVuSans-Bold-39" transform="translate(107.568359 0)"/>
     <use xlink:href="#DejaVuSans-Bold-35" transform="translate(177.148438 0)"/>
     <use xlink:href="#DejaVuSans-Bold-78" transform="translate(246.728516 0)"/>
    </g>
   </g>
   <g id="text_46">
    <!-- 1.34x -->
    <g style="fill: #262626" transform="translate(734.2824 391.729837) scale(0.09 -0.09)">
     <use xlink:href="#DejaVuSans-Bold-31"/>
     <use xlink:href="#DejaVuSans-Bold-2e" transform="translate(69.580078 0)"/>
     <use xlink:href="#DejaVuSans-Bold-33" transform="translate(107.568359 0)"/>
     <use xlink:href="#DejaVuSans-Bold-34" transform="translate(177.148438 0)"/>
     <use xlink:href="#DejaVuSans-Bold-78" transform="translate(246.728516 0)"/>
    </g>
   </g>
   <g id="text_47">
    <!-- 2.13x -->
    <g style="fill: #262626" transform="translate(777.680535 305.18546) scale(0.09 -0.09)">
     <use xlink:href="#DejaVuSans-Bold-32"/>
     <use xlink:href="#DejaVuSans-Bold-2e" transform="translate(69.580078 0)"/>
     <use xlink:href="#DejaVuSans-Bold-31" transform="translate(107.568359 0)"/>
     <use xlink:href="#DejaVuSans-Bold-33" transform="translate(177.148438 0)"/>
     <use xlink:href="#DejaVuSans-Bold-78" transform="translate(246.728516 0)"/>
    </g>
   </g>
   <g id="text_48">
    <!-- 2.84x -->
    <g style="fill: #262626" transform="translate(799.379603 228.041369) scale(0.09 -0.09)">
     <use xlink:href="#DejaVuSans-Bold-32"/>
     <use xlink:href="#DejaVuSans-Bold-2e" transform="translate(69.580078 0)"/>
     <use xlink:href="#DejaVuSans-Bold-38" transform="translate(107.568359 0)"/>
     <use xlink:href="#DejaVuSans-Bold-34" transform="translate(177.148438 0)"/>
     <use xlink:href="#DejaVuSans-Bold-78" transform="translate(246.728516 0)"/>
    </g>
   </g>
   <g id="text_49">
    <!-- 1.33x -->
    <g style="fill: #262626" transform="translate(821.07867 393.157019) scale(0.09 -0.09)">
     <use xlink:href="#DejaVuSans-Bold-31"/>
     <use xlink:href="#DejaVuSans-Bold-2e" transform="translate(69.580078 0)"/>
     <use xlink:href="#DejaVuSans-Bold-33" transform="translate(107.568359 0)"/>
     <use xlink:href="#DejaVuSans-Bold-33" transform="translate(177.148438 0)"/>
     <use xlink:href="#DejaVuSans-Bold-78" transform="translate(246.728516 0)"/>
    </g>
   </g>
   <g id="text_50">
    <!-- 2.26x -->
    <g style="fill: #262626" transform="translate(864.476805 291.552632) scale(0.09 -0.09)">
     <use xlink:href="#DejaVuSans-Bold-32"/>
     <use xlink:href="#DejaVuSans-Bold-2e" transform="translate(69.580078 0)"/>
     <use xlink:href="#DejaVuSans-Bold-32" transform="translate(107.568359 0)"/>
     <use xlink:href="#DejaVuSans-Bold-36" transform="translate(177.148438 0)"/>
     <use xlink:href="#DejaVuSans-Bold-78" transform="translate(246.728516 0)"/>
    </g>
   </g>
   <g id="text_51">
    <!-- 3.02x -->
    <g style="fill: #262626" transform="translate(886.175873 208.47845) scale(0.09 -0.09)">
     <use xlink:href="#DejaVuSans-Bold-33"/>
     <use xlink:href="#DejaVuSans-Bold-2e" transform="translate(69.580078 0)"/>
     <use xlink:href="#DejaVuSans-Bold-30" transform="translate(107.568359 0)"/>
     <use xlink:href="#DejaVuSans-Bold-32" transform="translate(177.148438 0)"/>
     <use xlink:href="#DejaVuSans-Bold-78" transform="translate(246.728516 0)"/>
    </g>
   </g>
   <g id="text_52">
    <!-- 1.34x -->
    <g style="fill: #262626" transform="translate(907.874941 392.525405) scale(0.09 -0.09)">
     <use xlink:href="#DejaVuSans-Bold-31"/>
     <use xlink:href="#DejaVuSans-Bold-2e" transform="translate(69.580078 0)"/>
     <use xlink:href="#DejaVuSans-Bold-33" transform="translate(107.568359 0)"/>
     <use xlink:href="#DejaVuSans-Bold-34" transform="translate(177.148438 0)"/>
     <use xlink:href="#DejaVuSans-Bold-78" transform="translate(246.728516 0)"/>
    </g>
   </g>
   <g id="text_53">
    <g id="patch_37">
     <path d="M 62.7703 542.815861 
L 539.93905 542.815861 
Q 542.93905 542.815861 542.93905 539.815861 
L 542.93905 518.939923 
Q 542.93905 515.939923 539.93905 515.939923 
L 62.7703 515.939923 
Q 59.7703 515.939923 59.7703 518.939923 
L 59.7703 539.815861 
Q 59.7703 542.815861 62.7703 542.815861 
z
" style="fill: #ffffff; opacity: 0.9; stroke: #d3d3d3; stroke-linejoin: miter"/>
    </g>
    <!-- Values &gt; 1 indicate faster performance than the reference implementation. -->
    <g style="fill: #262626" transform="translate(62.7703 526.260236) scale(0.1 -0.1)">
     <defs>
      <path id="DejaVuSans-56" d="M 1831 0 
L 50 4666 
L 709 4666 
L 2188 738 
L 3669 4666 
L 4325 4666 
L 2547 0 
L 1831 0 
z
" transform="scale(0.015625)"/>
      <path id="DejaVuSans-61" d="M 2194 1759 
Q 1497 1759 1228 1600 
Q 959 1441 959 1056 
Q 959 750 1161 570 
Q 1363 391 1709 391 
Q 2188 391 2477 730 
Q 2766 1069 2766 1631 
L 2766 1759 
L 2194 1759 
z
M 3341 1997 
L 3341 0 
L 2766 0 
L 2766 531 
Q 2569 213 2275 61 
Q 1981 -91 1556 -91 
Q 1019 -91 701 211 
Q 384 513 384 1019 
Q 384 1609 779 1909 
Q 1175 2209 1959 2209 
L 2766 2209 
L 2766 2266 
Q 2766 2663 2505 2880 
Q 2244 3097 1772 3097 
Q 1472 3097 1187 3025 
Q 903 2953 641 2809 
L 641 3341 
Q 956 3463 1253 3523 
Q 1550 3584 1831 3584 
Q 2591 3584 2966 3190 
Q 3341 2797 3341 1997 
z
" transform="scale(0.015625)"/>
      <path id="DejaVuSans-6c" d="M 603 4863 
L 1178 4863 
L 1178 0 
L 603 0 
L 603 4863 
z
" transform="scale(0.015625)"/>
      <path id="DejaVuSans-75" d="M 544 1381 
L 544 3500 
L 1119 3500 
L 1119 1403 
Q 1119 906 1312 657 
Q 1506 409 1894 409 
Q 2359 409 2629 706 
Q 2900 1003 2900 1516 
L 2900 3500 
L 3475 3500 
L 3475 0 
L 2900 0 
L 2900 538 
Q 2691 219 2414 64 
Q 2138 -91 1772 -91 
Q 1169 -91 856 284 
Q 544 659 544 1381 
z
M 1991 3584 
L 1991 3584 
z
" transform="scale(0.015625)"/>
      <path id="DejaVuSans-65" d="M 3597 1894 
L 3597 1613 
L 953 1613 
Q 991 1019 1311 708 
Q 1631 397 2203 397 
Q 2534 397 2845 478 
Q 3156 559 3463 722 
L 3463 178 
Q 3153 47 2828 -22 
Q 2503 -91 2169 -91 
Q 1331 -91 842 396 
Q 353 884 353 1716 
Q 353 2575 817 3079 
Q 1281 3584 2069 3584 
Q 2775 3584 3186 3129 
Q 3597 2675 3597 1894 
z
M 3022 2063 
Q 3016 2534 2758 2815 
Q 2500 3097 2075 3097 
Q 1594 3097 1305 2825 
Q 1016 2553 972 2059 
L 3022 2063 
z
" transform="scale(0.015625)"/>
      <path id="DejaVuSans-73" d="M 2834 3397 
L 2834 2853 
Q 2591 2978 2328 3040 
Q 2066 3103 1784 3103 
Q 1356 3103 1142 2972 
Q 928 2841 928 2578 
Q 928 2378 1081 2264 
Q 1234 2150 1697 2047 
L 1894 2003 
Q 2506 1872 2764 1633 
Q 3022 1394 3022 966 
Q 3022 478 2636 193 
Q 2250 -91 1575 -91 
Q 1294 -91 989 -36 
Q 684 19 347 128 
L 347 722 
Q 666 556 975 473 
Q 1284 391 1588 391 
Q 1994 391 2212 530 
Q 2431 669 2431 922 
Q 2431 1156 2273 1281 
Q 2116 1406 1581 1522 
L 1381 1569 
Q 847 1681 609 1914 
Q 372 2147 372 2553 
Q 372 3047 722 3315 
Q 1072 3584 1716 3584 
Q 2034 3584 2315 3537 
Q 2597 3491 2834 3397 
z
" transform="scale(0.015625)"/>
      <path id="DejaVuSans-20" transform="scale(0.015625)"/>
      <path id="DejaVuSans-3e" d="M 678 3150 
L 678 3719 
L 4684 2266 
L 4684 1747 
L 678 294 
L 678 863 
L 3897 2003 
L 678 3150 
z
" transform="scale(0.015625)"/>
      <path id="DejaVuSans-69" d="M 603 3500 
L 1178 3500 
L 1178 0 
L 603 0 
L 603 3500 
z
M 603 4863 
L 1178 4863 
L 1178 4134 
L 603 4134 
L 603 4863 
z
" transform="scale(0.015625)"/>
      <path id="DejaVuSans-6e" d="M 3513 2113 
L 3513 0 
L 2938 0 
L 2938 2094 
Q 2938 2591 2744 2837 
Q 2550 3084 2163 3084 
Q 1697 3084 1428 2787 
Q 1159 2491 1159 1978 
L 1159 0 
L 581 0 
L 581 3500 
L 1159 3500 
L 1159 2956 
Q 1366 3272 1645 3428 
Q 1925 3584 2291 3584 
Q 2894 3584 3203 3211 
Q 3513 2838 3513 2113 
z
" transform="scale(0.015625)"/>
      <path id="DejaVuSans-64" d="M 2906 2969 
L 2906 4863 
L 3481 4863 
L 3481 0 
L 2906 0 
L 2906 525 
Q 2725 213 2448 61 
Q 2172 -91 1784 -91 
Q 1150 -91 751 415 
Q 353 922 353 1747 
Q 353 2572 751 3078 
Q 1150 3584 1784 3584 
Q 2172 3584 2448 3432 
Q 2725 3281 2906 2969 
z
M 947 1747 
Q 947 1113 1208 752 
Q 1469 391 1925 391 
Q 2381 391 2643 752 
Q 2906 1113 2906 1747 
Q 2906 2381 2643 2742 
Q 2381 3103 1925 3103 
Q 1469 3103 1208 2742 
Q 947 2381 947 1747 
z
" transform="scale(0.015625)"/>
      <path id="DejaVuSans-63" d="M 3122 3366 
L 3122 2828 
Q 2878 2963 2633 3030 
Q 2388 3097 2138 3097 
Q 1578 3097 1268 2742 
Q 959 2388 959 1747 
Q 959 1106 1268 751 
Q 1578 397 2138 397 
Q 2388 397 2633 464 
Q 2878 531 3122 666 
L 3122 134 
Q 2881 22 2623 -34 
Q 2366 -91 2075 -91 
Q 1284 -91 818 406 
Q 353 903 353 1747 
Q 353 2603 823 3093 
Q 1294 3584 2113 3584 
Q 2378 3584 2631 3529 
Q 2884 3475 3122 3366 
z
" transform="scale(0.015625)"/>
      <path id="DejaVuSans-74" d="M 1172 4494 
L 1172 3500 
L 2356 3500 
L 2356 3053 
L 1172 3053 
L 1172 1153 
Q 1172 725 1289 603 
Q 1406 481 1766 481 
L 2356 481 
L 2356 0 
L 1766 0 
Q 1100 0 847 248 
Q 594 497 594 1153 
L 594 3053 
L 172 3053 
L 172 3500 
L 594 3500 
L 594 4494 
L 1172 4494 
z
" transform="scale(0.015625)"/>
      <path id="DejaVuSans-66" d="M 2375 4863 
L 2375 4384 
L 1825 4384 
Q 1516 4384 1395 4259 
Q 1275 4134 1275 3809 
L 1275 3500 
L 2222 3500 
L 2222 3053 
L 1275 3053 
L 1275 0 
L 697 0 
L 697 3053 
L 147 3053 
L 147 3500 
L 697 3500 
L 697 3744 
Q 697 4328 969 4595 
Q 1241 4863 1831 4863 
L 2375 4863 
z
" transform="scale(0.015625)"/>
      <path id="DejaVuSans-72" d="M 2631 2963 
Q 2534 3019 2420 3045 
Q 2306 3072 2169 3072 
Q 1681 3072 1420 2755 
Q 1159 2438 1159 1844 
L 1159 0 
L 581 0 
L 581 3500 
L 1159 3500 
L 1159 2956 
Q 1341 3275 1631 3429 
Q 1922 3584 2338 3584 
Q 2397 3584 2469 3576 
Q 2541 3569 2628 3553 
L 2631 2963 
z
" transform="scale(0.015625)"/>
      <path id="DejaVuSans-70" d="M 1159 525 
L 1159 -1331 
L 581 -1331 
L 581 3500 
L 1159 3500 
L 1159 2969 
Q 1341 3281 1617 3432 
Q 1894 3584 2278 3584 
Q 2916 3584 3314 3078 
Q 3713 2572 3713 1747 
Q 3713 922 3314 415 
Q 2916 -91 2278 -91 
Q 1894 -91 1617 61 
Q 1341 213 1159 525 
z
M 3116 1747 
Q 3116 2381 2855 2742 
Q 2594 3103 2138 3103 
Q 1681 3103 1420 2742 
Q 1159 2381 1159 1747 
Q 1159 1113 1420 752 
Q 1681 391 2138 391 
Q 2594 391 2855 752 
Q 3116 1113 3116 1747 
z
" transform="scale(0.015625)"/>
      <path id="DejaVuSans-6f" d="M 1959 3097 
Q 1497 3097 1228 2736 
Q 959 2375 959 1747 
Q 959 1119 1226 758 
Q 1494 397 1959 397 
Q 2419 397 2687 759 
Q 2956 1122 2956 1747 
Q 2956 2369 2687 2733 
Q 2419 3097 1959 3097 
z
M 1959 3584 
Q 2709 3584 3137 3096 
Q 3566 2609 3566 1747 
Q 3566 888 3137 398 
Q 2709 -91 1959 -91 
Q 1206 -91 779 398 
Q 353 888 353 1747 
Q 353 2609 779 3096 
Q 1206 3584 1959 3584 
z
" transform="scale(0.015625)"/>
      <path id="DejaVuSans-6d" d="M 3328 2828 
Q 3544 3216 3844 3400 
Q 4144 3584 4550 3584 
Q 5097 3584 5394 3201 
Q 5691 2819 5691 2113 
L 5691 0 
L 5113 0 
L 5113 2094 
Q 5113 2597 4934 2840 
Q 4756 3084 4391 3084 
Q 3944 3084 3684 2787 
Q 3425 2491 3425 1978 
L 3425 0 
L 2847 0 
L 2847 2094 
Q 2847 2600 2669 2842 
Q 2491 3084 2119 3084 
Q 1678 3084 1418 2786 
Q 1159 2488 1159 1978 
L 1159 0 
L 581 0 
L 581 3500 
L 1159 3500 
L 1159 2956 
Q 1356 3278 1631 3431 
Q 1906 3584 2284 3584 
Q 2666 3584 2933 3390 
Q 3200 3197 3328 2828 
z
" transform="scale(0.015625)"/>
      <path id="DejaVuSans-68" d="M 3513 2113 
L 3513 0 
L 2938 0 
L 2938 2094 
Q 2938 2591 2744 2837 
Q 2550 3084 2163 3084 
Q 1697 3084 1428 2787 
Q 1159 2491 1159 1978 
L 1159 0 
L 581 0 
L 581 4863 
L 1159 4863 
L 1159 2956 
Q 1366 3272 1645 3428 
Q 1925 3584 2291 3584 
Q 2894 3584 3203 3211 
Q 3513 2838 3513 2113 
z
" transform="scale(0.015625)"/>
     </defs>
     <use xlink:href="#DejaVuSans-56"/>
     <use xlink:href="#DejaVuSans-61" transform="translate(60.658203 0)"/>
     <use xlink:href="#DejaVuSans-6c" transform="translate(121.9375 0)"/>
     <use xlink:href="#DejaVuSans-75" transform="translate(149.720703 0)"/>
     <use xlink:href="#DejaVuSans-65" transform="translate(213.099609 0)"/>
     <use xlink:href="#DejaVuSans-73" transform="translate(274.623047 0)"/>
     <use xlink:href="#DejaVuSans-20" transform="translate(326.722656 0)"/>
     <use xlink:href="#DejaVuSans-3e" transform="translate(358.509766 0)"/>
     <use xlink:href="#DejaVuSans-20" transform="translate(442.298828 0)"/>
     <use xlink:href="#DejaVuSans-31" transform="translate(474.085938 0)"/>
     <use xlink:href="#DejaVuSans-20" transform="translate(537.708984 0)"/>
     <use xlink:href="#DejaVuSans-69" transform="translate(569.496094 0)"/>
     <use xlink:href="#DejaVuSans-6e" transform="translate(597.279297 0)"/>
     <use xlink:href="#DejaVuSans-64" transform="translate(660.658203 0)"/>
     <use xlink:href="#DejaVuSans-69" transform="translate(724.134766 0)"/>
     <use xlink:href="#DejaVuSans-63" transform="translate(751.917969 0)"/>
     <use xlink:href="#DejaVuSans-61" transform="translate(806.898438 0)"/>
     <use xlink:href="#DejaVuSans-74" transform="translate(868.177734 0)"/>
     <use xlink:href="#DejaVuSans-65" transform="translate(907.386719 0)"/>
     <use xlink:href="#DejaVuSans-20" transform="translate(968.910156 0)"/>
     <use xlink:href="#DejaVuSans-66" transform="translate(1000.697266 0)"/>
     <use xlink:href="#DejaVuSans-61" transform="translate(1035.902344 0)"/>
     <use xlink:href="#DejaVuSans-73" transform="translate(1097.181641 0)"/>
     <use xlink:href="#DejaVuSans-74" transform="translate(1149.28125 0)"/>
     <use xlink:href="#DejaVuSans-65" transform="translate(1188.490234 0)"/>
     <use xlink:href="#DejaVuSans-72" transform="translate(1250.013672 0)"/>
     <use xlink:href="#DejaVuSans-20" transform="translate(1291.126953 0)"/>
     <use xlink:href="#DejaVuSans-70" transform="translate(1322.914062 0)"/>
     <use xlink:href="#DejaVuSans-65" transform="translate(1386.390625 0)"/>
     <use xlink:href="#DejaVuSans-72" transform="translate(1447.914062 0)"/>
     <use xlink:href="#DejaVuSans-66" transform="translate(1489.027344 0)"/>
     <use xlink:href="#DejaVuSans-6f" transform="translate(1524.232422 0)"/>
     <use xlink:href="#DejaVuSans-72" transform="translate(1585.414062 0)"/>
     <use xlink:href="#DejaVuSans-6d" transform="translate(1624.777344 0)"/>
     <use xlink:href="#DejaVuSans-61" transform="translate(1722.189453 0)"/>
     <use xlink:href="#DejaVuSans-6e" transform="translate(1783.46875 0)"/>
     <use xlink:href="#DejaVuSans-63" transform="translate(1846.847656 0)"/>
     <use xlink:href="#DejaVuSans-65" transform="translate(1901.828125 0)"/>
     <use xlink:href="#DejaVuSans-20" transform="translate(1963.351562 0)"/>
     <use xlink:href="#DejaVuSans-74" transform="translate(1995.138672 0)"/>
     <use xlink:href="#DejaVuSans-68" transform="translate(2034.347656 0)"/>
     <use xlink:href="#DejaVuSans-61" transform="translate(2097.726562 0)"/>
     <use xlink:href="#DejaVuSans-6e" transform="translate(2159.005859 0)"/>
     <use xlink:href="#DejaVuSans-20" transform="translate(2222.384766 0)"/>
     <use xlink:href="#DejaVuSans-74" transform="translate(2254.171875 0)"/>
     <use xlink:href="#DejaVuSans-68" transform="translate(2293.380859 0)"/>
     <use xlink:href="#DejaVuSans-65" transform="translate(2356.759766 0)"/>
     <use xlink:href="#DejaVuSans-20" transform="translate(2418.283203 0)"/>
     <use xlink:href="#DejaVuSans-72" transform="translate(2450.070312 0)"/>
     <use xlink:href="#DejaVuSans-65" transform="translate(2488.933594 0)"/>
     <use xlink:href="#DejaVuSans-66" transform="translate(2550.457031 0)"/>
     <use xlink:href="#DejaVuSans-65" transform="translate(2585.662109 0)"/>
     <use xlink:href="#DejaVuSans-72" transform="translate(2647.185547 0)"/>
     <use xlink:href="#DejaVuSans-65" transform="translate(2686.048828 0)"/>
     <use xlink:href="#DejaVuSans-6e" transform="translate(2747.572266 0)"/>
     <use xlink:href="#DejaVuSans-63" transform="translate(2810.951172 0)"/>
     <use xlink:href="#DejaVuSans-65" transform="translate(2865.931641 0)"/>
     <use xlink:href="#DejaVuSans-20" transform="translate(2927.455078 0)"/>
     <use xlink:href="#DejaVuSans-69" transform="translate(2959.242188 0)"/>
     <use xlink:href="#DejaVuSans-6d" transform="translate(2987.025391 0)"/>
     <use xlink:href="#DejaVuSans-70" transform="translate(3084.4375 0)"/>
     <use xlink:href="#DejaVuSans-6c" transform="translate(3147.914062 0)"/>
     <use xlink:href="#DejaVuSans-65" transform="translate(3175.697266 0)"/>
     <use xlink:href="#DejaVuSans-6d" transform="translate(3237.220703 0)"/>
     <use xlink:href="#DejaVuSans-65" transform="translate(3334.632812 0)"/>
     <use xlink:href="#DejaVuSans-6e" transform="translate(3396.15625 0)"/>
     <use xlink:href="#DejaVuSans-74" transform="translate(3459.535156 0)"/>
     <use xlink:href="#DejaVuSans-61" transform="translate(3498.744141 0)"/>
     <use xlink:href="#DejaVuSans-74" transform="translate(3560.023438 0)"/>
     <use xlink:href="#DejaVuSans-69" transform="translate(3599.232422 0)"/>
     <use xlink:href="#DejaVuSans-6f" transform="translate(3627.015625 0)"/>
     <use xlink:href="#DejaVuSans-6e" transform="translate(3688.197266 0)"/>
     <use xlink:href="#DejaVuSans-2e" transform="translate(3751.576172 0)"/>
    </g>
    <!-- PML_ADD(approx) shows the advantage of approximation techniques in large-number addition. -->
    <g style="fill: #262626" transform="translate(62.7703 537.458048) scale(0.1 -0.1)">
     <defs>
      <path id="DejaVuSans-50" d="M 1259 4147 
L 1259 2394 
L 2053 2394 
Q 2494 2394 2734 2622 
Q 2975 2850 2975 3272 
Q 2975 3691 2734 3919 
Q 2494 4147 2053 4147 
L 1259 4147 
z
M 628 4666 
L 2053 4666 
Q 2838 4666 3239 4311 
Q 3641 3956 3641 3272 
Q 3641 2581 3239 2228 
Q 2838 1875 2053 1875 
L 1259 1875 
L 1259 0 
L 628 0 
L 628 4666 
z
" transform="scale(0.015625)"/>
      <path id="DejaVuSans-4d" d="M 628 4666 
L 1569 4666 
L 2759 1491 
L 3956 4666 
L 4897 4666 
L 4897 0 
L 4281 0 
L 4281 4097 
L 3078 897 
L 2444 897 
L 1241 4097 
L 1241 0 
L 628 0 
L 628 4666 
z
" transform="scale(0.015625)"/>
      <path id="DejaVuSans-4c" d="M 628 4666 
L 1259 4666 
L 1259 531 
L 3531 531 
L 3531 0 
L 628 0 
L 628 4666 
z
" transform="scale(0.015625)"/>
      <path id="DejaVuSans-5f" d="M 3263 -1063 
L 3263 -1509 
L -63 -1509 
L -63 -1063 
L 3263 -1063 
z
" transform="scale(0.015625)"/>
      <path id="DejaVuSans-41" d="M 2188 4044 
L 1331 1722 
L 3047 1722 
L 2188 4044 
z
M 1831 4666 
L 2547 4666 
L 4325 0 
L 3669 0 
L 3244 1197 
L 1141 1197 
L 716 0 
L 50 0 
L 1831 4666 
z
" transform="scale(0.015625)"/>
      <path id="DejaVuSans-44" d="M 1259 4147 
L 1259 519 
L 2022 519 
Q 2988 519 3436 956 
Q 3884 1394 3884 2338 
Q 3884 3275 3436 3711 
Q 2988 4147 2022 4147 
L 1259 4147 
z
M 628 4666 
L 1925 4666 
Q 3281 4666 3915 4102 
Q 4550 3538 4550 2338 
Q 4550 1131 3912 565 
Q 3275 0 1925 0 
L 628 0 
L 628 4666 
z
" transform="scale(0.015625)"/>
      <path id="DejaVuSans-28" d="M 1984 4856 
Q 1566 4138 1362 3434 
Q 1159 2731 1159 2009 
Q 1159 1288 1364 580 
Q 1569 -128 1984 -844 
L 1484 -844 
Q 1016 -109 783 600 
Q 550 1309 550 2009 
Q 550 2706 781 3412 
Q 1013 4119 1484 4856 
L 1984 4856 
z
" transform="scale(0.015625)"/>
      <path id="DejaVuSans-78" d="M 3513 3500 
L 2247 1797 
L 3578 0 
L 2900 0 
L 1881 1375 
L 863 0 
L 184 0 
L 1544 1831 
L 300 3500 
L 978 3500 
L 1906 2253 
L 2834 3500 
L 3513 3500 
z
" transform="scale(0.015625)"/>
      <path id="DejaVuSans-29" d="M 513 4856 
L 1013 4856 
Q 1481 4119 1714 3412 
Q 1947 2706 1947 2009 
Q 1947 1309 1714 600 
Q 1481 -109 1013 -844 
L 513 -844 
Q 928 -128 1133 580 
Q 1338 1288 1338 2009 
Q 1338 2731 1133 3434 
Q 928 4138 513 4856 
z
" transform="scale(0.015625)"/>
      <path id="DejaVuSans-77" d="M 269 3500 
L 844 3500 
L 1563 769 
L 2278 3500 
L 2956 3500 
L 3675 769 
L 4391 3500 
L 4966 3500 
L 4050 0 
L 3372 0 
L 2619 2869 
L 1863 0 
L 1184 0 
L 269 3500 
z
" transform="scale(0.015625)"/>
      <path id="DejaVuSans-76" d="M 191 3500 
L 800 3500 
L 1894 563 
L 2988 3500 
L 3597 3500 
L 2284 0 
L 1503 0 
L 191 3500 
z
" transform="scale(0.015625)"/>
      <path id="DejaVuSans-67" d="M 2906 1791 
Q 2906 2416 2648 2759 
Q 2391 3103 1925 3103 
Q 1463 3103 1205 2759 
Q 947 2416 947 1791 
Q 947 1169 1205 825 
Q 1463 481 1925 481 
Q 2391 481 2648 825 
Q 2906 1169 2906 1791 
z
M 3481 434 
Q 3481 -459 3084 -895 
Q 2688 -1331 1869 -1331 
Q 1566 -1331 1297 -1286 
Q 1028 -1241 775 -1147 
L 775 -588 
Q 1028 -725 1275 -790 
Q 1522 -856 1778 -856 
Q 2344 -856 2625 -561 
Q 2906 -266 2906 331 
L 2906 616 
Q 2728 306 2450 153 
Q 2172 0 1784 0 
Q 1141 0 747 490 
Q 353 981 353 1791 
Q 353 2603 747 3093 
Q 1141 3584 1784 3584 
Q 2172 3584 2450 3431 
Q 2728 3278 2906 2969 
L 2906 3500 
L 3481 3500 
L 3481 434 
z
" transform="scale(0.015625)"/>
      <path id="DejaVuSans-71" d="M 947 1747 
Q 947 1113 1208 752 
Q 1469 391 1925 391 
Q 2381 391 2643 752 
Q 2906 1113 2906 1747 
Q 2906 2381 2643 2742 
Q 2381 3103 1925 3103 
Q 1469 3103 1208 2742 
Q 947 2381 947 1747 
z
M 2906 525 
Q 2725 213 2448 61 
Q 2172 -91 1784 -91 
Q 1150 -91 751 415 
Q 353 922 353 1747 
Q 353 2572 751 3078 
Q 1150 3584 1784 3584 
Q 2172 3584 2448 3432 
Q 2725 3281 2906 2969 
L 2906 3500 
L 3481 3500 
L 3481 -1331 
L 2906 -1331 
L 2906 525 
z
" transform="scale(0.015625)"/>
      <path id="DejaVuSans-2d" d="M 313 2009 
L 1997 2009 
L 1997 1497 
L 313 1497 
L 313 2009 
z
" transform="scale(0.015625)"/>
      <path id="DejaVuSans-62" d="M 3116 1747 
Q 3116 2381 2855 2742 
Q 2594 3103 2138 3103 
Q 1681 3103 1420 2742 
Q 1159 2381 1159 1747 
Q 1159 1113 1420 752 
Q 1681 391 2138 391 
Q 2594 391 2855 752 
Q 3116 1113 3116 1747 
z
M 1159 2969 
Q 1341 3281 1617 3432 
Q 1894 3584 2278 3584 
Q 2916 3584 3314 3078 
Q 3713 2572 3713 1747 
Q 3713 922 3314 415 
Q 2916 -91 2278 -91 
Q 1894 -91 1617 61 
Q 1341 213 1159 525 
L 1159 0 
L 581 0 
L 581 4863 
L 1159 4863 
L 1159 2969 
z
" transform="scale(0.015625)"/>
     </defs>
     <use xlink:href="#DejaVuSans-50"/>
     <use xlink:href="#DejaVuSans-4d" transform="translate(60.302734 0)"/>
     <use xlink:href="#DejaVuSans-4c" transform="translate(146.582031 0)"/>
     <use xlink:href="#DejaVuSans-5f" transform="translate(202.294922 0)"/>
     <use xlink:href="#DejaVuSans-41" transform="translate(252.294922 0)"/>
     <use xlink:href="#DejaVuSans-44" transform="translate(320.703125 0)"/>
     <use xlink:href="#DejaVuSans-44" transform="translate(397.705078 0)"/>
     <use xlink:href="#DejaVuSans-28" transform="translate(474.707031 0)"/>
     <use xlink:href="#DejaVuSans-61" transform="translate(513.720703 0)"/>
     <use xlink:href="#DejaVuSans-70" transform="translate(575 0)"/>
     <use xlink:href="#DejaVuSans-70" transform="translate(638.476562 0)"/>
     <use xlink:href="#DejaVuSans-72" transform="translate(701.953125 0)"/>
     <use xlink:href="#DejaVuSans-6f" transform="translate(740.816406 0)"/>
     <use xlink:href="#DejaVuSans-78" transform="translate(798.873047 0)"/>
     <use xlink:href="#DejaVuSans-29" transform="translate(858.052734 0)"/>
     <use xlink:href="#DejaVuSans-20" transform="translate(897.066406 0)"/>
     <use xlink:href="#DejaVuSans-73" transform="translate(928.853516 0)"/>
     <use xlink:href="#DejaVuSans-68" transform="translate(980.953125 0)"/>
     <use xlink:href="#DejaVuSans-6f" transform="translate(1044.332031 0)"/>
     <use xlink:href="#DejaVuSans-77" transform="translate(1105.513672 0)"/>
     <use xlink:href="#DejaVuSans-73" transform="translate(1187.300781 0)"/>
     <use xlink:href="#DejaVuSans-20" transform="translate(1239.400391 0)"/>
     <use xlink:href="#DejaVuSans-74" transform="translate(1271.1875 0)"/>
     <use xlink:href="#DejaVuSans-68" transform="translate(1310.396484 0)"/>
     <use xlink:href="#DejaVuSans-65" transform="translate(1373.775391 0)"/>
     <use xlink:href="#DejaVuSans-20" transform="translate(1435.298828 0)"/>
     <use xlink:href="#DejaVuSans-61" transform="translate(1467.085938 0)"/>
     <use xlink:href="#DejaVuSans-64" transform="translate(1528.365234 0)"/>
     <use xlink:href="#DejaVuSans-76" transform="translate(1591.841797 0)"/>
     <use xlink:href="#DejaVuSans-61" transform="translate(1651.021484 0)"/>
     <use xlink:href="#DejaVuSans-6e" transform="translate(1712.300781 0)"/>
     <use xlink:href="#DejaVuSans-74" transform="translate(1775.679688 0)"/>
     <use xlink:href="#DejaVuSans-61" transform="translate(1814.888672 0)"/>
     <use xlink:href="#DejaVuSans-67" transform="translate(1876.167969 0)"/>
     <use xlink:href="#DejaVuSans-65" transform="translate(1939.644531 0)"/>
     <use xlink:href="#DejaVuSans-20" transform="translate(2001.167969 0)"/>
     <use xlink:href="#DejaVuSans-6f" transform="translate(2032.955078 0)"/>
     <use xlink:href="#DejaVuSans-66" transform="translate(2094.136719 0)"/>
     <use xlink:href="#DejaVuSans-20" transform="translate(2129.341797 0)"/>
     <use xlink:href="#DejaVuSans-61" transform="translate(2161.128906 0)"/>
     <use xlink:href="#DejaVuSans-70" transform="translate(2222.408203 0)"/>
     <use xlink:href="#DejaVuSans-70" transform="translate(2285.884766 0)"/>
     <use xlink:href="#DejaVuSans-72" transform="translate(2349.361328 0)"/>
     <use xlink:href="#DejaVuSans-6f" transform="translate(2388.224609 0)"/>
     <use xlink:href="#DejaVuSans-78" transform="translate(2446.28125 0)"/>
     <use xlink:href="#DejaVuSans-69" transform="translate(2505.460938 0)"/>
     <use xlink:href="#DejaVuSans-6d" transform="translate(2533.244141 0)"/>
     <use xlink:href="#DejaVuSans-61" transform="translate(2630.65625 0)"/>
     <use xlink:href="#DejaVuSans-74" transform="translate(2691.935547 0)"/>
     <use xlink:href="#DejaVuSans-69" transform="translate(2731.144531 0)"/>
     <use xlink:href="#DejaVuSans-6f" transform="translate(2758.927734 0)"/>
     <use xlink:href="#DejaVuSans-6e" transform="translate(2820.109375 0)"/>
     <use xlink:href="#DejaVuSans-20" transform="translate(2883.488281 0)"/>
     <use xlink:href="#DejaVuSans-74" transform="translate(2915.275391 0)"/>
     <use xlink:href="#DejaVuSans-65" transform="translate(2954.484375 0)"/>
     <use xlink:href="#DejaVuSans-63" transform="translate(3016.007812 0)"/>
     <use xlink:href="#DejaVuSans-68" transform="translate(3070.988281 0)"/>
     <use xlink:href="#DejaVuSans-6e" transform="translate(3134.367188 0)"/>
     <use xlink:href="#DejaVuSans-69" transform="translate(3197.746094 0)"/>
     <use xlink:href="#DejaVuSans-71" transform="translate(3225.529297 0)"/>
     <use xlink:href="#DejaVuSans-75" transform="translate(3289.005859 0)"/>
     <use xlink:href="#DejaVuSans-65" transform="translate(3352.384766 0)"/>
     <use xlink:href="#DejaVuSans-73" transform="translate(3413.908203 0)"/>
     <use xlink:href="#DejaVuSans-20" transform="translate(3466.007812 0)"/>
     <use xlink:href="#DejaVuSans-69" transform="translate(3497.794922 0)"/>
     <use xlink:href="#DejaVuSans-6e" transform="translate(3525.578125 0)"/>
     <use xlink:href="#DejaVuSans-20" transform="translate(3588.957031 0)"/>
     <use xlink:href="#DejaVuSans-6c" transform="translate(3620.744141 0)"/>
     <use xlink:href="#DejaVuSans-61" transform="translate(3648.527344 0)"/>
     <use xlink:href="#DejaVuSans-72" transform="translate(3709.806641 0)"/>
     <use xlink:href="#DejaVuSans-67" transform="translate(3749.169922 0)"/>
     <use xlink:href="#DejaVuSans-65" transform="translate(3812.646484 0)"/>
     <use xlink:href="#DejaVuSans-2d" transform="translate(3874.169922 0)"/>
     <use xlink:href="#DejaVuSans-6e" transform="translate(3910.253906 0)"/>
     <use xlink:href="#DejaVuSans-75" transform="translate(3973.632812 0)"/>
     <use xlink:href="#DejaVuSans-6d" transform="translate(4037.011719 0)"/>
     <use xlink:href="#DejaVuSans-62" transform="translate(4134.423828 0)"/>
     <use xlink:href="#DejaVuSans-65" transform="translate(4197.900391 0)"/>
     <use xlink:href="#DejaVuSans-72" transform="translate(4259.423828 0)"/>
     <use xlink:href="#DejaVuSans-20" transform="translate(4300.537109 0)"/>
     <use xlink:href="#DejaVuSans-61" transform="translate(4332.324219 0)"/>
     <use xlink:href="#DejaVuSans-64" transform="translate(4393.603516 0)"/>
     <use xlink:href="#DejaVuSans-64" transform="translate(4457.080078 0)"/>
     <use xlink:href="#DejaVuSans-69" transform="translate(4520.556641 0)"/>
     <use xlink:href="#DejaVuSans-74" transform="translate(4548.339844 0)"/>
     <use xlink:href="#DejaVuSans-69" transform="translate(4587.548828 0)"/>
     <use xlink:href="#DejaVuSans-6f" transform="translate(4615.332031 0)"/>
     <use xlink:href="#DejaVuSans-6e" transform="translate(4676.513672 0)"/>
     <use xlink:href="#DejaVuSans-2e" transform="translate(4739.892578 0)"/>
    </g>
   </g>
   <g id="text_54">
    <!-- Speedup Comparison for Addition Implementations -->
    <g style="fill: #262626" transform="translate(278.03 19.3575) scale(0.16 -0.16)">
     <defs>
      <path id="DejaVuSans-Bold-43" d="M 4288 256 
Q 3956 84 3597 -3 
Q 3238 -91 2847 -91 
Q 1681 -91 1000 561 
Q 319 1213 319 2328 
Q 319 3447 1000 4098 
Q 1681 4750 2847 4750 
Q 3238 4750 3597 4662 
Q 3956 4575 4288 4403 
L 4288 3438 
Q 3953 3666 3628 3772 
Q 3303 3878 2944 3878 
Q 2300 3878 1931 3465 
Q 1563 3053 1563 2328 
Q 1563 1606 1931 1193 
Q 2300 781 2944 781 
Q 3303 781 3628 887 
Q 3953 994 4288 1222 
L 4288 256 
z
" transform="scale(0.015625)"/>
      <path id="DejaVuSans-Bold-6d" d="M 3781 2919 
Q 3994 3244 4286 3414 
Q 4578 3584 4928 3584 
Q 5531 3584 5847 3212 
Q 6163 2841 6163 2131 
L 6163 0 
L 5038 0 
L 5038 1825 
Q 5041 1866 5042 1909 
Q 5044 1953 5044 2034 
Q 5044 2406 4934 2573 
Q 4825 2741 4581 2741 
Q 4263 2741 4089 2478 
Q 3916 2216 3909 1719 
L 3909 0 
L 2784 0 
L 2784 1825 
Q 2784 2406 2684 2573 
Q 2584 2741 2328 2741 
Q 2006 2741 1831 2477 
Q 1656 2213 1656 1722 
L 1656 0 
L 531 0 
L 531 3500 
L 1656 3500 
L 1656 2988 
Q 1863 3284 2130 3434 
Q 2397 3584 2719 3584 
Q 3081 3584 3359 3409 
Q 3638 3234 3781 2919 
z
" transform="scale(0.015625)"/>
      <path id="DejaVuSans-Bold-73" d="M 3272 3391 
L 3272 2541 
Q 2913 2691 2578 2766 
Q 2244 2841 1947 2841 
Q 1628 2841 1473 2761 
Q 1319 2681 1319 2516 
Q 1319 2381 1436 2309 
Q 1553 2238 1856 2203 
L 2053 2175 
Q 2913 2066 3209 1816 
Q 3506 1566 3506 1031 
Q 3506 472 3093 190 
Q 2681 -91 1863 -91 
Q 1516 -91 1145 -36 
Q 775 19 384 128 
L 384 978 
Q 719 816 1070 734 
Q 1422 653 1784 653 
Q 2113 653 2278 743 
Q 2444 834 2444 1013 
Q 2444 1163 2330 1236 
Q 2216 1309 1875 1350 
L 1678 1375 
Q 931 1469 631 1722 
Q 331 1975 331 2491 
Q 331 3047 712 3315 
Q 1094 3584 1881 3584 
Q 2191 3584 2531 3537 
Q 2872 3491 3272 3391 
z
" transform="scale(0.015625)"/>
      <path id="DejaVuSans-Bold-6e" d="M 4056 2131 
L 4056 0 
L 2931 0 
L 2931 347 
L 2931 1631 
Q 2931 2084 2911 2256 
Q 2891 2428 2841 2509 
Q 2775 2619 2662 2680 
Q 2550 2741 2406 2741 
Q 2056 2741 1856 2470 
Q 1656 2200 1656 1722 
L 1656 0 
L 538 0 
L 538 3500 
L 1656 3500 
L 1656 2988 
Q 1909 3294 2193 3439 
Q 2478 3584 2822 3584 
Q 3428 3584 3742 3212 
Q 4056 2841 4056 2131 
z
" transform="scale(0.015625)"/>
      <path id="DejaVuSans-Bold-66" d="M 2841 4863 
L 2841 4128 
L 2222 4128 
Q 1984 4128 1890 4042 
Q 1797 3956 1797 3744 
L 1797 3500 
L 2753 3500 
L 2753 2700 
L 1797 2700 
L 1797 0 
L 678 0 
L 678 2700 
L 122 2700 
L 122 3500 
L 678 3500 
L 678 3744 
Q 678 4316 997 4589 
Q 1316 4863 1984 4863 
L 2841 4863 
z
" transform="scale(0.015625)"/>
      <path id="DejaVuSans-Bold-41" d="M 3419 850 
L 1538 850 
L 1241 0 
L 31 0 
L 1759 4666 
L 3194 4666 
L 4922 0 
L 3713 0 
L 3419 850 
z
M 1838 1716 
L 3116 1716 
L 2478 3572 
L 1838 1716 
z
" transform="scale(0.015625)"/>
      <path id="DejaVuSans-Bold-49" d="M 588 4666 
L 1791 4666 
L 1791 0 
L 588 0 
L 588 4666 
z
" transform="scale(0.015625)"/>
      <path id="DejaVuSans-Bold-6c" d="M 538 4863 
L 1656 4863 
L 1656 0 
L 538 0 
L 538 4863 
z
" transform="scale(0.015625)"/>
     </defs>
     <use xlink:href="#DejaVuSans-Bold-53"/>
     <use xlink:href="#DejaVuSans-Bold-70" transform="translate(72.021484 0)"/>
     <use xlink:href="#DejaVuSans-Bold-65" transform="translate(143.603516 0)"/>
     <use xlink:href="#DejaVuSans-Bold-65" transform="translate(211.425781 0)"/>
     <use xlink:href="#DejaVuSans-Bold-64" transform="translate(279.248047 0)"/>
     <use xlink:href="#DejaVuSans-Bold-75" transform="translate(350.830078 0)"/>
     <use xlink:href="#DejaVuSans-Bold-70" transform="translate(422.021484 0)"/>
     <use xlink:href="#DejaVuSans-Bold-20" transform="translate(493.603516 0)"/>
     <use xlink:href="#DejaVuSans-Bold-43" transform="translate(528.417969 0)"/>
     <use xlink:href="#DejaVuSans-Bold-6f" transform="translate(601.806641 0)"/>
     <use xlink:href="#DejaVuSans-Bold-6d" transform="translate(670.507812 0)"/>
     <use xlink:href="#DejaVuSans-Bold-70" transform="translate(774.707031 0)"/>
     <use xlink:href="#DejaVuSans-Bold-61" transform="translate(846.289062 0)"/>
     <use xlink:href="#DejaVuSans-Bold-72" transform="translate(913.769531 0)"/>
     <use xlink:href="#DejaVuSans-Bold-69" transform="translate(963.085938 0)"/>
     <use xlink:href="#DejaVuSans-Bold-73" transform="translate(997.363281 0)"/>
     <use xlink:href="#DejaVuSans-Bold-6f" transform="translate(1056.884766 0)"/>
     <use xlink:href="#DejaVuSans-Bold-6e" transform="translate(1125.585938 0)"/>
     <use xlink:href="#DejaVuSans-Bold-20" transform="translate(1196.777344 0)"/>
     <use xlink:href="#DejaVuSans-Bold-66" transform="translate(1231.591797 0)"/>
     <use xlink:href="#DejaVuSans-Bold-6f" transform="translate(1275.097656 0)"/>
     <use xlink:href="#DejaVuSans-Bold-72" transform="translate(1343.798828 0)"/>
     <use xlink:href="#DejaVuSans-Bold-20" transform="translate(1393.115234 0)"/>
     <use xlink:href="#DejaVuSans-Bold-41" transform="translate(1427.929688 0)"/>
     <use xlink:href="#DejaVuSans-Bold-64" transform="translate(1505.322266 0)"/>
     <use xlink:href="#DejaVuSans-Bold-64" transform="translate(1576.904297 0)"/>
     <use xlink:href="#DejaVuSans-Bold-69" transform="translate(1648.486328 0)"/>
     <use xlink:href="#DejaVuSans-Bold-74" transform="translate(1682.763672 0)"/>
     <use xlink:href="#DejaVuSans-Bold-69" transform="translate(1730.566406 0)"/>
     <use xlink:href="#DejaVuSans-Bold-6f" transform="translate(1764.84375 0)"/>
     <use xlink:href="#DejaVuSans-Bold-6e" transform="translate(1833.544922 0)"/>
     <use xlink:href="#DejaVuSans-Bold-20" transform="translate(1904.736328 0)"/>
     <use xlink:href="#DejaVuSans-Bold-49" transform="translate(1939.550781 0)"/>
     <use xlink:href="#DejaVuSans-Bold-6d" transform="translate(1976.757812 0)"/>
     <use xlink:href="#DejaVuSans-Bold-70" transform="translate(2080.957031 0)"/>
     <use xlink:href="#DejaVuSans-Bold-6c" transform="translate(2152.539062 0)"/>
     <use xlink:href="#DejaVuSans-Bold-65" transform="translate(2186.816406 0)"/>
     <use xlink:href="#DejaVuSans-Bold-6d" transform="translate(2254.638672 0)"/>
     <use xlink:href="#DejaVuSans-Bold-65" transform="translate(2358.837891 0)"/>
     <use xlink:href="#DejaVuSans-Bold-6e" transform="translate(2426.660156 0)"/>
     <use xlink:href="#DejaVuSans-Bold-74" transform="translate(2497.851562 0)"/>
     <use xlink:href="#DejaVuSans-Bold-61" transform="translate(2545.654297 0)"/>
     <use xlink:href="#DejaVuSans-Bold-74" transform="translate(2613.134766 0)"/>
     <use xlink:href="#DejaVuSans-Bold-69" transform="translate(2660.9375 0)"/>
     <use xlink:href="#DejaVuSans-Bold-6f" transform="translate(2695.214844 0)"/>
     <use xlink:href="#DejaVuSans-Bold-6e" transform="translate(2763.916016 0)"/>
     <use xlink:href="#DejaVuSans-Bold-73" transform="translate(2835.107422 0)"/>
    </g>
    <!-- Intel Xeon E-2314 @ 2.80GHz -->
    <g style="fill: #262626" transform="translate(378.51375 37.274) scale(0.16 -0.16)">
     <defs>
      <path id="DejaVuSans-Bold-58" d="M 3188 2381 
L 4806 0 
L 3553 0 
L 2463 1594 
L 1381 0 
L 122 0 
L 1741 2381 
L 184 4666 
L 1441 4666 
L 2463 3163 
L 3481 4666 
L 4744 4666 
L 3188 2381 
z
" transform="scale(0.015625)"/>
      <path id="DejaVuSans-Bold-45" d="M 588 4666 
L 3834 4666 
L 3834 3756 
L 1791 3756 
L 1791 2888 
L 3713 2888 
L 3713 1978 
L 1791 1978 
L 1791 909 
L 3903 909 
L 3903 0 
L 588 0 
L 588 4666 
z
" transform="scale(0.015625)"/>
      <path id="DejaVuSans-Bold-2d" d="M 347 2297 
L 2309 2297 
L 2309 1388 
L 347 1388 
L 347 2297 
z
" transform="scale(0.015625)"/>
      <path id="DejaVuSans-Bold-40" d="M 2597 1684 
Q 2597 1300 2761 1078 
Q 2925 856 3206 856 
Q 3484 856 3650 1079 
Q 3816 1303 3816 1684 
Q 3816 2063 3648 2283 
Q 3481 2503 3200 2503 
Q 2925 2503 2761 2283 
Q 2597 2063 2597 1684 
z
M 3878 744 
Q 3784 522 3576 398 
Q 3369 275 3091 275 
Q 2553 275 2217 664 
Q 1881 1053 1881 1678 
Q 1881 2303 2218 2693 
Q 2556 3084 3091 3084 
Q 3369 3084 3576 2959 
Q 3784 2834 3878 2613 
L 3878 3022 
L 4531 3022 
L 4531 856 
Q 4919 916 5141 1230 
Q 5363 1544 5363 2034 
Q 5363 2347 5272 2620 
Q 5181 2894 4997 3122 
Q 4700 3503 4254 3709 
Q 3809 3916 3291 3916 
Q 2928 3916 2597 3820 
Q 2266 3725 1984 3541 
Q 1522 3234 1264 2748 
Q 1006 2263 1006 1697 
Q 1006 1231 1173 823 
Q 1341 416 1656 103 
Q 1969 -203 2373 -364 
Q 2778 -525 3238 -525 
Q 3631 -525 4025 -378 
Q 4419 -231 4697 19 
L 5031 -488 
Q 4641 -791 4180 -952 
Q 3719 -1113 3244 -1113 
Q 2666 -1113 2153 -908 
Q 1641 -703 1241 -313 
Q 841 78 631 592 
Q 422 1106 422 1697 
Q 422 2266 634 2781 
Q 847 3297 1241 3688 
Q 1634 4075 2157 4287 
Q 2681 4500 3244 4500 
Q 3944 4500 4516 4233 
Q 5088 3966 5472 3463 
Q 5706 3156 5826 2798 
Q 5947 2441 5947 2047 
Q 5947 1200 5437 731 
Q 4928 263 4000 263 
L 3878 263 
L 3878 744 
z
" transform="scale(0.015625)"/>
      <path id="DejaVuSans-Bold-47" d="M 4781 347 
Q 4331 128 3847 18 
Q 3363 -91 2847 -91 
Q 1681 -91 1000 561 
Q 319 1213 319 2328 
Q 319 3456 1012 4103 
Q 1706 4750 2913 4750 
Q 3378 4750 3804 4662 
Q 4231 4575 4609 4403 
L 4609 3438 
Q 4219 3659 3833 3768 
Q 3447 3878 3059 3878 
Q 2341 3878 1952 3476 
Q 1563 3075 1563 2328 
Q 1563 1588 1938 1184 
Q 2313 781 3003 781 
Q 3191 781 3352 804 
Q 3513 828 3641 878 
L 3641 1784 
L 2906 1784 
L 2906 2591 
L 4781 2591 
L 4781 347 
z
" transform="scale(0.015625)"/>
      <path id="DejaVuSans-Bold-48" d="M 588 4666 
L 1791 4666 
L 1791 2888 
L 3566 2888 
L 3566 4666 
L 4769 4666 
L 4769 0 
L 3566 0 
L 3566 1978 
L 1791 1978 
L 1791 0 
L 588 0 
L 588 4666 
z
" transform="scale(0.015625)"/>
     </defs>
     <use xlink:href="#DejaVuSans-Bold-49"/>
     <use xlink:href="#DejaVuSans-Bold-6e" transform="translate(37.207031 0)"/>
     <use xlink:href="#DejaVuSans-Bold-74" transform="translate(108.398438 0)"/>
     <use xlink:href="#DejaVuSans-Bold-65" transform="translate(156.201172 0)"/>
     <use xlink:href="#DejaVuSans-Bold-6c" transform="translate(224.023438 0)"/>
     <use xlink:href="#DejaVuSans-Bold-20" transform="translate(258.300781 0)"/>
     <use xlink:href="#DejaVuSans-Bold-58" transform="translate(293.115234 0)"/>
     <use xlink:href="#DejaVuSans-Bold-65" transform="translate(367.589844 0)"/>
     <use xlink:href="#DejaVuSans-Bold-6f" transform="translate(435.412109 0)"/>
     <use xlink:href="#DejaVuSans-Bold-6e" transform="translate(504.113281 0)"/>
     <use xlink:href="#DejaVuSans-Bold-20" transform="translate(575.304688 0)"/>
     <use xlink:href="#DejaVuSans-Bold-45" transform="translate(610.119141 0)"/>
     <use xlink:href="#DejaVuSans-Bold-2d" transform="translate(678.429688 0)"/>
     <use xlink:href="#DejaVuSans-Bold-32" transform="translate(719.933594 0)"/>
     <use xlink:href="#DejaVuSans-Bold-33" transform="translate(789.513672 0)"/>
     <use xlink:href="#DejaVuSans-Bold-31" transform="translate(859.09375 0)"/>
     <use xlink:href="#DejaVuSans-Bold-34" transform="translate(928.673828 0)"/>
     <use xlink:href="#DejaVuSans-Bold-20" transform="translate(998.253906 0)"/>
     <use xlink:href="#DejaVuSans-Bold-40" transform="translate(1033.068359 0)"/>
     <use xlink:href="#DejaVuSans-Bold-20" transform="translate(1133.068359 0)"/>
     <use xlink:href="#DejaVuSans-Bold-32" transform="translate(1167.882812 0)"/>
     <use xlink:href="#DejaVuSans-Bold-2e" transform="translate(1237.462891 0)"/>
     <use xlink:href="#DejaVuSans-Bold-38" transform="translate(1275.451172 0)"/>
     <use xlink:href="#DejaVuSans-Bold-30" transform="translate(1345.03125 0)"/>
     <use xlink:href="#DejaVuSans-Bold-47" transform="translate(1414.611328 0)"/>
     <use xlink:href="#DejaVuSans-Bold-48" transform="translate(1496.691406 0)"/>
     <use xlink:href="#DejaVuSans-Bold-7a" transform="translate(1580.382812 0)"/>
    </g>
   </g>
   <g id="legend_1">
    <g id="patch_38">
     <path d="M 805.41125 119.71525 
L 966.6425 119.71525 
Q 969.0425 119.71525 969.0425 117.31525 
L 969.0425 65.674 
Q 969.0425 63.274 966.6425 63.274 
L 805.41125 63.274 
Q 803.01125 63.274 803.01125 65.674 
L 803.01125 117.31525 
Q 803.01125 119.71525 805.41125 119.71525 
z
" style="fill: #ffffff; opacity: 0.9; stroke: #cccccc; stroke-linejoin: miter"/>
    </g>
    <g id="patch_39">
     <path d="M 807.81125 77.192125 
L 831.81125 77.192125 
L 831.81125 68.792125 
L 807.81125 68.792125 
z
" style="fill: #009e73; opacity: 0.9"/>
    </g>
    <g id="text_55">
     <!-- PML vs GMP -->
     <g style="fill: #262626" transform="translate(841.41125 77.192125) scale(0.12 -0.12)">
      <defs>
       <path id="DejaVuSans-47" d="M 3809 666 
L 3809 1919 
L 2778 1919 
L 2778 2438 
L 4434 2438 
L 4434 434 
Q 4069 175 3628 42 
Q 3188 -91 2688 -91 
Q 1594 -91 976 548 
Q 359 1188 359 2328 
Q 359 3472 976 4111 
Q 1594 4750 2688 4750 
Q 3144 4750 3555 4637 
Q 3966 4525 4313 4306 
L 4313 3634 
Q 3963 3931 3569 4081 
Q 3175 4231 2741 4231 
Q 1884 4231 1454 3753 
Q 1025 3275 1025 2328 
Q 1025 1384 1454 906 
Q 1884 428 2741 428 
Q 3075 428 3337 486 
Q 3600 544 3809 666 
z
" transform="scale(0.015625)"/>
      </defs>
      <use xlink:href="#DejaVuSans-50"/>
      <use xlink:href="#DejaVuSans-4d" transform="translate(60.302734 0)"/>
      <use xlink:href="#DejaVuSans-4c" transform="translate(146.582031 0)"/>
      <use xlink:href="#DejaVuSans-20" transform="translate(202.294922 0)"/>
      <use xlink:href="#DejaVuSans-76" transform="translate(234.082031 0)"/>
      <use xlink:href="#DejaVuSans-73" transform="translate(293.261719 0)"/>
      <use xlink:href="#DejaVuSans-20" transform="translate(345.361328 0)"/>
      <use xlink:href="#DejaVuSans-47" transform="translate(377.148438 0)"/>
      <use xlink:href="#DejaVuSans-4d" transform="translate(454.638672 0)"/>
      <use xlink:href="#DejaVuSans-50" transform="translate(540.917969 0)"/>
     </g>
    </g>
    <g id="patch_40">
     <path d="M 807.81125 94.805875 
L 831.81125 94.805875 
L 831.81125 86.405875 
L 807.81125 86.405875 
z
" style="fill: #cc79a7; opacity: 0.9"/>
    </g>
    <g id="text_56">
     <!-- PML(approx) vs GMP -->
     <g style="fill: #262626" transform="translate(841.41125 94.805875) scale(0.12 -0.12)">
      <use xlink:href="#DejaVuSans-50"/>
      <use xlink:href="#DejaVuSans-4d" transform="translate(60.302734 0)"/>
      <use xlink:href="#DejaVuSans-4c" transform="translate(146.582031 0)"/>
      <use xlink:href="#DejaVuSans-28" transform="translate(202.294922 0)"/>
      <use xlink:href="#DejaVuSans-61" transform="translate(241.308594 0)"/>
      <use xlink:href="#DejaVuSans-70" transform="translate(302.587891 0)"/>
      <use xlink:href="#DejaVuSans-70" transform="translate(366.064453 0)"/>
      <use xlink:href="#DejaVuSans-72" transform="translate(429.541016 0)"/>
      <use xlink:href="#DejaVuSans-6f" transform="translate(468.404297 0)"/>
      <use xlink:href="#DejaVuSans-78" transform="translate(526.460938 0)"/>
      <use xlink:href="#DejaVuSans-29" transform="translate(585.640625 0)"/>
      <use xlink:href="#DejaVuSans-20" transform="translate(624.654297 0)"/>
      <use xlink:href="#DejaVuSans-76" transform="translate(656.441406 0)"/>
      <use xlink:href="#DejaVuSans-73" transform="translate(715.621094 0)"/>
      <use xlink:href="#DejaVuSans-20" transform="translate(767.720703 0)"/>
      <use xlink:href="#DejaVuSans-47" transform="translate(799.507812 0)"/>
      <use xlink:href="#DejaVuSans-4d" transform="translate(876.998047 0)"/>
      <use xlink:href="#DejaVuSans-50" transform="translate(963.277344 0)"/>
     </g>
    </g>
    <g id="patch_41">
     <path d="M 807.81125 112.419625 
L 831.81125 112.419625 
L 831.81125 104.019625 
L 807.81125 104.019625 
z
" style="fill: #cc79a7; opacity: 0.9"/>
    </g>
    <g id="text_57">
     <!-- PML(approx) vs PML -->
     <g style="fill: #262626" transform="translate(841.41125 112.419625) scale(0.12 -0.12)">
      <use xlink:href="#DejaVuSans-50"/>
      <use xlink:href="#DejaVuSans-4d" transform="translate(60.302734 0)"/>
      <use xlink:href="#DejaVuSans-4c" transform="translate(146.582031 0)"/>
      <use xlink:href="#DejaVuSans-28" transform="translate(202.294922 0)"/>
      <use xlink:href="#DejaVuSans-61" transform="translate(241.308594 0)"/>
      <use xlink:href="#DejaVuSans-70" transform="translate(302.587891 0)"/>
      <use xlink:href="#DejaVuSans-70" transform="translate(366.064453 0)"/>
      <use xlink:href="#DejaVuSans-72" transform="translate(429.541016 0)"/>
      <use xlink:href="#DejaVuSans-6f" transform="translate(468.404297 0)"/>
      <use xlink:href="#DejaVuSans-78" transform="translate(526.460938 0)"/>
      <use xlink:href="#DejaVuSans-29" transform="translate(585.640625 0)"/>
      <use xlink:href="#DejaVuSans-20" transform="translate(624.654297 0)"/>
      <use xlink:href="#DejaVuSans-76" transform="translate(656.441406 0)"/>
      <use xlink:href="#DejaVuSans-73" transform="translate(715.621094 0)"/>
      <use xlink:href="#DejaVuSans-20" transform="translate(767.720703 0)"/>
      <use xlink:href="#DejaVuSans-50" transform="translate(799.507812 0)"/>
      <use xlink:href="#DejaVuSans-4d" transform="translate(859.810547 0)"/>
      <use xlink:href="#DejaVuSans-4c" transform="translate(946.089844 0)"/>
     </g>
    </g>
   </g>
  </g>
 </g>
 <defs>
  <clipPath id="pbb03182f64">
   <rect x="44.1525" y="57.274" width="930.89" height="492.389654"/>
  </clipPath>
 </defs>
</svg>
