<?xml version="1.0" encoding="utf-8" standalone="no"?>
<!DOCTYPE svg PUBLIC "-//W3C//DTD SVG 1.1//EN"
  "http://www.w3.org/Graphics/SVG/1.1/DTD/svg11.dtd">
<svg xmlns:xlink="http://www.w3.org/1999/xlink" width="982.46875pt" height="550.005639pt" viewBox="0 0 982.46875 550.005639" xmlns="http://www.w3.org/2000/svg" version="1.1">
 <metadata>
  <rdf:RDF xmlns:dc="http://purl.org/dc/elements/1.1/" xmlns:cc="http://creativecommons.org/ns#" xmlns:rdf="http://www.w3.org/1999/02/22-rdf-syntax-ns#">
   <cc:Work>
    <dc:type rdf:resource="http://purl.org/dc/dcmitype/StillImage"/>
    <dc:date>2025-04-05T01:45:13.081020</dc:date>
    <dc:format>image/svg+xml</dc:format>
    <dc:creator>
     <cc:Agent>
      <dc:title>Matplotlib v3.10.0, https://matplotlib.org/</dc:title>
     </cc:Agent>
    </dc:creator>
   </cc:Work>
  </rdf:RDF>
 </metadata>
 <defs>
  <style type="text/css">*{stroke-linejoin: round; stroke-linecap: butt}</style>
 </defs>
 <g id="figure_1">
  <g id="patch_1">
   <path d="M 0 550.005639 
L 982.46875 550.005639 
L 982.46875 0 
L 0 0 
z
" style="fill: #ffffff"/>
  </g>
  <g id="axes_1">
   <g id="patch_2">
    <path d="M 39.03875 487.328923 
L 975.26875 487.328923 
L 975.26875 53.624125 
L 39.03875 53.624125 
z
" style="fill: #ffffff"/>
   </g>
   <g id="matplotlib.axis_1">
    <g id="xtick_1">
     <g id="line2d_1">
      <path d="M 120.281849 487.328923 
L 120.281849 53.624125 
" clip-path="url(#p0f94e6ca57)" style="fill: none; stroke-dasharray: 2.96,1.28; stroke-dashoffset: 0; stroke: #cccccc; stroke-opacity: 0.3; stroke-width: 0.8"/>
     </g>
     <g id="line2d_2"/>
     <g id="text_1">
      <!-- 256 -->
      <g style="fill: #262626" transform="translate(114.853147 510.961579) rotate(-45) scale(0.1 -0.1)">
       <defs>
        <path id="DejaVuSans-Bold-32" d="M 1844 884 
L 3897 884 
L 3897 0 
L 506 0 
L 506 884 
L 2209 2388 
Q 2438 2594 2547 2791 
Q 2656 2988 2656 3200 
Q 2656 3528 2436 3728 
Q 2216 3928 1850 3928 
Q 1569 3928 1234 3808 
Q 900 3688 519 3450 
L 519 4475 
Q 925 4609 1322 4679 
Q 1719 4750 2100 4750 
Q 2938 4750 3402 4381 
Q 3866 4013 3866 3353 
Q 3866 2972 3669 2642 
Q 3472 2313 2841 1759 
L 1844 884 
z
" transform="scale(0.015625)"/>
        <path id="DejaVuSans-Bold-35" d="M 678 4666 
L 3669 4666 
L 3669 3781 
L 1638 3781 
L 1638 3059 
Q 1775 3097 1914 3117 
Q 2053 3138 2203 3138 
Q 3056 3138 3531 2711 
Q 4006 2284 4006 1522 
Q 4006 766 3489 337 
Q 2972 -91 2053 -91 
Q 1656 -91 1267 -14 
Q 878 63 494 219 
L 494 1166 
Q 875 947 1217 837 
Q 1559 728 1863 728 
Q 2300 728 2551 942 
Q 2803 1156 2803 1522 
Q 2803 1891 2551 2103 
Q 2300 2316 1863 2316 
Q 1603 2316 1309 2248 
Q 1016 2181 678 2041 
L 678 4666 
z
" transform="scale(0.015625)"/>
        <path id="DejaVuSans-Bold-36" d="M 2316 2303 
Q 2000 2303 1842 2098 
Q 1684 1894 1684 1484 
Q 1684 1075 1842 870 
Q 2000 666 2316 666 
Q 2634 666 2792 870 
Q 2950 1075 2950 1484 
Q 2950 1894 2792 2098 
Q 2634 2303 2316 2303 
z
M 3803 4544 
L 3803 3681 
Q 3506 3822 3243 3889 
Q 2981 3956 2731 3956 
Q 2194 3956 1894 3657 
Q 1594 3359 1544 2772 
Q 1750 2925 1990 3001 
Q 2231 3078 2516 3078 
Q 3231 3078 3670 2659 
Q 4109 2241 4109 1563 
Q 4109 813 3618 361 
Q 3128 -91 2303 -91 
Q 1394 -91 895 523 
Q 397 1138 397 2266 
Q 397 3422 980 4083 
Q 1563 4744 2578 4744 
Q 2900 4744 3203 4694 
Q 3506 4644 3803 4544 
z
" transform="scale(0.015625)"/>
       </defs>
       <use xlink:href="#DejaVuSans-Bold-32"/>
       <use xlink:href="#DejaVuSans-Bold-35" transform="translate(69.580078 0)"/>
       <use xlink:href="#DejaVuSans-Bold-36" transform="translate(139.160156 0)"/>
      </g>
     </g>
    </g>
    <g id="xtick_2">
     <g id="line2d_3">
      <path d="M 206.253383 487.328923 
L 206.253383 53.624125 
" clip-path="url(#p0f94e6ca57)" style="fill: none; stroke-dasharray: 2.96,1.28; stroke-dashoffset: 0; stroke: #cccccc; stroke-opacity: 0.3; stroke-width: 0.8"/>
     </g>
     <g id="line2d_4"/>
     <g id="text_2">
      <!-- 512 -->
      <g style="fill: #262626" transform="translate(200.824681 510.961579) rotate(-45) scale(0.1 -0.1)">
       <defs>
        <path id="DejaVuSans-Bold-31" d="M 750 831 
L 1813 831 
L 1813 3847 
L 722 3622 
L 722 4441 
L 1806 4666 
L 2950 4666 
L 2950 831 
L 4013 831 
L 4013 0 
L 750 0 
L 750 831 
z
" transform="scale(0.015625)"/>
       </defs>
       <use xlink:href="#DejaVuSans-Bold-35"/>
       <use xlink:href="#DejaVuSans-Bold-31" transform="translate(69.580078 0)"/>
       <use xlink:href="#DejaVuSans-Bold-32" transform="translate(139.160156 0)"/>
      </g>
     </g>
    </g>
    <g id="xtick_3">
     <g id="line2d_5">
      <path d="M 292.224916 487.328923 
L 292.224916 53.624125 
" clip-path="url(#p0f94e6ca57)" style="fill: none; stroke-dasharray: 2.96,1.28; stroke-dashoffset: 0; stroke: #cccccc; stroke-opacity: 0.3; stroke-width: 0.8"/>
     </g>
     <g id="line2d_6"/>
     <g id="text_3">
      <!-- 1024 -->
      <g style="fill: #262626" transform="translate(284.336256 515.881495) rotate(-45) scale(0.1 -0.1)">
       <defs>
        <path id="DejaVuSans-Bold-30" d="M 2944 2338 
Q 2944 3213 2780 3570 
Q 2616 3928 2228 3928 
Q 1841 3928 1675 3570 
Q 1509 3213 1509 2338 
Q 1509 1453 1675 1090 
Q 1841 728 2228 728 
Q 2613 728 2778 1090 
Q 2944 1453 2944 2338 
z
M 4147 2328 
Q 4147 1169 3647 539 
Q 3147 -91 2228 -91 
Q 1306 -91 806 539 
Q 306 1169 306 2328 
Q 306 3491 806 4120 
Q 1306 4750 2228 4750 
Q 3147 4750 3647 4120 
Q 4147 3491 4147 2328 
z
" transform="scale(0.015625)"/>
        <path id="DejaVuSans-Bold-34" d="M 2356 3675 
L 1038 1722 
L 2356 1722 
L 2356 3675 
z
M 2156 4666 
L 3494 4666 
L 3494 1722 
L 4159 1722 
L 4159 850 
L 3494 850 
L 3494 0 
L 2356 0 
L 2356 850 
L 288 850 
L 288 1881 
L 2156 4666 
z
" transform="scale(0.015625)"/>
       </defs>
       <use xlink:href="#DejaVuSans-Bold-31"/>
       <use xlink:href="#DejaVuSans-Bold-30" transform="translate(69.580078 0)"/>
       <use xlink:href="#DejaVuSans-Bold-32" transform="translate(139.160156 0)"/>
       <use xlink:href="#DejaVuSans-Bold-34" transform="translate(208.740234 0)"/>
      </g>
     </g>
    </g>
    <g id="xtick_4">
     <g id="line2d_7">
      <path d="M 378.19645 487.328923 
L 378.19645 53.624125 
" clip-path="url(#p0f94e6ca57)" style="fill: none; stroke-dasharray: 2.96,1.28; stroke-dashoffset: 0; stroke: #cccccc; stroke-opacity: 0.3; stroke-width: 0.8"/>
     </g>
     <g id="line2d_8"/>
     <g id="text_4">
      <!-- 2048 -->
      <g style="fill: #262626" transform="translate(370.30779 515.881495) rotate(-45) scale(0.1 -0.1)">
       <defs>
        <path id="DejaVuSans-Bold-38" d="M 2228 2088 
Q 1891 2088 1709 1903 
Q 1528 1719 1528 1375 
Q 1528 1031 1709 848 
Q 1891 666 2228 666 
Q 2563 666 2741 848 
Q 2919 1031 2919 1375 
Q 2919 1722 2741 1905 
Q 2563 2088 2228 2088 
z
M 1350 2484 
Q 925 2613 709 2878 
Q 494 3144 494 3541 
Q 494 4131 934 4440 
Q 1375 4750 2228 4750 
Q 3075 4750 3515 4442 
Q 3956 4134 3956 3541 
Q 3956 3144 3739 2878 
Q 3522 2613 3097 2484 
Q 3572 2353 3814 2058 
Q 4056 1763 4056 1313 
Q 4056 619 3595 264 
Q 3134 -91 2228 -91 
Q 1319 -91 855 264 
Q 391 619 391 1313 
Q 391 1763 633 2058 
Q 875 2353 1350 2484 
z
M 1631 3419 
Q 1631 3141 1786 2991 
Q 1941 2841 2228 2841 
Q 2509 2841 2662 2991 
Q 2816 3141 2816 3419 
Q 2816 3697 2662 3845 
Q 2509 3994 2228 3994 
Q 1941 3994 1786 3844 
Q 1631 3694 1631 3419 
z
" transform="scale(0.015625)"/>
       </defs>
       <use xlink:href="#DejaVuSans-Bold-32"/>
       <use xlink:href="#DejaVuSans-Bold-30" transform="translate(69.580078 0)"/>
       <use xlink:href="#DejaVuSans-Bold-34" transform="translate(139.160156 0)"/>
       <use xlink:href="#DejaVuSans-Bold-38" transform="translate(208.740234 0)"/>
      </g>
     </g>
    </g>
    <g id="xtick_5">
     <g id="line2d_9">
      <path d="M 464.167983 487.328923 
L 464.167983 53.624125 
" clip-path="url(#p0f94e6ca57)" style="fill: none; stroke-dasharray: 2.96,1.28; stroke-dashoffset: 0; stroke: #cccccc; stroke-opacity: 0.3; stroke-width: 0.8"/>
     </g>
     <g id="line2d_10"/>
     <g id="text_5">
      <!-- 4096 -->
      <g style="fill: #262626" transform="translate(456.279323 515.881495) rotate(-45) scale(0.1 -0.1)">
       <defs>
        <path id="DejaVuSans-Bold-39" d="M 641 103 
L 641 966 
Q 928 831 1190 764 
Q 1453 697 1709 697 
Q 2247 697 2547 995 
Q 2847 1294 2900 1881 
Q 2688 1725 2447 1647 
Q 2206 1569 1925 1569 
Q 1209 1569 770 1986 
Q 331 2403 331 3084 
Q 331 3838 820 4291 
Q 1309 4744 2131 4744 
Q 3044 4744 3544 4128 
Q 4044 3513 4044 2388 
Q 4044 1231 3459 570 
Q 2875 -91 1856 -91 
Q 1528 -91 1228 -42 
Q 928 6 641 103 
z
M 2125 2350 
Q 2441 2350 2600 2554 
Q 2759 2759 2759 3169 
Q 2759 3575 2600 3781 
Q 2441 3988 2125 3988 
Q 1809 3988 1650 3781 
Q 1491 3575 1491 3169 
Q 1491 2759 1650 2554 
Q 1809 2350 2125 2350 
z
" transform="scale(0.015625)"/>
       </defs>
       <use xlink:href="#DejaVuSans-Bold-34"/>
       <use xlink:href="#DejaVuSans-Bold-30" transform="translate(69.580078 0)"/>
       <use xlink:href="#DejaVuSans-Bold-39" transform="translate(139.160156 0)"/>
       <use xlink:href="#DejaVuSans-Bold-36" transform="translate(208.740234 0)"/>
      </g>
     </g>
    </g>
    <g id="xtick_6">
     <g id="line2d_11">
      <path d="M 550.139517 487.328923 
L 550.139517 53.624125 
" clip-path="url(#p0f94e6ca57)" style="fill: none; stroke-dasharray: 2.96,1.28; stroke-dashoffset: 0; stroke: #cccccc; stroke-opacity: 0.3; stroke-width: 0.8"/>
     </g>
     <g id="line2d_12"/>
     <g id="text_6">
      <!-- 8192 -->
      <g style="fill: #262626" transform="translate(542.250857 515.881495) rotate(-45) scale(0.1 -0.1)">
       <use xlink:href="#DejaVuSans-Bold-38"/>
       <use xlink:href="#DejaVuSans-Bold-31" transform="translate(69.580078 0)"/>
       <use xlink:href="#DejaVuSans-Bold-39" transform="translate(139.160156 0)"/>
       <use xlink:href="#DejaVuSans-Bold-32" transform="translate(208.740234 0)"/>
      </g>
     </g>
    </g>
    <g id="xtick_7">
     <g id="line2d_13">
      <path d="M 636.11105 487.328923 
L 636.11105 53.624125 
" clip-path="url(#p0f94e6ca57)" style="fill: none; stroke-dasharray: 2.96,1.28; stroke-dashoffset: 0; stroke: #cccccc; stroke-opacity: 0.3; stroke-width: 0.8"/>
     </g>
     <g id="line2d_14"/>
     <g id="text_7">
      <!-- 16384 -->
      <g style="fill: #262626" transform="translate(625.762432 520.801411) rotate(-45) scale(0.1 -0.1)">
       <defs>
        <path id="DejaVuSans-Bold-33" d="M 2981 2516 
Q 3453 2394 3698 2092 
Q 3944 1791 3944 1325 
Q 3944 631 3412 270 
Q 2881 -91 1863 -91 
Q 1503 -91 1142 -33 
Q 781 25 428 141 
L 428 1069 
Q 766 900 1098 814 
Q 1431 728 1753 728 
Q 2231 728 2486 893 
Q 2741 1059 2741 1369 
Q 2741 1688 2480 1852 
Q 2219 2016 1709 2016 
L 1228 2016 
L 1228 2791 
L 1734 2791 
Q 2188 2791 2409 2933 
Q 2631 3075 2631 3366 
Q 2631 3634 2415 3781 
Q 2200 3928 1806 3928 
Q 1516 3928 1219 3862 
Q 922 3797 628 3669 
L 628 4550 
Q 984 4650 1334 4700 
Q 1684 4750 2022 4750 
Q 2931 4750 3382 4451 
Q 3834 4153 3834 3553 
Q 3834 3144 3618 2883 
Q 3403 2622 2981 2516 
z
" transform="scale(0.015625)"/>
       </defs>
       <use xlink:href="#DejaVuSans-Bold-31"/>
       <use xlink:href="#DejaVuSans-Bold-36" transform="translate(69.580078 0)"/>
       <use xlink:href="#DejaVuSans-Bold-33" transform="translate(139.160156 0)"/>
       <use xlink:href="#DejaVuSans-Bold-38" transform="translate(208.740234 0)"/>
       <use xlink:href="#DejaVuSans-Bold-34" transform="translate(278.320312 0)"/>
      </g>
     </g>
    </g>
    <g id="xtick_8">
     <g id="line2d_15">
      <path d="M 722.082584 487.328923 
L 722.082584 53.624125 
" clip-path="url(#p0f94e6ca57)" style="fill: none; stroke-dasharray: 2.96,1.28; stroke-dashoffset: 0; stroke: #cccccc; stroke-opacity: 0.3; stroke-width: 0.8"/>
     </g>
     <g id="line2d_16"/>
     <g id="text_8">
      <!-- 32768 -->
      <g style="fill: #262626" transform="translate(711.733966 520.801411) rotate(-45) scale(0.1 -0.1)">
       <defs>
        <path id="DejaVuSans-Bold-37" d="M 428 4666 
L 3944 4666 
L 3944 3988 
L 2125 0 
L 953 0 
L 2675 3781 
L 428 3781 
L 428 4666 
z
" transform="scale(0.015625)"/>
       </defs>
       <use xlink:href="#DejaVuSans-Bold-33"/>
       <use xlink:href="#DejaVuSans-Bold-32" transform="translate(69.580078 0)"/>
       <use xlink:href="#DejaVuSans-Bold-37" transform="translate(139.160156 0)"/>
       <use xlink:href="#DejaVuSans-Bold-36" transform="translate(208.740234 0)"/>
       <use xlink:href="#DejaVuSans-Bold-38" transform="translate(278.320312 0)"/>
      </g>
     </g>
    </g>
    <g id="xtick_9">
     <g id="line2d_17">
      <path d="M 808.054117 487.328923 
L 808.054117 53.624125 
" clip-path="url(#p0f94e6ca57)" style="fill: none; stroke-dasharray: 2.96,1.28; stroke-dashoffset: 0; stroke: #cccccc; stroke-opacity: 0.3; stroke-width: 0.8"/>
     </g>
     <g id="line2d_18"/>
     <g id="text_9">
      <!-- 65536 -->
      <g style="fill: #262626" transform="translate(797.705499 520.801411) rotate(-45) scale(0.1 -0.1)">
       <use xlink:href="#DejaVuSans-Bold-36"/>
       <use xlink:href="#DejaVuSans-Bold-35" transform="translate(69.580078 0)"/>
       <use xlink:href="#DejaVuSans-Bold-35" transform="translate(139.160156 0)"/>
       <use xlink:href="#DejaVuSans-Bold-33" transform="translate(208.740234 0)"/>
       <use xlink:href="#DejaVuSans-Bold-36" transform="translate(278.320312 0)"/>
      </g>
     </g>
    </g>
    <g id="xtick_10">
     <g id="line2d_19">
      <path d="M 894.025651 487.328923 
L 894.025651 53.624125 
" clip-path="url(#p0f94e6ca57)" style="fill: none; stroke-dasharray: 2.96,1.28; stroke-dashoffset: 0; stroke: #cccccc; stroke-opacity: 0.3; stroke-width: 0.8"/>
     </g>
     <g id="line2d_20"/>
     <g id="text_10">
      <!-- 131072 -->
      <g style="fill: #262626" transform="translate(881.217074 525.721328) rotate(-45) scale(0.1 -0.1)">
       <use xlink:href="#DejaVuSans-Bold-31"/>
       <use xlink:href="#DejaVuSans-Bold-33" transform="translate(69.580078 0)"/>
       <use xlink:href="#DejaVuSans-Bold-31" transform="translate(139.160156 0)"/>
       <use xlink:href="#DejaVuSans-Bold-30" transform="translate(208.740234 0)"/>
       <use xlink:href="#DejaVuSans-Bold-37" transform="translate(278.320312 0)"/>
       <use xlink:href="#DejaVuSans-Bold-32" transform="translate(347.900391 0)"/>
      </g>
     </g>
    </g>
    <g id="text_11">
     <!-- Bit Size -->
     <g style="fill: #262626" transform="translate(481.6275 540.310014) scale(0.12 -0.12)">
      <defs>
       <path id="DejaVuSans-Bold-42" d="M 2456 2859 
Q 2741 2859 2887 2984 
Q 3034 3109 3034 3353 
Q 3034 3594 2887 3720 
Q 2741 3847 2456 3847 
L 1791 3847 
L 1791 2859 
L 2456 2859 
z
M 2497 819 
Q 2859 819 3042 972 
Q 3225 1125 3225 1434 
Q 3225 1738 3044 1889 
Q 2863 2041 2497 2041 
L 1791 2041 
L 1791 819 
L 2497 819 
z
M 3616 2497 
Q 4003 2384 4215 2081 
Q 4428 1778 4428 1338 
Q 4428 663 3972 331 
Q 3516 0 2584 0 
L 588 0 
L 588 4666 
L 2394 4666 
Q 3366 4666 3802 4372 
Q 4238 4078 4238 3431 
Q 4238 3091 4078 2852 
Q 3919 2613 3616 2497 
z
" transform="scale(0.015625)"/>
       <path id="DejaVuSans-Bold-69" d="M 538 3500 
L 1656 3500 
L 1656 0 
L 538 0 
L 538 3500 
z
M 538 4863 
L 1656 4863 
L 1656 3950 
L 538 3950 
L 538 4863 
z
" transform="scale(0.015625)"/>
       <path id="DejaVuSans-Bold-74" d="M 1759 4494 
L 1759 3500 
L 2913 3500 
L 2913 2700 
L 1759 2700 
L 1759 1216 
Q 1759 972 1856 886 
Q 1953 800 2241 800 
L 2816 800 
L 2816 0 
L 1856 0 
Q 1194 0 917 276 
Q 641 553 641 1216 
L 641 2700 
L 84 2700 
L 84 3500 
L 641 3500 
L 641 4494 
L 1759 4494 
z
" transform="scale(0.015625)"/>
       <path id="DejaVuSans-Bold-20" transform="scale(0.015625)"/>
       <path id="DejaVuSans-Bold-53" d="M 3834 4519 
L 3834 3531 
Q 3450 3703 3084 3790 
Q 2719 3878 2394 3878 
Q 1963 3878 1756 3759 
Q 1550 3641 1550 3391 
Q 1550 3203 1689 3098 
Q 1828 2994 2194 2919 
L 2706 2816 
Q 3484 2659 3812 2340 
Q 4141 2022 4141 1434 
Q 4141 663 3683 286 
Q 3225 -91 2284 -91 
Q 1841 -91 1394 -6 
Q 947 78 500 244 
L 500 1259 
Q 947 1022 1364 901 
Q 1781 781 2169 781 
Q 2563 781 2772 912 
Q 2981 1044 2981 1288 
Q 2981 1506 2839 1625 
Q 2697 1744 2272 1838 
L 1806 1941 
Q 1106 2091 782 2419 
Q 459 2747 459 3303 
Q 459 4000 909 4375 
Q 1359 4750 2203 4750 
Q 2588 4750 2994 4692 
Q 3400 4634 3834 4519 
z
" transform="scale(0.015625)"/>
       <path id="DejaVuSans-Bold-7a" d="M 366 3500 
L 3419 3500 
L 3419 2719 
L 1575 800 
L 3419 800 
L 3419 0 
L 288 0 
L 288 781 
L 2131 2700 
L 366 2700 
L 366 3500 
z
" transform="scale(0.015625)"/>
       <path id="DejaVuSans-Bold-65" d="M 4031 1759 
L 4031 1441 
L 1416 1441 
Q 1456 1047 1700 850 
Q 1944 653 2381 653 
Q 2734 653 3104 758 
Q 3475 863 3866 1075 
L 3866 213 
Q 3469 63 3072 -14 
Q 2675 -91 2278 -91 
Q 1328 -91 801 392 
Q 275 875 275 1747 
Q 275 2603 792 3093 
Q 1309 3584 2216 3584 
Q 3041 3584 3536 3087 
Q 4031 2591 4031 1759 
z
M 2881 2131 
Q 2881 2450 2695 2645 
Q 2509 2841 2209 2841 
Q 1884 2841 1681 2658 
Q 1478 2475 1428 2131 
L 2881 2131 
z
" transform="scale(0.015625)"/>
      </defs>
      <use xlink:href="#DejaVuSans-Bold-42"/>
      <use xlink:href="#DejaVuSans-Bold-69" transform="translate(76.220703 0)"/>
      <use xlink:href="#DejaVuSans-Bold-74" transform="translate(110.498047 0)"/>
      <use xlink:href="#DejaVuSans-Bold-20" transform="translate(158.300781 0)"/>
      <use xlink:href="#DejaVuSans-Bold-53" transform="translate(193.115234 0)"/>
      <use xlink:href="#DejaVuSans-Bold-69" transform="translate(265.136719 0)"/>
      <use xlink:href="#DejaVuSans-Bold-7a" transform="translate(299.414062 0)"/>
      <use xlink:href="#DejaVuSans-Bold-65" transform="translate(357.617188 0)"/>
     </g>
    </g>
   </g>
   <g id="matplotlib.axis_2">
    <g id="ytick_1">
     <g id="line2d_21">
      <path d="M 39.03875 487.328923 
L 975.26875 487.328923 
" clip-path="url(#p0f94e6ca57)" style="fill: none; stroke-dasharray: 2.96,1.28; stroke-dashoffset: 0; stroke: #cccccc; stroke-opacity: 0.3; stroke-width: 0.8"/>
     </g>
     <g id="line2d_22"/>
     <g id="text_12">
      <!-- 0 -->
      <g style="fill: #262626" transform="translate(29.17625 491.128141) scale(0.1 -0.1)">
       <defs>
        <path id="DejaVuSans-30" d="M 2034 4250 
Q 1547 4250 1301 3770 
Q 1056 3291 1056 2328 
Q 1056 1369 1301 889 
Q 1547 409 2034 409 
Q 2525 409 2770 889 
Q 3016 1369 3016 2328 
Q 3016 3291 2770 3770 
Q 2525 4250 2034 4250 
z
M 2034 4750 
Q 2819 4750 3233 4129 
Q 3647 3509 3647 2328 
Q 3647 1150 3233 529 
Q 2819 -91 2034 -91 
Q 1250 -91 836 529 
Q 422 1150 422 2328 
Q 422 3509 836 4129 
Q 1250 4750 2034 4750 
z
" transform="scale(0.015625)"/>
       </defs>
       <use xlink:href="#DejaVuSans-30"/>
      </g>
     </g>
    </g>
    <g id="ytick_2">
     <g id="line2d_23">
      <path d="M 39.03875 411.717905 
L 975.26875 411.717905 
" clip-path="url(#p0f94e6ca57)" style="fill: none; stroke-dasharray: 2.96,1.28; stroke-dashoffset: 0; stroke: #cccccc; stroke-opacity: 0.3; stroke-width: 0.8"/>
     </g>
     <g id="line2d_24"/>
     <g id="text_13">
      <!-- 10 -->
      <g style="fill: #262626" transform="translate(22.81375 415.517124) scale(0.1 -0.1)">
       <defs>
        <path id="DejaVuSans-31" d="M 794 531 
L 1825 531 
L 1825 4091 
L 703 3866 
L 703 4441 
L 1819 4666 
L 2450 4666 
L 2450 531 
L 3481 531 
L 3481 0 
L 794 0 
L 794 531 
z
" transform="scale(0.015625)"/>
       </defs>
       <use xlink:href="#DejaVuSans-31"/>
       <use xlink:href="#DejaVuSans-30" transform="translate(63.623047 0)"/>
      </g>
     </g>
    </g>
    <g id="ytick_3">
     <g id="line2d_25">
      <path d="M 39.03875 336.106887 
L 975.26875 336.106887 
" clip-path="url(#p0f94e6ca57)" style="fill: none; stroke-dasharray: 2.96,1.28; stroke-dashoffset: 0; stroke: #cccccc; stroke-opacity: 0.3; stroke-width: 0.8"/>
     </g>
     <g id="line2d_26"/>
     <g id="text_14">
      <!-- 20 -->
      <g style="fill: #262626" transform="translate(22.81375 339.906106) scale(0.1 -0.1)">
       <defs>
        <path id="DejaVuSans-32" d="M 1228 531 
L 3431 531 
L 3431 0 
L 469 0 
L 469 531 
Q 828 903 1448 1529 
Q 2069 2156 2228 2338 
Q 2531 2678 2651 2914 
Q 2772 3150 2772 3378 
Q 2772 3750 2511 3984 
Q 2250 4219 1831 4219 
Q 1534 4219 1204 4116 
Q 875 4013 500 3803 
L 500 4441 
Q 881 4594 1212 4672 
Q 1544 4750 1819 4750 
Q 2544 4750 2975 4387 
Q 3406 4025 3406 3419 
Q 3406 3131 3298 2873 
Q 3191 2616 2906 2266 
Q 2828 2175 2409 1742 
Q 1991 1309 1228 531 
z
" transform="scale(0.015625)"/>
       </defs>
       <use xlink:href="#DejaVuSans-32"/>
       <use xlink:href="#DejaVuSans-30" transform="translate(63.623047 0)"/>
      </g>
     </g>
    </g>
    <g id="ytick_4">
     <g id="line2d_27">
      <path d="M 39.03875 260.495869 
L 975.26875 260.495869 
" clip-path="url(#p0f94e6ca57)" style="fill: none; stroke-dasharray: 2.96,1.28; stroke-dashoffset: 0; stroke: #cccccc; stroke-opacity: 0.3; stroke-width: 0.8"/>
     </g>
     <g id="line2d_28"/>
     <g id="text_15">
      <!-- 30 -->
      <g style="fill: #262626" transform="translate(22.81375 264.295088) scale(0.1 -0.1)">
       <defs>
        <path id="DejaVuSans-33" d="M 2597 2516 
Q 3050 2419 3304 2112 
Q 3559 1806 3559 1356 
Q 3559 666 3084 287 
Q 2609 -91 1734 -91 
Q 1441 -91 1130 -33 
Q 819 25 488 141 
L 488 750 
Q 750 597 1062 519 
Q 1375 441 1716 441 
Q 2309 441 2620 675 
Q 2931 909 2931 1356 
Q 2931 1769 2642 2001 
Q 2353 2234 1838 2234 
L 1294 2234 
L 1294 2753 
L 1863 2753 
Q 2328 2753 2575 2939 
Q 2822 3125 2822 3475 
Q 2822 3834 2567 4026 
Q 2313 4219 1838 4219 
Q 1578 4219 1281 4162 
Q 984 4106 628 3988 
L 628 4550 
Q 988 4650 1302 4700 
Q 1616 4750 1894 4750 
Q 2613 4750 3031 4423 
Q 3450 4097 3450 3541 
Q 3450 3153 3228 2886 
Q 3006 2619 2597 2516 
z
" transform="scale(0.015625)"/>
       </defs>
       <use xlink:href="#DejaVuSans-33"/>
       <use xlink:href="#DejaVuSans-30" transform="translate(63.623047 0)"/>
      </g>
     </g>
    </g>
    <g id="ytick_5">
     <g id="line2d_29">
      <path d="M 39.03875 184.884852 
L 975.26875 184.884852 
" clip-path="url(#p0f94e6ca57)" style="fill: none; stroke-dasharray: 2.96,1.28; stroke-dashoffset: 0; stroke: #cccccc; stroke-opacity: 0.3; stroke-width: 0.8"/>
     </g>
     <g id="line2d_30"/>
     <g id="text_16">
      <!-- 40 -->
      <g style="fill: #262626" transform="translate(22.81375 188.684071) scale(0.1 -0.1)">
       <defs>
        <path id="DejaVuSans-34" d="M 2419 4116 
L 825 1625 
L 2419 1625 
L 2419 4116 
z
M 2253 4666 
L 3047 4666 
L 3047 1625 
L 3713 1625 
L 3713 1100 
L 3047 1100 
L 3047 0 
L 2419 0 
L 2419 1100 
L 313 1100 
L 313 1709 
L 2253 4666 
z
" transform="scale(0.015625)"/>
       </defs>
       <use xlink:href="#DejaVuSans-34"/>
       <use xlink:href="#DejaVuSans-30" transform="translate(63.623047 0)"/>
      </g>
     </g>
    </g>
    <g id="ytick_6">
     <g id="line2d_31">
      <path d="M 39.03875 109.273834 
L 975.26875 109.273834 
" clip-path="url(#p0f94e6ca57)" style="fill: none; stroke-dasharray: 2.96,1.28; stroke-dashoffset: 0; stroke: #cccccc; stroke-opacity: 0.3; stroke-width: 0.8"/>
     </g>
     <g id="line2d_32"/>
     <g id="text_17">
      <!-- 50 -->
      <g style="fill: #262626" transform="translate(22.81375 113.073053) scale(0.1 -0.1)">
       <defs>
        <path id="DejaVuSans-35" d="M 691 4666 
L 3169 4666 
L 3169 4134 
L 1269 4134 
L 1269 2991 
Q 1406 3038 1543 3061 
Q 1681 3084 1819 3084 
Q 2600 3084 3056 2656 
Q 3513 2228 3513 1497 
Q 3513 744 3044 326 
Q 2575 -91 1722 -91 
Q 1428 -91 1123 -41 
Q 819 9 494 109 
L 494 744 
Q 775 591 1075 516 
Q 1375 441 1709 441 
Q 2250 441 2565 725 
Q 2881 1009 2881 1497 
Q 2881 1984 2565 2268 
Q 2250 2553 1709 2553 
Q 1456 2553 1204 2497 
Q 953 2441 691 2322 
L 691 4666 
z
" transform="scale(0.015625)"/>
       </defs>
       <use xlink:href="#DejaVuSans-35"/>
       <use xlink:href="#DejaVuSans-30" transform="translate(63.623047 0)"/>
      </g>
     </g>
    </g>
    <g id="text_18">
     <!-- L1D Cache Miss % -->
     <g style="fill: #262626" transform="translate(16.318125 331.253711) rotate(-90) scale(0.12 -0.12)">
      <defs>
       <path id="DejaVuSans-Bold-4c" d="M 588 4666 
L 1791 4666 
L 1791 909 
L 3903 909 
L 3903 0 
L 588 0 
L 588 4666 
z
" transform="scale(0.015625)"/>
       <path id="DejaVuSans-Bold-44" d="M 1791 3756 
L 1791 909 
L 2222 909 
Q 2959 909 3348 1275 
Q 3738 1641 3738 2338 
Q 3738 3031 3350 3393 
Q 2963 3756 2222 3756 
L 1791 3756 
z
M 588 4666 
L 1856 4666 
Q 2919 4666 3439 4514 
Q 3959 4363 4331 4000 
Q 4659 3684 4818 3271 
Q 4978 2859 4978 2338 
Q 4978 1809 4818 1395 
Q 4659 981 4331 666 
Q 3956 303 3431 151 
Q 2906 0 1856 0 
L 588 0 
L 588 4666 
z
" transform="scale(0.015625)"/>
       <path id="DejaVuSans-Bold-43" d="M 4288 256 
Q 3956 84 3597 -3 
Q 3238 -91 2847 -91 
Q 1681 -91 1000 561 
Q 319 1213 319 2328 
Q 319 3447 1000 4098 
Q 1681 4750 2847 4750 
Q 3238 4750 3597 4662 
Q 3956 4575 4288 4403 
L 4288 3438 
Q 3953 3666 3628 3772 
Q 3303 3878 2944 3878 
Q 2300 3878 1931 3465 
Q 1563 3053 1563 2328 
Q 1563 1606 1931 1193 
Q 2300 781 2944 781 
Q 3303 781 3628 887 
Q 3953 994 4288 1222 
L 4288 256 
z
" transform="scale(0.015625)"/>
       <path id="DejaVuSans-Bold-61" d="M 2106 1575 
Q 1756 1575 1579 1456 
Q 1403 1338 1403 1106 
Q 1403 894 1545 773 
Q 1688 653 1941 653 
Q 2256 653 2472 879 
Q 2688 1106 2688 1447 
L 2688 1575 
L 2106 1575 
z
M 3816 1997 
L 3816 0 
L 2688 0 
L 2688 519 
Q 2463 200 2181 54 
Q 1900 -91 1497 -91 
Q 953 -91 614 226 
Q 275 544 275 1050 
Q 275 1666 698 1953 
Q 1122 2241 2028 2241 
L 2688 2241 
L 2688 2328 
Q 2688 2594 2478 2717 
Q 2269 2841 1825 2841 
Q 1466 2841 1156 2769 
Q 847 2697 581 2553 
L 581 3406 
Q 941 3494 1303 3539 
Q 1666 3584 2028 3584 
Q 2975 3584 3395 3211 
Q 3816 2838 3816 1997 
z
" transform="scale(0.015625)"/>
       <path id="DejaVuSans-Bold-63" d="M 3366 3391 
L 3366 2478 
Q 3138 2634 2908 2709 
Q 2678 2784 2431 2784 
Q 1963 2784 1702 2511 
Q 1441 2238 1441 1747 
Q 1441 1256 1702 982 
Q 1963 709 2431 709 
Q 2694 709 2930 787 
Q 3166 866 3366 1019 
L 3366 103 
Q 3103 6 2833 -42 
Q 2563 -91 2291 -91 
Q 1344 -91 809 395 
Q 275 881 275 1747 
Q 275 2613 809 3098 
Q 1344 3584 2291 3584 
Q 2566 3584 2833 3536 
Q 3100 3488 3366 3391 
z
" transform="scale(0.015625)"/>
       <path id="DejaVuSans-Bold-68" d="M 4056 2131 
L 4056 0 
L 2931 0 
L 2931 347 
L 2931 1625 
Q 2931 2084 2911 2256 
Q 2891 2428 2841 2509 
Q 2775 2619 2662 2680 
Q 2550 2741 2406 2741 
Q 2056 2741 1856 2470 
Q 1656 2200 1656 1722 
L 1656 0 
L 538 0 
L 538 4863 
L 1656 4863 
L 1656 2988 
Q 1909 3294 2193 3439 
Q 2478 3584 2822 3584 
Q 3428 3584 3742 3212 
Q 4056 2841 4056 2131 
z
" transform="scale(0.015625)"/>
       <path id="DejaVuSans-Bold-4d" d="M 588 4666 
L 2119 4666 
L 3181 2169 
L 4250 4666 
L 5778 4666 
L 5778 0 
L 4641 0 
L 4641 3413 
L 3566 897 
L 2803 897 
L 1728 3413 
L 1728 0 
L 588 0 
L 588 4666 
z
" transform="scale(0.015625)"/>
       <path id="DejaVuSans-Bold-73" d="M 3272 3391 
L 3272 2541 
Q 2913 2691 2578 2766 
Q 2244 2841 1947 2841 
Q 1628 2841 1473 2761 
Q 1319 2681 1319 2516 
Q 1319 2381 1436 2309 
Q 1553 2238 1856 2203 
L 2053 2175 
Q 2913 2066 3209 1816 
Q 3506 1566 3506 1031 
Q 3506 472 3093 190 
Q 2681 -91 1863 -91 
Q 1516 -91 1145 -36 
Q 775 19 384 128 
L 384 978 
Q 719 816 1070 734 
Q 1422 653 1784 653 
Q 2113 653 2278 743 
Q 2444 834 2444 1013 
Q 2444 1163 2330 1236 
Q 2216 1309 1875 1350 
L 1678 1375 
Q 931 1469 631 1722 
Q 331 1975 331 2491 
Q 331 3047 712 3315 
Q 1094 3584 1881 3584 
Q 2191 3584 2531 3537 
Q 2872 3491 3272 3391 
z
" transform="scale(0.015625)"/>
       <path id="DejaVuSans-Bold-25" d="M 4959 1925 
Q 4738 1925 4616 1733 
Q 4494 1541 4494 1184 
Q 4494 825 4614 633 
Q 4734 441 4959 441 
Q 5184 441 5303 633 
Q 5422 825 5422 1184 
Q 5422 1541 5301 1733 
Q 5181 1925 4959 1925 
z
M 4959 2450 
Q 5541 2450 5875 2112 
Q 6209 1775 6209 1184 
Q 6209 594 5875 251 
Q 5541 -91 4959 -91 
Q 4378 -91 4042 251 
Q 3706 594 3706 1184 
Q 3706 1772 4042 2111 
Q 4378 2450 4959 2450 
z
M 2094 -91 
L 1403 -91 
L 4319 4750 
L 5013 4750 
L 2094 -91 
z
M 1453 4750 
Q 2034 4750 2367 4411 
Q 2700 4072 2700 3481 
Q 2700 2891 2367 2550 
Q 2034 2209 1453 2209 
Q 872 2209 539 2550 
Q 206 2891 206 3481 
Q 206 4072 539 4411 
Q 872 4750 1453 4750 
z
M 1453 4225 
Q 1228 4225 1106 4031 
Q 984 3838 984 3481 
Q 984 3122 1106 2926 
Q 1228 2731 1453 2731 
Q 1678 2731 1798 2926 
Q 1919 3122 1919 3481 
Q 1919 3838 1797 4031 
Q 1675 4225 1453 4225 
z
" transform="scale(0.015625)"/>
      </defs>
      <use xlink:href="#DejaVuSans-Bold-4c"/>
      <use xlink:href="#DejaVuSans-Bold-31" transform="translate(63.720703 0)"/>
      <use xlink:href="#DejaVuSans-Bold-44" transform="translate(133.300781 0)"/>
      <use xlink:href="#DejaVuSans-Bold-20" transform="translate(216.308594 0)"/>
      <use xlink:href="#DejaVuSans-Bold-43" transform="translate(251.123047 0)"/>
      <use xlink:href="#DejaVuSans-Bold-61" transform="translate(324.511719 0)"/>
      <use xlink:href="#DejaVuSans-Bold-63" transform="translate(391.992188 0)"/>
      <use xlink:href="#DejaVuSans-Bold-68" transform="translate(451.269531 0)"/>
      <use xlink:href="#DejaVuSans-Bold-65" transform="translate(522.460938 0)"/>
      <use xlink:href="#DejaVuSans-Bold-20" transform="translate(590.283203 0)"/>
      <use xlink:href="#DejaVuSans-Bold-4d" transform="translate(625.097656 0)"/>
      <use xlink:href="#DejaVuSans-Bold-69" transform="translate(724.609375 0)"/>
      <use xlink:href="#DejaVuSans-Bold-73" transform="translate(758.886719 0)"/>
      <use xlink:href="#DejaVuSans-Bold-73" transform="translate(818.408203 0)"/>
      <use xlink:href="#DejaVuSans-Bold-20" transform="translate(877.929688 0)"/>
      <use xlink:href="#DejaVuSans-Bold-25" transform="translate(912.744141 0)"/>
     </g>
    </g>
   </g>
   <g id="patch_3">
    <path d="M 81.594659 487.328923 
L 100.938254 487.328923 
L 100.938254 289.984166 
L 81.594659 289.984166 
z
" clip-path="url(#p0f94e6ca57)" style="fill: #0072b2; stroke: #ffffff; stroke-width: 0.8; stroke-linejoin: miter"/>
   </g>
   <g id="patch_4">
    <path d="M 167.566193 487.328923 
L 186.909788 487.328923 
L 186.909788 279.398624 
L 167.566193 279.398624 
z
" clip-path="url(#p0f94e6ca57)" style="fill: #0072b2; stroke: #ffffff; stroke-width: 0.8; stroke-linejoin: miter"/>
   </g>
   <g id="patch_5">
    <path d="M 253.537726 487.328923 
L 272.881321 487.328923 
L 272.881321 371.644066 
L 253.537726 371.644066 
z
" clip-path="url(#p0f94e6ca57)" style="fill: #0072b2; stroke: #ffffff; stroke-width: 0.8; stroke-linejoin: miter"/>
   </g>
   <g id="patch_6">
    <path d="M 339.50926 487.328923 
L 358.852855 487.328923 
L 358.852855 387.522379 
L 339.50926 387.522379 
z
" clip-path="url(#p0f94e6ca57)" style="fill: #0072b2; stroke: #ffffff; stroke-width: 0.8; stroke-linejoin: miter"/>
   </g>
   <g id="patch_7">
    <path d="M 425.480793 487.328923 
L 444.824388 487.328923 
L 444.824388 392.815151 
L 425.480793 392.815151 
z
" clip-path="url(#p0f94e6ca57)" style="fill: #0072b2; stroke: #ffffff; stroke-width: 0.8; stroke-linejoin: miter"/>
   </g>
   <g id="patch_8">
    <path d="M 511.452327 487.328923 
L 530.795922 487.328923 
L 530.795922 416.254566 
L 511.452327 416.254566 
z
" clip-path="url(#p0f94e6ca57)" style="fill: #0072b2; stroke: #ffffff; stroke-width: 0.8; stroke-linejoin: miter"/>
   </g>
   <g id="patch_9">
    <path d="M 597.42386 487.328923 
L 616.767455 487.328923 
L 616.767455 419.279007 
L 597.42386 419.279007 
z
" clip-path="url(#p0f94e6ca57)" style="fill: #0072b2; stroke: #ffffff; stroke-width: 0.8; stroke-linejoin: miter"/>
   </g>
   <g id="patch_10">
    <path d="M 683.395394 487.328923 
L 702.738989 487.328923 
L 702.738989 422.303447 
L 683.395394 422.303447 
z
" clip-path="url(#p0f94e6ca57)" style="fill: #0072b2; stroke: #ffffff; stroke-width: 0.8; stroke-linejoin: miter"/>
   </g>
   <g id="patch_11">
    <path d="M 769.366927 487.328923 
L 788.710522 487.328923 
L 788.710522 412.474015 
L 769.366927 412.474015 
z
" clip-path="url(#p0f94e6ca57)" style="fill: #0072b2; stroke: #ffffff; stroke-width: 0.8; stroke-linejoin: miter"/>
   </g>
   <g id="patch_12">
    <path d="M 855.338461 487.328923 
L 874.682056 487.328923 
L 874.682056 404.156803 
L 855.338461 404.156803 
z
" clip-path="url(#p0f94e6ca57)" style="fill: #0072b2; stroke: #ffffff; stroke-width: 0.8; stroke-linejoin: miter"/>
   </g>
   <g id="patch_13">
    <path d="M 100.938254 487.328923 
L 120.281849 487.328923 
L 120.281849 330.814116 
L 100.938254 330.814116 
z
" clip-path="url(#p0f94e6ca57)" style="fill: #d55e00; stroke: #ffffff; stroke-width: 0.8; stroke-linejoin: miter"/>
   </g>
   <g id="patch_14">
    <path d="M 186.909788 487.328923 
L 206.253383 487.328923 
L 206.253383 344.424099 
L 186.909788 344.424099 
z
" clip-path="url(#p0f94e6ca57)" style="fill: #d55e00; stroke: #ffffff; stroke-width: 0.8; stroke-linejoin: miter"/>
   </g>
   <g id="patch_15">
    <path d="M 272.881321 487.328923 
L 292.224916 487.328923 
L 292.224916 316.448023 
L 272.881321 316.448023 
z
" clip-path="url(#p0f94e6ca57)" style="fill: #d55e00; stroke: #ffffff; stroke-width: 0.8; stroke-linejoin: miter"/>
   </g>
   <g id="patch_16">
    <path d="M 358.852855 487.328923 
L 378.19645 487.328923 
L 378.19645 327.033565 
L 358.852855 327.033565 
z
" clip-path="url(#p0f94e6ca57)" style="fill: #d55e00; stroke: #ffffff; stroke-width: 0.8; stroke-linejoin: miter"/>
   </g>
   <g id="patch_17">
    <path d="M 444.824388 487.328923 
L 464.167983 487.328923 
L 464.167983 330.058006 
L 444.824388 330.058006 
z
" clip-path="url(#p0f94e6ca57)" style="fill: #d55e00; stroke: #ffffff; stroke-width: 0.8; stroke-linejoin: miter"/>
   </g>
   <g id="patch_18">
    <path d="M 530.795922 487.328923 
L 550.139517 487.328923 
L 550.139517 326.277455 
L 530.795922 326.277455 
z
" clip-path="url(#p0f94e6ca57)" style="fill: #d55e00; stroke: #ffffff; stroke-width: 0.8; stroke-linejoin: miter"/>
   </g>
   <g id="patch_19">
    <path d="M 616.767455 487.328923 
L 636.11105 487.328923 
L 636.11105 339.887438 
L 616.767455 339.887438 
z
" clip-path="url(#p0f94e6ca57)" style="fill: #d55e00; stroke: #ffffff; stroke-width: 0.8; stroke-linejoin: miter"/>
   </g>
   <g id="patch_20">
    <path d="M 702.738989 487.328923 
L 722.082584 487.328923 
L 722.082584 337.619108 
L 702.738989 337.619108 
z
" clip-path="url(#p0f94e6ca57)" style="fill: #d55e00; stroke: #ffffff; stroke-width: 0.8; stroke-linejoin: miter"/>
   </g>
   <g id="patch_21">
    <path d="M 788.710522 487.328923 
L 808.054117 487.328923 
L 808.054117 336.862997 
L 788.710522 336.862997 
z
" clip-path="url(#p0f94e6ca57)" style="fill: #d55e00; stroke: #ffffff; stroke-width: 0.8; stroke-linejoin: miter"/>
   </g>
   <g id="patch_22">
    <path d="M 874.682056 487.328923 
L 894.025651 487.328923 
L 894.025651 324.765235 
L 874.682056 324.765235 
z
" clip-path="url(#p0f94e6ca57)" style="fill: #d55e00; stroke: #ffffff; stroke-width: 0.8; stroke-linejoin: miter"/>
   </g>
   <g id="patch_23">
    <path d="M 120.281849 487.328923 
L 139.625444 487.328923 
L 139.625444 125.908258 
L 120.281849 125.908258 
z
" clip-path="url(#p0f94e6ca57)" style="fill: #8cd17d; stroke: #ffffff; stroke-width: 0.8; stroke-linejoin: miter"/>
   </g>
   <g id="patch_24">
    <path d="M 206.253383 487.328923 
L 225.596978 487.328923 
L 225.596978 241.593115 
L 206.253383 241.593115 
z
" clip-path="url(#p0f94e6ca57)" style="fill: #8cd17d; stroke: #ffffff; stroke-width: 0.8; stroke-linejoin: miter"/>
   </g>
   <g id="patch_25">
    <path d="M 292.224916 487.328923 
L 311.568511 487.328923 
L 311.568511 361.058523 
L 292.224916 361.058523 
z
" clip-path="url(#p0f94e6ca57)" style="fill: #8cd17d; stroke: #ffffff; stroke-width: 0.8; stroke-linejoin: miter"/>
   </g>
   <g id="patch_26">
    <path d="M 378.19645 487.328923 
L 397.540045 487.328923 
L 397.540045 398.107922 
L 378.19645 398.107922 
z
" clip-path="url(#p0f94e6ca57)" style="fill: #8cd17d; stroke: #ffffff; stroke-width: 0.8; stroke-linejoin: miter"/>
   </g>
   <g id="patch_27">
    <path d="M 464.167983 487.328923 
L 483.511578 487.328923 
L 483.511578 350.472981 
L 464.167983 350.472981 
z
" clip-path="url(#p0f94e6ca57)" style="fill: #8cd17d; stroke: #ffffff; stroke-width: 0.8; stroke-linejoin: miter"/>
   </g>
   <g id="patch_28">
    <path d="M 550.139517 487.328923 
L 569.483112 487.328923 
L 569.483112 404.156803 
L 550.139517 404.156803 
z
" clip-path="url(#p0f94e6ca57)" style="fill: #8cd17d; stroke: #ffffff; stroke-width: 0.8; stroke-linejoin: miter"/>
   </g>
   <g id="patch_29">
    <path d="M 636.11105 487.328923 
L 655.454645 487.328923 
L 655.454645 404.912913 
L 636.11105 404.912913 
z
" clip-path="url(#p0f94e6ca57)" style="fill: #8cd17d; stroke: #ffffff; stroke-width: 0.8; stroke-linejoin: miter"/>
   </g>
   <g id="patch_30">
    <path d="M 722.082584 487.328923 
L 741.426179 487.328923 
L 741.426179 332.326336 
L 722.082584 332.326336 
z
" clip-path="url(#p0f94e6ca57)" style="fill: #8cd17d; stroke: #ffffff; stroke-width: 0.8; stroke-linejoin: miter"/>
   </g>
   <g id="patch_31">
    <path d="M 808.054117 487.328923 
L 827.397712 487.328923 
L 827.397712 410.961795 
L 808.054117 410.961795 
z
" clip-path="url(#p0f94e6ca57)" style="fill: #8cd17d; stroke: #ffffff; stroke-width: 0.8; stroke-linejoin: miter"/>
   </g>
   <g id="patch_32">
    <path d="M 894.025651 487.328923 
L 913.369246 487.328923 
L 913.369246 317.204133 
L 894.025651 317.204133 
z
" clip-path="url(#p0f94e6ca57)" style="fill: #8cd17d; stroke: #ffffff; stroke-width: 0.8; stroke-linejoin: miter"/>
   </g>
   <g id="patch_33">
    <path d="M 139.625444 487.328923 
L 158.969039 487.328923 
L 158.969039 355.765752 
L 139.625444 355.765752 
z
" clip-path="url(#p0f94e6ca57)" style="fill: #009e73; stroke: #ffffff; stroke-width: 0.8; stroke-linejoin: miter"/>
   </g>
   <g id="patch_34">
    <path d="M 225.596978 487.328923 
L 244.940573 487.328923 
L 244.940573 336.106887 
L 225.596978 336.106887 
z
" clip-path="url(#p0f94e6ca57)" style="fill: #009e73; stroke: #ffffff; stroke-width: 0.8; stroke-linejoin: miter"/>
   </g>
   <g id="patch_35">
    <path d="M 311.568511 487.328923 
L 330.912106 487.328923 
L 330.912106 350.472981 
L 311.568511 350.472981 
z
" clip-path="url(#p0f94e6ca57)" style="fill: #009e73; stroke: #ffffff; stroke-width: 0.8; stroke-linejoin: miter"/>
   </g>
   <g id="patch_36">
    <path d="M 397.540045 487.328923 
L 416.88364 487.328923 
L 416.88364 387.522379 
L 397.540045 387.522379 
z
" clip-path="url(#p0f94e6ca57)" style="fill: #009e73; stroke: #ffffff; stroke-width: 0.8; stroke-linejoin: miter"/>
   </g>
   <g id="patch_37">
    <path d="M 483.511578 487.328923 
L 502.855173 487.328923 
L 502.855173 352.741311 
L 483.511578 352.741311 
z
" clip-path="url(#p0f94e6ca57)" style="fill: #009e73; stroke: #ffffff; stroke-width: 0.8; stroke-linejoin: miter"/>
   </g>
   <g id="patch_38">
    <path d="M 569.483112 487.328923 
L 588.826707 487.328923 
L 588.826707 410.205685 
L 569.483112 410.205685 
z
" clip-path="url(#p0f94e6ca57)" style="fill: #009e73; stroke: #ffffff; stroke-width: 0.8; stroke-linejoin: miter"/>
   </g>
   <g id="patch_39">
    <path d="M 655.454645 487.328923 
L 674.79824 487.328923 
L 674.79824 414.742346 
L 655.454645 414.742346 
z
" clip-path="url(#p0f94e6ca57)" style="fill: #009e73; stroke: #ffffff; stroke-width: 0.8; stroke-linejoin: miter"/>
   </g>
   <g id="patch_40">
    <path d="M 741.426179 487.328923 
L 760.769774 487.328923 
L 760.769774 348.20465 
L 741.426179 348.20465 
z
" clip-path="url(#p0f94e6ca57)" style="fill: #009e73; stroke: #ffffff; stroke-width: 0.8; stroke-linejoin: miter"/>
   </g>
   <g id="patch_41">
    <path d="M 827.397712 487.328923 
L 846.741307 487.328923 
L 846.741307 414.742346 
L 827.397712 414.742346 
z
" clip-path="url(#p0f94e6ca57)" style="fill: #009e73; stroke: #ffffff; stroke-width: 0.8; stroke-linejoin: miter"/>
   </g>
   <g id="patch_42">
    <path d="M 913.369246 487.328923 
L 932.712841 487.328923 
L 932.712841 320.228573 
L 913.369246 320.228573 
z
" clip-path="url(#p0f94e6ca57)" style="fill: #009e73; stroke: #ffffff; stroke-width: 0.8; stroke-linejoin: miter"/>
   </g>
   <g id="patch_43">
    <path d="M 39.03875 487.328923 
L 39.03875 53.624125 
" style="fill: none; stroke: #cccccc; stroke-linejoin: miter; stroke-linecap: square"/>
   </g>
   <g id="patch_44">
    <path d="M 975.26875 487.328923 
L 975.26875 53.624125 
" style="fill: none; stroke: #cccccc; stroke-linejoin: miter; stroke-linecap: square"/>
   </g>
   <g id="patch_45">
    <path d="M 39.03875 487.328923 
L 975.26875 487.328923 
" style="fill: none; stroke: #cccccc; stroke-linejoin: miter; stroke-linecap: square"/>
   </g>
   <g id="patch_46">
    <path d="M 39.03875 53.624125 
L 975.26875 53.624125 
" style="fill: none; stroke: #cccccc; stroke-linejoin: miter; stroke-linecap: square"/>
   </g>
   <g id="text_19">
    <!-- 26.1 -->
    <g style="fill: #0072b2" transform="translate(81.397707 284.373521) scale(0.08 -0.08)">
     <defs>
      <path id="DejaVuSans-Bold-2e" d="M 653 1209 
L 1778 1209 
L 1778 0 
L 653 0 
L 653 1209 
z
" transform="scale(0.015625)"/>
     </defs>
     <use xlink:href="#DejaVuSans-Bold-32"/>
     <use xlink:href="#DejaVuSans-Bold-36" transform="translate(69.580078 0)"/>
     <use xlink:href="#DejaVuSans-Bold-2e" transform="translate(139.160156 0)"/>
     <use xlink:href="#DejaVuSans-Bold-31" transform="translate(177.148438 0)"/>
    </g>
   </g>
   <g id="text_20">
    <!-- 20.7 -->
    <g style="fill: #d55e00" transform="translate(100.741302 326.02007) scale(0.08 -0.08)">
     <use xlink:href="#DejaVuSans-Bold-32"/>
     <use xlink:href="#DejaVuSans-Bold-30" transform="translate(69.580078 0)"/>
     <use xlink:href="#DejaVuSans-Bold-2e" transform="translate(139.160156 0)"/>
     <use xlink:href="#DejaVuSans-Bold-37" transform="translate(177.148438 0)"/>
    </g>
   </g>
   <g id="text_21">
    <!-- 47.8 -->
    <g style="fill: #8cd17d" transform="translate(120.084897 117.016095) scale(0.08 -0.08)">
     <use xlink:href="#DejaVuSans-Bold-34"/>
     <use xlink:href="#DejaVuSans-Bold-37" transform="translate(69.580078 0)"/>
     <use xlink:href="#DejaVuSans-Bold-2e" transform="translate(139.160156 0)"/>
     <use xlink:href="#DejaVuSans-Bold-38" transform="translate(177.148438 0)"/>
    </g>
   </g>
   <g id="text_22">
    <!-- 17.4 -->
    <g style="fill: #009e73" transform="translate(139.428492 351.470738) scale(0.08 -0.08)">
     <use xlink:href="#DejaVuSans-Bold-31"/>
     <use xlink:href="#DejaVuSans-Bold-37" transform="translate(69.580078 0)"/>
     <use xlink:href="#DejaVuSans-Bold-2e" transform="translate(139.160156 0)"/>
     <use xlink:href="#DejaVuSans-Bold-34" transform="translate(177.148438 0)"/>
    </g>
   </g>
   <g id="text_23">
    <!-- 27.5 -->
    <g style="fill: #0072b2" transform="translate(167.36924 273.576268) scale(0.08 -0.08)">
     <use xlink:href="#DejaVuSans-Bold-32"/>
     <use xlink:href="#DejaVuSans-Bold-37" transform="translate(69.580078 0)"/>
     <use xlink:href="#DejaVuSans-Bold-2e" transform="translate(139.160156 0)"/>
     <use xlink:href="#DejaVuSans-Bold-35" transform="translate(177.148438 0)"/>
    </g>
   </g>
   <g id="text_24">
    <!-- 18.9 -->
    <g style="fill: #d55e00" transform="translate(186.712835 339.902253) scale(0.08 -0.08)">
     <use xlink:href="#DejaVuSans-Bold-31"/>
     <use xlink:href="#DejaVuSans-Bold-38" transform="translate(69.580078 0)"/>
     <use xlink:href="#DejaVuSans-Bold-2e" transform="translate(139.160156 0)"/>
     <use xlink:href="#DejaVuSans-Bold-39" transform="translate(177.148438 0)"/>
    </g>
   </g>
   <g id="text_25">
    <!-- 32.5 -->
    <g style="fill: #8cd17d" transform="translate(206.05643 235.014649) scale(0.08 -0.08)">
     <use xlink:href="#DejaVuSans-Bold-33"/>
     <use xlink:href="#DejaVuSans-Bold-32" transform="translate(69.580078 0)"/>
     <use xlink:href="#DejaVuSans-Bold-2e" transform="translate(139.160156 0)"/>
     <use xlink:href="#DejaVuSans-Bold-35" transform="translate(177.148438 0)"/>
    </g>
   </g>
   <g id="text_26">
    <!-- 20.0 -->
    <g style="fill: #009e73" transform="translate(225.400025 331.418697) scale(0.08 -0.08)">
     <use xlink:href="#DejaVuSans-Bold-32"/>
     <use xlink:href="#DejaVuSans-Bold-30" transform="translate(69.580078 0)"/>
     <use xlink:href="#DejaVuSans-Bold-2e" transform="translate(139.160156 0)"/>
     <use xlink:href="#DejaVuSans-Bold-30" transform="translate(177.148438 0)"/>
    </g>
   </g>
   <g id="text_27">
    <!-- 15.3 -->
    <g style="fill: #0072b2" transform="translate(253.340774 367.666618) scale(0.08 -0.08)">
     <use xlink:href="#DejaVuSans-Bold-31"/>
     <use xlink:href="#DejaVuSans-Bold-35" transform="translate(69.580078 0)"/>
     <use xlink:href="#DejaVuSans-Bold-2e" transform="translate(139.160156 0)"/>
     <use xlink:href="#DejaVuSans-Bold-33" transform="translate(177.148438 0)"/>
    </g>
   </g>
   <g id="text_28">
    <!-- 22.6 -->
    <g style="fill: #d55e00" transform="translate(272.684369 311.366655) scale(0.08 -0.08)">
     <use xlink:href="#DejaVuSans-Bold-32"/>
     <use xlink:href="#DejaVuSans-Bold-32" transform="translate(69.580078 0)"/>
     <use xlink:href="#DejaVuSans-Bold-2e" transform="translate(139.160156 0)"/>
     <use xlink:href="#DejaVuSans-Bold-36" transform="translate(177.148438 0)"/>
    </g>
   </g>
   <g id="text_29">
    <!-- 16.7 -->
    <g style="fill: #8cd17d" transform="translate(292.027964 356.869365) scale(0.08 -0.08)">
     <use xlink:href="#DejaVuSans-Bold-31"/>
     <use xlink:href="#DejaVuSans-Bold-36" transform="translate(69.580078 0)"/>
     <use xlink:href="#DejaVuSans-Bold-2e" transform="translate(139.160156 0)"/>
     <use xlink:href="#DejaVuSans-Bold-37" transform="translate(177.148438 0)"/>
    </g>
   </g>
   <g id="text_30">
    <!-- 18.1 -->
    <g style="fill: #009e73" transform="translate(311.371559 346.072112) scale(0.08 -0.08)">
     <use xlink:href="#DejaVuSans-Bold-31"/>
     <use xlink:href="#DejaVuSans-Bold-38" transform="translate(69.580078 0)"/>
     <use xlink:href="#DejaVuSans-Bold-2e" transform="translate(139.160156 0)"/>
     <use xlink:href="#DejaVuSans-Bold-31" transform="translate(177.148438 0)"/>
    </g>
   </g>
   <g id="text_31">
    <!-- 13.2 -->
    <g style="fill: #0072b2" transform="translate(339.312307 383.862498) scale(0.08 -0.08)">
     <use xlink:href="#DejaVuSans-Bold-31"/>
     <use xlink:href="#DejaVuSans-Bold-33" transform="translate(69.580078 0)"/>
     <use xlink:href="#DejaVuSans-Bold-2e" transform="translate(139.160156 0)"/>
     <use xlink:href="#DejaVuSans-Bold-32" transform="translate(177.148438 0)"/>
    </g>
   </g>
   <g id="text_32">
    <!-- 21.2 -->
    <g style="fill: #d55e00" transform="translate(358.655902 322.163908) scale(0.08 -0.08)">
     <use xlink:href="#DejaVuSans-Bold-32"/>
     <use xlink:href="#DejaVuSans-Bold-31" transform="translate(69.580078 0)"/>
     <use xlink:href="#DejaVuSans-Bold-2e" transform="translate(139.160156 0)"/>
     <use xlink:href="#DejaVuSans-Bold-32" transform="translate(177.148438 0)"/>
    </g>
   </g>
   <g id="text_33">
    <!-- 11.8 -->
    <g style="fill: #8cd17d" transform="translate(377.999497 394.659752) scale(0.08 -0.08)">
     <use xlink:href="#DejaVuSans-Bold-31"/>
     <use xlink:href="#DejaVuSans-Bold-31" transform="translate(69.580078 0)"/>
     <use xlink:href="#DejaVuSans-Bold-2e" transform="translate(139.160156 0)"/>
     <use xlink:href="#DejaVuSans-Bold-38" transform="translate(177.148438 0)"/>
    </g>
   </g>
   <g id="text_34">
    <!-- 13.2 -->
    <g style="fill: #009e73" transform="translate(397.343092 383.862498) scale(0.08 -0.08)">
     <use xlink:href="#DejaVuSans-Bold-31"/>
     <use xlink:href="#DejaVuSans-Bold-33" transform="translate(69.580078 0)"/>
     <use xlink:href="#DejaVuSans-Bold-2e" transform="translate(139.160156 0)"/>
     <use xlink:href="#DejaVuSans-Bold-32" transform="translate(177.148438 0)"/>
    </g>
   </g>
   <g id="text_35">
    <!-- 12.5 -->
    <g style="fill: #0072b2" transform="translate(425.283841 389.261125) scale(0.08 -0.08)">
     <use xlink:href="#DejaVuSans-Bold-31"/>
     <use xlink:href="#DejaVuSans-Bold-32" transform="translate(69.580078 0)"/>
     <use xlink:href="#DejaVuSans-Bold-2e" transform="translate(139.160156 0)"/>
     <use xlink:href="#DejaVuSans-Bold-35" transform="translate(177.148438 0)"/>
    </g>
   </g>
   <g id="text_36">
    <!-- 20.8 -->
    <g style="fill: #d55e00" transform="translate(444.627436 325.248837) scale(0.08 -0.08)">
     <use xlink:href="#DejaVuSans-Bold-32"/>
     <use xlink:href="#DejaVuSans-Bold-30" transform="translate(69.580078 0)"/>
     <use xlink:href="#DejaVuSans-Bold-2e" transform="translate(139.160156 0)"/>
     <use xlink:href="#DejaVuSans-Bold-38" transform="translate(177.148438 0)"/>
    </g>
   </g>
   <g id="text_37">
    <!-- 18.1 -->
    <g style="fill: #8cd17d" transform="translate(463.971031 346.072112) scale(0.08 -0.08)">
     <use xlink:href="#DejaVuSans-Bold-31"/>
     <use xlink:href="#DejaVuSans-Bold-38" transform="translate(69.580078 0)"/>
     <use xlink:href="#DejaVuSans-Bold-2e" transform="translate(139.160156 0)"/>
     <use xlink:href="#DejaVuSans-Bold-31" transform="translate(177.148438 0)"/>
    </g>
   </g>
   <g id="text_38">
    <!-- 17.8 -->
    <g style="fill: #009e73" transform="translate(483.314626 348.385809) scale(0.08 -0.08)">
     <use xlink:href="#DejaVuSans-Bold-31"/>
     <use xlink:href="#DejaVuSans-Bold-37" transform="translate(69.580078 0)"/>
     <use xlink:href="#DejaVuSans-Bold-2e" transform="translate(139.160156 0)"/>
     <use xlink:href="#DejaVuSans-Bold-38" transform="translate(177.148438 0)"/>
    </g>
   </g>
   <g id="text_39">
    <!-- 9.4 -->
    <g style="fill: #0072b2" transform="translate(514.038499 413.169329) scale(0.08 -0.08)">
     <use xlink:href="#DejaVuSans-Bold-39"/>
     <use xlink:href="#DejaVuSans-Bold-2e" transform="translate(69.580078 0)"/>
     <use xlink:href="#DejaVuSans-Bold-34" transform="translate(107.568359 0)"/>
    </g>
   </g>
   <g id="text_40">
    <!-- 21.3 -->
    <g style="fill: #d55e00" transform="translate(530.598969 321.392676) scale(0.08 -0.08)">
     <use xlink:href="#DejaVuSans-Bold-32"/>
     <use xlink:href="#DejaVuSans-Bold-31" transform="translate(69.580078 0)"/>
     <use xlink:href="#DejaVuSans-Bold-2e" transform="translate(139.160156 0)"/>
     <use xlink:href="#DejaVuSans-Bold-33" transform="translate(177.148438 0)"/>
    </g>
   </g>
   <g id="text_41">
    <!-- 11.0 -->
    <g style="fill: #8cd17d" transform="translate(549.942564 400.829611) scale(0.08 -0.08)">
     <use xlink:href="#DejaVuSans-Bold-31"/>
     <use xlink:href="#DejaVuSans-Bold-31" transform="translate(69.580078 0)"/>
     <use xlink:href="#DejaVuSans-Bold-2e" transform="translate(139.160156 0)"/>
     <use xlink:href="#DejaVuSans-Bold-30" transform="translate(177.148438 0)"/>
    </g>
   </g>
   <g id="text_42">
    <!-- 10.2 -->
    <g style="fill: #009e73" transform="translate(569.286159 406.99947) scale(0.08 -0.08)">
     <use xlink:href="#DejaVuSans-Bold-31"/>
     <use xlink:href="#DejaVuSans-Bold-30" transform="translate(69.580078 0)"/>
     <use xlink:href="#DejaVuSans-Bold-2e" transform="translate(139.160156 0)"/>
     <use xlink:href="#DejaVuSans-Bold-32" transform="translate(177.148438 0)"/>
    </g>
   </g>
   <g id="text_43">
    <!-- 9.0 -->
    <g style="fill: #0072b2" transform="translate(600.010033 416.254258) scale(0.08 -0.08)">
     <use xlink:href="#DejaVuSans-Bold-39"/>
     <use xlink:href="#DejaVuSans-Bold-2e" transform="translate(69.580078 0)"/>
     <use xlink:href="#DejaVuSans-Bold-30" transform="translate(107.568359 0)"/>
    </g>
   </g>
   <g id="text_44">
    <!-- 19.5 -->
    <g style="fill: #d55e00" transform="translate(616.570503 335.274858) scale(0.08 -0.08)">
     <use xlink:href="#DejaVuSans-Bold-31"/>
     <use xlink:href="#DejaVuSans-Bold-39" transform="translate(69.580078 0)"/>
     <use xlink:href="#DejaVuSans-Bold-2e" transform="translate(139.160156 0)"/>
     <use xlink:href="#DejaVuSans-Bold-35" transform="translate(177.148438 0)"/>
    </g>
   </g>
   <g id="text_45">
    <!-- 10.9 -->
    <g style="fill: #8cd17d" transform="translate(635.914098 401.600843) scale(0.08 -0.08)">
     <use xlink:href="#DejaVuSans-Bold-31"/>
     <use xlink:href="#DejaVuSans-Bold-30" transform="translate(69.580078 0)"/>
     <use xlink:href="#DejaVuSans-Bold-2e" transform="translate(139.160156 0)"/>
     <use xlink:href="#DejaVuSans-Bold-39" transform="translate(177.148438 0)"/>
    </g>
   </g>
   <g id="text_46">
    <!-- 9.6 -->
    <g style="fill: #009e73" transform="translate(658.040818 411.626864) scale(0.08 -0.08)">
     <use xlink:href="#DejaVuSans-Bold-39"/>
     <use xlink:href="#DejaVuSans-Bold-2e" transform="translate(69.580078 0)"/>
     <use xlink:href="#DejaVuSans-Bold-36" transform="translate(107.568359 0)"/>
    </g>
   </g>
   <g id="text_47">
    <!-- 8.6 -->
    <g style="fill: #0072b2" transform="translate(685.981566 419.339188) scale(0.08 -0.08)">
     <use xlink:href="#DejaVuSans-Bold-38"/>
     <use xlink:href="#DejaVuSans-Bold-2e" transform="translate(69.580078 0)"/>
     <use xlink:href="#DejaVuSans-Bold-36" transform="translate(107.568359 0)"/>
    </g>
   </g>
   <g id="text_48">
    <!-- 19.8 -->
    <g style="fill: #d55e00" transform="translate(702.542036 332.961161) scale(0.08 -0.08)">
     <use xlink:href="#DejaVuSans-Bold-31"/>
     <use xlink:href="#DejaVuSans-Bold-39" transform="translate(69.580078 0)"/>
     <use xlink:href="#DejaVuSans-Bold-2e" transform="translate(139.160156 0)"/>
     <use xlink:href="#DejaVuSans-Bold-38" transform="translate(177.148438 0)"/>
    </g>
   </g>
   <g id="text_49">
    <!-- 20.5 -->
    <g style="fill: #8cd17d" transform="translate(721.885631 327.562535) scale(0.08 -0.08)">
     <use xlink:href="#DejaVuSans-Bold-32"/>
     <use xlink:href="#DejaVuSans-Bold-30" transform="translate(69.580078 0)"/>
     <use xlink:href="#DejaVuSans-Bold-2e" transform="translate(139.160156 0)"/>
     <use xlink:href="#DejaVuSans-Bold-35" transform="translate(177.148438 0)"/>
    </g>
   </g>
   <g id="text_50">
    <!-- 18.4 -->
    <g style="fill: #009e73" transform="translate(741.229226 343.758415) scale(0.08 -0.08)">
     <use xlink:href="#DejaVuSans-Bold-31"/>
     <use xlink:href="#DejaVuSans-Bold-38" transform="translate(69.580078 0)"/>
     <use xlink:href="#DejaVuSans-Bold-2e" transform="translate(139.160156 0)"/>
     <use xlink:href="#DejaVuSans-Bold-34" transform="translate(177.148438 0)"/>
    </g>
   </g>
   <g id="text_51">
    <!-- 9.9 -->
    <g style="fill: #0072b2" transform="translate(771.9531 409.313167) scale(0.08 -0.08)">
     <use xlink:href="#DejaVuSans-Bold-39"/>
     <use xlink:href="#DejaVuSans-Bold-2e" transform="translate(69.580078 0)"/>
     <use xlink:href="#DejaVuSans-Bold-39" transform="translate(107.568359 0)"/>
    </g>
   </g>
   <g id="text_52">
    <!-- 19.9 -->
    <g style="fill: #d55e00" transform="translate(788.51357 332.189929) scale(0.08 -0.08)">
     <use xlink:href="#DejaVuSans-Bold-31"/>
     <use xlink:href="#DejaVuSans-Bold-39" transform="translate(69.580078 0)"/>
     <use xlink:href="#DejaVuSans-Bold-2e" transform="translate(139.160156 0)"/>
     <use xlink:href="#DejaVuSans-Bold-39" transform="translate(177.148438 0)"/>
    </g>
   </g>
   <g id="text_53">
    <!-- 10.1 -->
    <g style="fill: #8cd17d" transform="translate(807.857165 407.770702) scale(0.08 -0.08)">
     <use xlink:href="#DejaVuSans-Bold-31"/>
     <use xlink:href="#DejaVuSans-Bold-30" transform="translate(69.580078 0)"/>
     <use xlink:href="#DejaVuSans-Bold-2e" transform="translate(139.160156 0)"/>
     <use xlink:href="#DejaVuSans-Bold-31" transform="translate(177.148438 0)"/>
    </g>
   </g>
   <g id="text_54">
    <!-- 9.6 -->
    <g style="fill: #009e73" transform="translate(829.983885 411.626864) scale(0.08 -0.08)">
     <use xlink:href="#DejaVuSans-Bold-39"/>
     <use xlink:href="#DejaVuSans-Bold-2e" transform="translate(69.580078 0)"/>
     <use xlink:href="#DejaVuSans-Bold-36" transform="translate(107.568359 0)"/>
    </g>
   </g>
   <g id="text_55">
    <!-- 11.0 -->
    <g style="fill: #0072b2" transform="translate(855.141508 400.829611) scale(0.08 -0.08)">
     <use xlink:href="#DejaVuSans-Bold-31"/>
     <use xlink:href="#DejaVuSans-Bold-31" transform="translate(69.580078 0)"/>
     <use xlink:href="#DejaVuSans-Bold-2e" transform="translate(139.160156 0)"/>
     <use xlink:href="#DejaVuSans-Bold-30" transform="translate(177.148438 0)"/>
    </g>
   </g>
   <g id="text_56">
    <!-- 21.5 -->
    <g style="fill: #d55e00" transform="translate(874.485103 319.850211) scale(0.08 -0.08)">
     <use xlink:href="#DejaVuSans-Bold-32"/>
     <use xlink:href="#DejaVuSans-Bold-31" transform="translate(69.580078 0)"/>
     <use xlink:href="#DejaVuSans-Bold-2e" transform="translate(139.160156 0)"/>
     <use xlink:href="#DejaVuSans-Bold-35" transform="translate(177.148438 0)"/>
    </g>
   </g>
   <g id="text_57">
    <!-- 22.5 -->
    <g style="fill: #8cd17d" transform="translate(893.828698 312.137887) scale(0.08 -0.08)">
     <use xlink:href="#DejaVuSans-Bold-32"/>
     <use xlink:href="#DejaVuSans-Bold-32" transform="translate(69.580078 0)"/>
     <use xlink:href="#DejaVuSans-Bold-2e" transform="translate(139.160156 0)"/>
     <use xlink:href="#DejaVuSans-Bold-35" transform="translate(177.148438 0)"/>
    </g>
   </g>
   <g id="text_58">
    <!-- 22.1 -->
    <g style="fill: #009e73" transform="translate(913.172293 315.222817) scale(0.08 -0.08)">
     <use xlink:href="#DejaVuSans-Bold-32"/>
     <use xlink:href="#DejaVuSans-Bold-32" transform="translate(69.580078 0)"/>
     <use xlink:href="#DejaVuSans-Bold-2e" transform="translate(139.160156 0)"/>
     <use xlink:href="#DejaVuSans-Bold-31" transform="translate(177.148438 0)"/>
    </g>
   </g>
   <g id="text_59">
    <!-- Comparison of L1D Cache Miss Percentage between Implementations (Subtraction) -->
    <g style="fill: #262626" transform="translate(177.849687 17.837813) scale(0.14 -0.14)">
     <defs>
      <path id="DejaVuSans-Bold-6f" d="M 2203 2784 
Q 1831 2784 1636 2517 
Q 1441 2250 1441 1747 
Q 1441 1244 1636 976 
Q 1831 709 2203 709 
Q 2569 709 2762 976 
Q 2956 1244 2956 1747 
Q 2956 2250 2762 2517 
Q 2569 2784 2203 2784 
z
M 2203 3584 
Q 3106 3584 3614 3096 
Q 4122 2609 4122 1747 
Q 4122 884 3614 396 
Q 3106 -91 2203 -91 
Q 1297 -91 786 396 
Q 275 884 275 1747 
Q 275 2609 786 3096 
Q 1297 3584 2203 3584 
z
" transform="scale(0.015625)"/>
      <path id="DejaVuSans-Bold-6d" d="M 3781 2919 
Q 3994 3244 4286 3414 
Q 4578 3584 4928 3584 
Q 5531 3584 5847 3212 
Q 6163 2841 6163 2131 
L 6163 0 
L 5038 0 
L 5038 1825 
Q 5041 1866 5042 1909 
Q 5044 1953 5044 2034 
Q 5044 2406 4934 2573 
Q 4825 2741 4581 2741 
Q 4263 2741 4089 2478 
Q 3916 2216 3909 1719 
L 3909 0 
L 2784 0 
L 2784 1825 
Q 2784 2406 2684 2573 
Q 2584 2741 2328 2741 
Q 2006 2741 1831 2477 
Q 1656 2213 1656 1722 
L 1656 0 
L 531 0 
L 531 3500 
L 1656 3500 
L 1656 2988 
Q 1863 3284 2130 3434 
Q 2397 3584 2719 3584 
Q 3081 3584 3359 3409 
Q 3638 3234 3781 2919 
z
" transform="scale(0.015625)"/>
      <path id="DejaVuSans-Bold-70" d="M 1656 506 
L 1656 -1331 
L 538 -1331 
L 538 3500 
L 1656 3500 
L 1656 2988 
Q 1888 3294 2169 3439 
Q 2450 3584 2816 3584 
Q 3463 3584 3878 3070 
Q 4294 2556 4294 1747 
Q 4294 938 3878 423 
Q 3463 -91 2816 -91 
Q 2450 -91 2169 54 
Q 1888 200 1656 506 
z
M 2400 2772 
Q 2041 2772 1848 2508 
Q 1656 2244 1656 1747 
Q 1656 1250 1848 986 
Q 2041 722 2400 722 
Q 2759 722 2948 984 
Q 3138 1247 3138 1747 
Q 3138 2247 2948 2509 
Q 2759 2772 2400 2772 
z
" transform="scale(0.015625)"/>
      <path id="DejaVuSans-Bold-72" d="M 3138 2547 
Q 2991 2616 2845 2648 
Q 2700 2681 2553 2681 
Q 2122 2681 1889 2404 
Q 1656 2128 1656 1613 
L 1656 0 
L 538 0 
L 538 3500 
L 1656 3500 
L 1656 2925 
Q 1872 3269 2151 3426 
Q 2431 3584 2822 3584 
Q 2878 3584 2943 3579 
Q 3009 3575 3134 3559 
L 3138 2547 
z
" transform="scale(0.015625)"/>
      <path id="DejaVuSans-Bold-6e" d="M 4056 2131 
L 4056 0 
L 2931 0 
L 2931 347 
L 2931 1631 
Q 2931 2084 2911 2256 
Q 2891 2428 2841 2509 
Q 2775 2619 2662 2680 
Q 2550 2741 2406 2741 
Q 2056 2741 1856 2470 
Q 1656 2200 1656 1722 
L 1656 0 
L 538 0 
L 538 3500 
L 1656 3500 
L 1656 2988 
Q 1909 3294 2193 3439 
Q 2478 3584 2822 3584 
Q 3428 3584 3742 3212 
Q 4056 2841 4056 2131 
z
" transform="scale(0.015625)"/>
      <path id="DejaVuSans-Bold-66" d="M 2841 4863 
L 2841 4128 
L 2222 4128 
Q 1984 4128 1890 4042 
Q 1797 3956 1797 3744 
L 1797 3500 
L 2753 3500 
L 2753 2700 
L 1797 2700 
L 1797 0 
L 678 0 
L 678 2700 
L 122 2700 
L 122 3500 
L 678 3500 
L 678 3744 
Q 678 4316 997 4589 
Q 1316 4863 1984 4863 
L 2841 4863 
z
" transform="scale(0.015625)"/>
      <path id="DejaVuSans-Bold-50" d="M 588 4666 
L 2584 4666 
Q 3475 4666 3951 4270 
Q 4428 3875 4428 3144 
Q 4428 2409 3951 2014 
Q 3475 1619 2584 1619 
L 1791 1619 
L 1791 0 
L 588 0 
L 588 4666 
z
M 1791 3794 
L 1791 2491 
L 2456 2491 
Q 2806 2491 2997 2661 
Q 3188 2831 3188 3144 
Q 3188 3456 2997 3625 
Q 2806 3794 2456 3794 
L 1791 3794 
z
" transform="scale(0.015625)"/>
      <path id="DejaVuSans-Bold-67" d="M 2919 594 
Q 2688 288 2409 144 
Q 2131 0 1766 0 
Q 1125 0 706 504 
Q 288 1009 288 1791 
Q 288 2575 706 3076 
Q 1125 3578 1766 3578 
Q 2131 3578 2409 3434 
Q 2688 3291 2919 2981 
L 2919 3500 
L 4044 3500 
L 4044 353 
Q 4044 -491 3511 -936 
Q 2978 -1381 1966 -1381 
Q 1638 -1381 1331 -1331 
Q 1025 -1281 716 -1178 
L 716 -306 
Q 1009 -475 1290 -558 
Q 1572 -641 1856 -641 
Q 2406 -641 2662 -400 
Q 2919 -159 2919 353 
L 2919 594 
z
M 2181 2772 
Q 1834 2772 1640 2515 
Q 1447 2259 1447 1791 
Q 1447 1309 1634 1061 
Q 1822 813 2181 813 
Q 2531 813 2725 1069 
Q 2919 1325 2919 1791 
Q 2919 2259 2725 2515 
Q 2531 2772 2181 2772 
z
" transform="scale(0.015625)"/>
      <path id="DejaVuSans-Bold-62" d="M 2400 722 
Q 2759 722 2948 984 
Q 3138 1247 3138 1747 
Q 3138 2247 2948 2509 
Q 2759 2772 2400 2772 
Q 2041 2772 1848 2508 
Q 1656 2244 1656 1747 
Q 1656 1250 1848 986 
Q 2041 722 2400 722 
z
M 1656 2988 
Q 1888 3294 2169 3439 
Q 2450 3584 2816 3584 
Q 3463 3584 3878 3070 
Q 4294 2556 4294 1747 
Q 4294 938 3878 423 
Q 3463 -91 2816 -91 
Q 2450 -91 2169 54 
Q 1888 200 1656 506 
L 1656 0 
L 538 0 
L 538 4863 
L 1656 4863 
L 1656 2988 
z
" transform="scale(0.015625)"/>
      <path id="DejaVuSans-Bold-77" d="M 225 3500 
L 1313 3500 
L 1900 1088 
L 2491 3500 
L 3425 3500 
L 4013 1113 
L 4603 3500 
L 5691 3500 
L 4769 0 
L 3547 0 
L 2956 2406 
L 2369 0 
L 1147 0 
L 225 3500 
z
" transform="scale(0.015625)"/>
      <path id="DejaVuSans-Bold-49" d="M 588 4666 
L 1791 4666 
L 1791 0 
L 588 0 
L 588 4666 
z
" transform="scale(0.015625)"/>
      <path id="DejaVuSans-Bold-6c" d="M 538 4863 
L 1656 4863 
L 1656 0 
L 538 0 
L 538 4863 
z
" transform="scale(0.015625)"/>
      <path id="DejaVuSans-Bold-28" d="M 2413 -844 
L 1484 -844 
Q 1006 -72 778 623 
Q 550 1319 550 2003 
Q 550 2688 779 3389 
Q 1009 4091 1484 4856 
L 2413 4856 
Q 2013 4116 1813 3408 
Q 1613 2700 1613 2009 
Q 1613 1319 1811 609 
Q 2009 -100 2413 -844 
z
" transform="scale(0.015625)"/>
      <path id="DejaVuSans-Bold-75" d="M 500 1363 
L 500 3500 
L 1625 3500 
L 1625 3150 
Q 1625 2866 1622 2436 
Q 1619 2006 1619 1863 
Q 1619 1441 1641 1255 
Q 1663 1069 1716 984 
Q 1784 875 1895 815 
Q 2006 756 2150 756 
Q 2500 756 2700 1025 
Q 2900 1294 2900 1772 
L 2900 3500 
L 4019 3500 
L 4019 0 
L 2900 0 
L 2900 506 
Q 2647 200 2364 54 
Q 2081 -91 1741 -91 
Q 1134 -91 817 281 
Q 500 653 500 1363 
z
" transform="scale(0.015625)"/>
      <path id="DejaVuSans-Bold-29" d="M 513 -844 
Q 913 -100 1113 609 
Q 1313 1319 1313 2009 
Q 1313 2700 1113 3408 
Q 913 4116 513 4856 
L 1441 4856 
Q 1916 4091 2145 3389 
Q 2375 2688 2375 2003 
Q 2375 1319 2147 623 
Q 1919 -72 1441 -844 
L 513 -844 
z
" transform="scale(0.015625)"/>
     </defs>
     <use xlink:href="#DejaVuSans-Bold-43"/>
     <use xlink:href="#DejaVuSans-Bold-6f" transform="translate(73.388672 0)"/>
     <use xlink:href="#DejaVuSans-Bold-6d" transform="translate(142.089844 0)"/>
     <use xlink:href="#DejaVuSans-Bold-70" transform="translate(246.289062 0)"/>
     <use xlink:href="#DejaVuSans-Bold-61" transform="translate(317.871094 0)"/>
     <use xlink:href="#DejaVuSans-Bold-72" transform="translate(385.351562 0)"/>
     <use xlink:href="#DejaVuSans-Bold-69" transform="translate(434.667969 0)"/>
     <use xlink:href="#DejaVuSans-Bold-73" transform="translate(468.945312 0)"/>
     <use xlink:href="#DejaVuSans-Bold-6f" transform="translate(528.466797 0)"/>
     <use xlink:href="#DejaVuSans-Bold-6e" transform="translate(597.167969 0)"/>
     <use xlink:href="#DejaVuSans-Bold-20" transform="translate(668.359375 0)"/>
     <use xlink:href="#DejaVuSans-Bold-6f" transform="translate(703.173828 0)"/>
     <use xlink:href="#DejaVuSans-Bold-66" transform="translate(771.875 0)"/>
     <use xlink:href="#DejaVuSans-Bold-20" transform="translate(815.380859 0)"/>
     <use xlink:href="#DejaVuSans-Bold-4c" transform="translate(850.195312 0)"/>
     <use xlink:href="#DejaVuSans-Bold-31" transform="translate(913.916016 0)"/>
     <use xlink:href="#DejaVuSans-Bold-44" transform="translate(983.496094 0)"/>
     <use xlink:href="#DejaVuSans-Bold-20" transform="translate(1066.503906 0)"/>
     <use xlink:href="#DejaVuSans-Bold-43" transform="translate(1101.318359 0)"/>
     <use xlink:href="#DejaVuSans-Bold-61" transform="translate(1174.707031 0)"/>
     <use xlink:href="#DejaVuSans-Bold-63" transform="translate(1242.1875 0)"/>
     <use xlink:href="#DejaVuSans-Bold-68" transform="translate(1301.464844 0)"/>
     <use xlink:href="#DejaVuSans-Bold-65" transform="translate(1372.65625 0)"/>
     <use xlink:href="#DejaVuSans-Bold-20" transform="translate(1440.478516 0)"/>
     <use xlink:href="#DejaVuSans-Bold-4d" transform="translate(1475.292969 0)"/>
     <use xlink:href="#DejaVuSans-Bold-69" transform="translate(1574.804688 0)"/>
     <use xlink:href="#DejaVuSans-Bold-73" transform="translate(1609.082031 0)"/>
     <use xlink:href="#DejaVuSans-Bold-73" transform="translate(1668.603516 0)"/>
     <use xlink:href="#DejaVuSans-Bold-20" transform="translate(1728.125 0)"/>
     <use xlink:href="#DejaVuSans-Bold-50" transform="translate(1762.939453 0)"/>
     <use xlink:href="#DejaVuSans-Bold-65" transform="translate(1836.230469 0)"/>
     <use xlink:href="#DejaVuSans-Bold-72" transform="translate(1904.052734 0)"/>
     <use xlink:href="#DejaVuSans-Bold-63" transform="translate(1953.369141 0)"/>
     <use xlink:href="#DejaVuSans-Bold-65" transform="translate(2012.646484 0)"/>
     <use xlink:href="#DejaVuSans-Bold-6e" transform="translate(2080.46875 0)"/>
     <use xlink:href="#DejaVuSans-Bold-74" transform="translate(2151.660156 0)"/>
     <use xlink:href="#DejaVuSans-Bold-61" transform="translate(2199.462891 0)"/>
     <use xlink:href="#DejaVuSans-Bold-67" transform="translate(2266.943359 0)"/>
     <use xlink:href="#DejaVuSans-Bold-65" transform="translate(2338.525391 0)"/>
     <use xlink:href="#DejaVuSans-Bold-20" transform="translate(2406.347656 0)"/>
     <use xlink:href="#DejaVuSans-Bold-62" transform="translate(2441.162109 0)"/>
     <use xlink:href="#DejaVuSans-Bold-65" transform="translate(2512.744141 0)"/>
     <use xlink:href="#DejaVuSans-Bold-74" transform="translate(2580.566406 0)"/>
     <use xlink:href="#DejaVuSans-Bold-77" transform="translate(2628.369141 0)"/>
     <use xlink:href="#DejaVuSans-Bold-65" transform="translate(2720.751953 0)"/>
     <use xlink:href="#DejaVuSans-Bold-65" transform="translate(2788.574219 0)"/>
     <use xlink:href="#DejaVuSans-Bold-6e" transform="translate(2856.396484 0)"/>
     <use xlink:href="#DejaVuSans-Bold-20" transform="translate(2927.587891 0)"/>
     <use xlink:href="#DejaVuSans-Bold-49" transform="translate(2962.402344 0)"/>
     <use xlink:href="#DejaVuSans-Bold-6d" transform="translate(2999.609375 0)"/>
     <use xlink:href="#DejaVuSans-Bold-70" transform="translate(3103.808594 0)"/>
     <use xlink:href="#DejaVuSans-Bold-6c" transform="translate(3175.390625 0)"/>
     <use xlink:href="#DejaVuSans-Bold-65" transform="translate(3209.667969 0)"/>
     <use xlink:href="#DejaVuSans-Bold-6d" transform="translate(3277.490234 0)"/>
     <use xlink:href="#DejaVuSans-Bold-65" transform="translate(3381.689453 0)"/>
     <use xlink:href="#DejaVuSans-Bold-6e" transform="translate(3449.511719 0)"/>
     <use xlink:href="#DejaVuSans-Bold-74" transform="translate(3520.703125 0)"/>
     <use xlink:href="#DejaVuSans-Bold-61" transform="translate(3568.505859 0)"/>
     <use xlink:href="#DejaVuSans-Bold-74" transform="translate(3635.986328 0)"/>
     <use xlink:href="#DejaVuSans-Bold-69" transform="translate(3683.789062 0)"/>
     <use xlink:href="#DejaVuSans-Bold-6f" transform="translate(3718.066406 0)"/>
     <use xlink:href="#DejaVuSans-Bold-6e" transform="translate(3786.767578 0)"/>
     <use xlink:href="#DejaVuSans-Bold-73" transform="translate(3857.958984 0)"/>
     <use xlink:href="#DejaVuSans-Bold-20" transform="translate(3917.480469 0)"/>
     <use xlink:href="#DejaVuSans-Bold-28" transform="translate(3952.294922 0)"/>
     <use xlink:href="#DejaVuSans-Bold-53" transform="translate(3997.998047 0)"/>
     <use xlink:href="#DejaVuSans-Bold-75" transform="translate(4070.019531 0)"/>
     <use xlink:href="#DejaVuSans-Bold-62" transform="translate(4141.210938 0)"/>
     <use xlink:href="#DejaVuSans-Bold-74" transform="translate(4212.792969 0)"/>
     <use xlink:href="#DejaVuSans-Bold-72" transform="translate(4260.595703 0)"/>
     <use xlink:href="#DejaVuSans-Bold-61" transform="translate(4309.912109 0)"/>
     <use xlink:href="#DejaVuSans-Bold-63" transform="translate(4377.392578 0)"/>
     <use xlink:href="#DejaVuSans-Bold-74" transform="translate(4436.669922 0)"/>
     <use xlink:href="#DejaVuSans-Bold-69" transform="translate(4484.472656 0)"/>
     <use xlink:href="#DejaVuSans-Bold-6f" transform="translate(4518.75 0)"/>
     <use xlink:href="#DejaVuSans-Bold-6e" transform="translate(4587.451172 0)"/>
     <use xlink:href="#DejaVuSans-Bold-29" transform="translate(4658.642578 0)"/>
    </g>
    <!-- Intel Xeon E-2314 @ 2.80GHz -->
    <g style="fill: #262626" transform="translate(392.455469 33.624125) scale(0.14 -0.14)">
     <defs>
      <path id="DejaVuSans-Bold-58" d="M 3188 2381 
L 4806 0 
L 3553 0 
L 2463 1594 
L 1381 0 
L 122 0 
L 1741 2381 
L 184 4666 
L 1441 4666 
L 2463 3163 
L 3481 4666 
L 4744 4666 
L 3188 2381 
z
" transform="scale(0.015625)"/>
      <path id="DejaVuSans-Bold-45" d="M 588 4666 
L 3834 4666 
L 3834 3756 
L 1791 3756 
L 1791 2888 
L 3713 2888 
L 3713 1978 
L 1791 1978 
L 1791 909 
L 3903 909 
L 3903 0 
L 588 0 
L 588 4666 
z
" transform="scale(0.015625)"/>
      <path id="DejaVuSans-Bold-2d" d="M 347 2297 
L 2309 2297 
L 2309 1388 
L 347 1388 
L 347 2297 
z
" transform="scale(0.015625)"/>
      <path id="DejaVuSans-Bold-40" d="M 2597 1684 
Q 2597 1300 2761 1078 
Q 2925 856 3206 856 
Q 3484 856 3650 1079 
Q 3816 1303 3816 1684 
Q 3816 2063 3648 2283 
Q 3481 2503 3200 2503 
Q 2925 2503 2761 2283 
Q 2597 2063 2597 1684 
z
M 3878 744 
Q 3784 522 3576 398 
Q 3369 275 3091 275 
Q 2553 275 2217 664 
Q 1881 1053 1881 1678 
Q 1881 2303 2218 2693 
Q 2556 3084 3091 3084 
Q 3369 3084 3576 2959 
Q 3784 2834 3878 2613 
L 3878 3022 
L 4531 3022 
L 4531 856 
Q 4919 916 5141 1230 
Q 5363 1544 5363 2034 
Q 5363 2347 5272 2620 
Q 5181 2894 4997 3122 
Q 4700 3503 4254 3709 
Q 3809 3916 3291 3916 
Q 2928 3916 2597 3820 
Q 2266 3725 1984 3541 
Q 1522 3234 1264 2748 
Q 1006 2263 1006 1697 
Q 1006 1231 1173 823 
Q 1341 416 1656 103 
Q 1969 -203 2373 -364 
Q 2778 -525 3238 -525 
Q 3631 -525 4025 -378 
Q 4419 -231 4697 19 
L 5031 -488 
Q 4641 -791 4180 -952 
Q 3719 -1113 3244 -1113 
Q 2666 -1113 2153 -908 
Q 1641 -703 1241 -313 
Q 841 78 631 592 
Q 422 1106 422 1697 
Q 422 2266 634 2781 
Q 847 3297 1241 3688 
Q 1634 4075 2157 4287 
Q 2681 4500 3244 4500 
Q 3944 4500 4516 4233 
Q 5088 3966 5472 3463 
Q 5706 3156 5826 2798 
Q 5947 2441 5947 2047 
Q 5947 1200 5437 731 
Q 4928 263 4000 263 
L 3878 263 
L 3878 744 
z
" transform="scale(0.015625)"/>
      <path id="DejaVuSans-Bold-47" d="M 4781 347 
Q 4331 128 3847 18 
Q 3363 -91 2847 -91 
Q 1681 -91 1000 561 
Q 319 1213 319 2328 
Q 319 3456 1012 4103 
Q 1706 4750 2913 4750 
Q 3378 4750 3804 4662 
Q 4231 4575 4609 4403 
L 4609 3438 
Q 4219 3659 3833 3768 
Q 3447 3878 3059 3878 
Q 2341 3878 1952 3476 
Q 1563 3075 1563 2328 
Q 1563 1588 1938 1184 
Q 2313 781 3003 781 
Q 3191 781 3352 804 
Q 3513 828 3641 878 
L 3641 1784 
L 2906 1784 
L 2906 2591 
L 4781 2591 
L 4781 347 
z
" transform="scale(0.015625)"/>
      <path id="DejaVuSans-Bold-48" d="M 588 4666 
L 1791 4666 
L 1791 2888 
L 3566 2888 
L 3566 4666 
L 4769 4666 
L 4769 0 
L 3566 0 
L 3566 1978 
L 1791 1978 
L 1791 0 
L 588 0 
L 588 4666 
z
" transform="scale(0.015625)"/>
     </defs>
     <use xlink:href="#DejaVuSans-Bold-49"/>
     <use xlink:href="#DejaVuSans-Bold-6e" transform="translate(37.207031 0)"/>
     <use xlink:href="#DejaVuSans-Bold-74" transform="translate(108.398438 0)"/>
     <use xlink:href="#DejaVuSans-Bold-65" transform="translate(156.201172 0)"/>
     <use xlink:href="#DejaVuSans-Bold-6c" transform="translate(224.023438 0)"/>
     <use xlink:href="#DejaVuSans-Bold-20" transform="translate(258.300781 0)"/>
     <use xlink:href="#DejaVuSans-Bold-58" transform="translate(293.115234 0)"/>
     <use xlink:href="#DejaVuSans-Bold-65" transform="translate(367.589844 0)"/>
     <use xlink:href="#DejaVuSans-Bold-6f" transform="translate(435.412109 0)"/>
     <use xlink:href="#DejaVuSans-Bold-6e" transform="translate(504.113281 0)"/>
     <use xlink:href="#DejaVuSans-Bold-20" transform="translate(575.304688 0)"/>
     <use xlink:href="#DejaVuSans-Bold-45" transform="translate(610.119141 0)"/>
     <use xlink:href="#DejaVuSans-Bold-2d" transform="translate(678.429688 0)"/>
     <use xlink:href="#DejaVuSans-Bold-32" transform="translate(719.933594 0)"/>
     <use xlink:href="#DejaVuSans-Bold-33" transform="translate(789.513672 0)"/>
     <use xlink:href="#DejaVuSans-Bold-31" transform="translate(859.09375 0)"/>
     <use xlink:href="#DejaVuSans-Bold-34" transform="translate(928.673828 0)"/>
     <use xlink:href="#DejaVuSans-Bold-20" transform="translate(998.253906 0)"/>
     <use xlink:href="#DejaVuSans-Bold-40" transform="translate(1033.068359 0)"/>
     <use xlink:href="#DejaVuSans-Bold-20" transform="translate(1133.068359 0)"/>
     <use xlink:href="#DejaVuSans-Bold-32" transform="translate(1167.882812 0)"/>
     <use xlink:href="#DejaVuSans-Bold-2e" transform="translate(1237.462891 0)"/>
     <use xlink:href="#DejaVuSans-Bold-38" transform="translate(1275.451172 0)"/>
     <use xlink:href="#DejaVuSans-Bold-30" transform="translate(1345.03125 0)"/>
     <use xlink:href="#DejaVuSans-Bold-47" transform="translate(1414.611328 0)"/>
     <use xlink:href="#DejaVuSans-Bold-48" transform="translate(1496.691406 0)"/>
     <use xlink:href="#DejaVuSans-Bold-7a" transform="translate(1580.382812 0)"/>
    </g>
   </g>
   <g id="legend_1">
    <g id="patch_47">
     <path d="M 46.03875 91.536625 
L 564.921563 91.536625 
Q 566.921563 91.536625 566.921563 89.536625 
L 566.921563 60.624125 
Q 566.921563 58.624125 564.921563 58.624125 
L 46.03875 58.624125 
Q 44.03875 58.624125 44.03875 60.624125 
L 44.03875 89.536625 
Q 44.03875 91.536625 46.03875 91.536625 
z
" style="fill: #ffffff; opacity: 0.9; stroke: #cccccc; stroke-linejoin: miter"/>
    </g>
    <g id="patch_48">
     <path d="M 48.03875 70.222563 
L 68.03875 70.222563 
L 68.03875 63.222563 
L 48.03875 63.222563 
z
" style="fill: #0072b2; stroke: #ffffff; stroke-width: 0.8; stroke-linejoin: miter"/>
    </g>
    <g id="text_60">
     <!-- Baseline_SUB L1D Cache Miss Percentage -->
     <g style="fill: #262626" transform="translate(76.03875 70.222563) scale(0.1 -0.1)">
      <defs>
       <path id="DejaVuSans-42" d="M 1259 2228 
L 1259 519 
L 2272 519 
Q 2781 519 3026 730 
Q 3272 941 3272 1375 
Q 3272 1813 3026 2020 
Q 2781 2228 2272 2228 
L 1259 2228 
z
M 1259 4147 
L 1259 2741 
L 2194 2741 
Q 2656 2741 2882 2914 
Q 3109 3088 3109 3444 
Q 3109 3797 2882 3972 
Q 2656 4147 2194 4147 
L 1259 4147 
z
M 628 4666 
L 2241 4666 
Q 2963 4666 3353 4366 
Q 3744 4066 3744 3513 
Q 3744 3084 3544 2831 
Q 3344 2578 2956 2516 
Q 3422 2416 3680 2098 
Q 3938 1781 3938 1306 
Q 3938 681 3513 340 
Q 3088 0 2303 0 
L 628 0 
L 628 4666 
z
" transform="scale(0.015625)"/>
       <path id="DejaVuSans-61" d="M 2194 1759 
Q 1497 1759 1228 1600 
Q 959 1441 959 1056 
Q 959 750 1161 570 
Q 1363 391 1709 391 
Q 2188 391 2477 730 
Q 2766 1069 2766 1631 
L 2766 1759 
L 2194 1759 
z
M 3341 1997 
L 3341 0 
L 2766 0 
L 2766 531 
Q 2569 213 2275 61 
Q 1981 -91 1556 -91 
Q 1019 -91 701 211 
Q 384 513 384 1019 
Q 384 1609 779 1909 
Q 1175 2209 1959 2209 
L 2766 2209 
L 2766 2266 
Q 2766 2663 2505 2880 
Q 2244 3097 1772 3097 
Q 1472 3097 1187 3025 
Q 903 2953 641 2809 
L 641 3341 
Q 956 3463 1253 3523 
Q 1550 3584 1831 3584 
Q 2591 3584 2966 3190 
Q 3341 2797 3341 1997 
z
" transform="scale(0.015625)"/>
       <path id="DejaVuSans-73" d="M 2834 3397 
L 2834 2853 
Q 2591 2978 2328 3040 
Q 2066 3103 1784 3103 
Q 1356 3103 1142 2972 
Q 928 2841 928 2578 
Q 928 2378 1081 2264 
Q 1234 2150 1697 2047 
L 1894 2003 
Q 2506 1872 2764 1633 
Q 3022 1394 3022 966 
Q 3022 478 2636 193 
Q 2250 -91 1575 -91 
Q 1294 -91 989 -36 
Q 684 19 347 128 
L 347 722 
Q 666 556 975 473 
Q 1284 391 1588 391 
Q 1994 391 2212 530 
Q 2431 669 2431 922 
Q 2431 1156 2273 1281 
Q 2116 1406 1581 1522 
L 1381 1569 
Q 847 1681 609 1914 
Q 372 2147 372 2553 
Q 372 3047 722 3315 
Q 1072 3584 1716 3584 
Q 2034 3584 2315 3537 
Q 2597 3491 2834 3397 
z
" transform="scale(0.015625)"/>
       <path id="DejaVuSans-65" d="M 3597 1894 
L 3597 1613 
L 953 1613 
Q 991 1019 1311 708 
Q 1631 397 2203 397 
Q 2534 397 2845 478 
Q 3156 559 3463 722 
L 3463 178 
Q 3153 47 2828 -22 
Q 2503 -91 2169 -91 
Q 1331 -91 842 396 
Q 353 884 353 1716 
Q 353 2575 817 3079 
Q 1281 3584 2069 3584 
Q 2775 3584 3186 3129 
Q 3597 2675 3597 1894 
z
M 3022 2063 
Q 3016 2534 2758 2815 
Q 2500 3097 2075 3097 
Q 1594 3097 1305 2825 
Q 1016 2553 972 2059 
L 3022 2063 
z
" transform="scale(0.015625)"/>
       <path id="DejaVuSans-6c" d="M 603 4863 
L 1178 4863 
L 1178 0 
L 603 0 
L 603 4863 
z
" transform="scale(0.015625)"/>
       <path id="DejaVuSans-69" d="M 603 3500 
L 1178 3500 
L 1178 0 
L 603 0 
L 603 3500 
z
M 603 4863 
L 1178 4863 
L 1178 4134 
L 603 4134 
L 603 4863 
z
" transform="scale(0.015625)"/>
       <path id="DejaVuSans-6e" d="M 3513 2113 
L 3513 0 
L 2938 0 
L 2938 2094 
Q 2938 2591 2744 2837 
Q 2550 3084 2163 3084 
Q 1697 3084 1428 2787 
Q 1159 2491 1159 1978 
L 1159 0 
L 581 0 
L 581 3500 
L 1159 3500 
L 1159 2956 
Q 1366 3272 1645 3428 
Q 1925 3584 2291 3584 
Q 2894 3584 3203 3211 
Q 3513 2838 3513 2113 
z
" transform="scale(0.015625)"/>
       <path id="DejaVuSans-5f" d="M 3263 -1063 
L 3263 -1509 
L -63 -1509 
L -63 -1063 
L 3263 -1063 
z
" transform="scale(0.015625)"/>
       <path id="DejaVuSans-53" d="M 3425 4513 
L 3425 3897 
Q 3066 4069 2747 4153 
Q 2428 4238 2131 4238 
Q 1616 4238 1336 4038 
Q 1056 3838 1056 3469 
Q 1056 3159 1242 3001 
Q 1428 2844 1947 2747 
L 2328 2669 
Q 3034 2534 3370 2195 
Q 3706 1856 3706 1288 
Q 3706 609 3251 259 
Q 2797 -91 1919 -91 
Q 1588 -91 1214 -16 
Q 841 59 441 206 
L 441 856 
Q 825 641 1194 531 
Q 1563 422 1919 422 
Q 2459 422 2753 634 
Q 3047 847 3047 1241 
Q 3047 1584 2836 1778 
Q 2625 1972 2144 2069 
L 1759 2144 
Q 1053 2284 737 2584 
Q 422 2884 422 3419 
Q 422 4038 858 4394 
Q 1294 4750 2059 4750 
Q 2388 4750 2728 4690 
Q 3069 4631 3425 4513 
z
" transform="scale(0.015625)"/>
       <path id="DejaVuSans-55" d="M 556 4666 
L 1191 4666 
L 1191 1831 
Q 1191 1081 1462 751 
Q 1734 422 2344 422 
Q 2950 422 3222 751 
Q 3494 1081 3494 1831 
L 3494 4666 
L 4128 4666 
L 4128 1753 
Q 4128 841 3676 375 
Q 3225 -91 2344 -91 
Q 1459 -91 1007 375 
Q 556 841 556 1753 
L 556 4666 
z
" transform="scale(0.015625)"/>
       <path id="DejaVuSans-20" transform="scale(0.015625)"/>
       <path id="DejaVuSans-4c" d="M 628 4666 
L 1259 4666 
L 1259 531 
L 3531 531 
L 3531 0 
L 628 0 
L 628 4666 
z
" transform="scale(0.015625)"/>
       <path id="DejaVuSans-44" d="M 1259 4147 
L 1259 519 
L 2022 519 
Q 2988 519 3436 956 
Q 3884 1394 3884 2338 
Q 3884 3275 3436 3711 
Q 2988 4147 2022 4147 
L 1259 4147 
z
M 628 4666 
L 1925 4666 
Q 3281 4666 3915 4102 
Q 4550 3538 4550 2338 
Q 4550 1131 3912 565 
Q 3275 0 1925 0 
L 628 0 
L 628 4666 
z
" transform="scale(0.015625)"/>
       <path id="DejaVuSans-43" d="M 4122 4306 
L 4122 3641 
Q 3803 3938 3442 4084 
Q 3081 4231 2675 4231 
Q 1875 4231 1450 3742 
Q 1025 3253 1025 2328 
Q 1025 1406 1450 917 
Q 1875 428 2675 428 
Q 3081 428 3442 575 
Q 3803 722 4122 1019 
L 4122 359 
Q 3791 134 3420 21 
Q 3050 -91 2638 -91 
Q 1578 -91 968 557 
Q 359 1206 359 2328 
Q 359 3453 968 4101 
Q 1578 4750 2638 4750 
Q 3056 4750 3426 4639 
Q 3797 4528 4122 4306 
z
" transform="scale(0.015625)"/>
       <path id="DejaVuSans-63" d="M 3122 3366 
L 3122 2828 
Q 2878 2963 2633 3030 
Q 2388 3097 2138 3097 
Q 1578 3097 1268 2742 
Q 959 2388 959 1747 
Q 959 1106 1268 751 
Q 1578 397 2138 397 
Q 2388 397 2633 464 
Q 2878 531 3122 666 
L 3122 134 
Q 2881 22 2623 -34 
Q 2366 -91 2075 -91 
Q 1284 -91 818 406 
Q 353 903 353 1747 
Q 353 2603 823 3093 
Q 1294 3584 2113 3584 
Q 2378 3584 2631 3529 
Q 2884 3475 3122 3366 
z
" transform="scale(0.015625)"/>
       <path id="DejaVuSans-68" d="M 3513 2113 
L 3513 0 
L 2938 0 
L 2938 2094 
Q 2938 2591 2744 2837 
Q 2550 3084 2163 3084 
Q 1697 3084 1428 2787 
Q 1159 2491 1159 1978 
L 1159 0 
L 581 0 
L 581 4863 
L 1159 4863 
L 1159 2956 
Q 1366 3272 1645 3428 
Q 1925 3584 2291 3584 
Q 2894 3584 3203 3211 
Q 3513 2838 3513 2113 
z
" transform="scale(0.015625)"/>
       <path id="DejaVuSans-4d" d="M 628 4666 
L 1569 4666 
L 2759 1491 
L 3956 4666 
L 4897 4666 
L 4897 0 
L 4281 0 
L 4281 4097 
L 3078 897 
L 2444 897 
L 1241 4097 
L 1241 0 
L 628 0 
L 628 4666 
z
" transform="scale(0.015625)"/>
       <path id="DejaVuSans-50" d="M 1259 4147 
L 1259 2394 
L 2053 2394 
Q 2494 2394 2734 2622 
Q 2975 2850 2975 3272 
Q 2975 3691 2734 3919 
Q 2494 4147 2053 4147 
L 1259 4147 
z
M 628 4666 
L 2053 4666 
Q 2838 4666 3239 4311 
Q 3641 3956 3641 3272 
Q 3641 2581 3239 2228 
Q 2838 1875 2053 1875 
L 1259 1875 
L 1259 0 
L 628 0 
L 628 4666 
z
" transform="scale(0.015625)"/>
       <path id="DejaVuSans-72" d="M 2631 2963 
Q 2534 3019 2420 3045 
Q 2306 3072 2169 3072 
Q 1681 3072 1420 2755 
Q 1159 2438 1159 1844 
L 1159 0 
L 581 0 
L 581 3500 
L 1159 3500 
L 1159 2956 
Q 1341 3275 1631 3429 
Q 1922 3584 2338 3584 
Q 2397 3584 2469 3576 
Q 2541 3569 2628 3553 
L 2631 2963 
z
" transform="scale(0.015625)"/>
       <path id="DejaVuSans-74" d="M 1172 4494 
L 1172 3500 
L 2356 3500 
L 2356 3053 
L 1172 3053 
L 1172 1153 
Q 1172 725 1289 603 
Q 1406 481 1766 481 
L 2356 481 
L 2356 0 
L 1766 0 
Q 1100 0 847 248 
Q 594 497 594 1153 
L 594 3053 
L 172 3053 
L 172 3500 
L 594 3500 
L 594 4494 
L 1172 4494 
z
" transform="scale(0.015625)"/>
       <path id="DejaVuSans-67" d="M 2906 1791 
Q 2906 2416 2648 2759 
Q 2391 3103 1925 3103 
Q 1463 3103 1205 2759 
Q 947 2416 947 1791 
Q 947 1169 1205 825 
Q 1463 481 1925 481 
Q 2391 481 2648 825 
Q 2906 1169 2906 1791 
z
M 3481 434 
Q 3481 -459 3084 -895 
Q 2688 -1331 1869 -1331 
Q 1566 -1331 1297 -1286 
Q 1028 -1241 775 -1147 
L 775 -588 
Q 1028 -725 1275 -790 
Q 1522 -856 1778 -856 
Q 2344 -856 2625 -561 
Q 2906 -266 2906 331 
L 2906 616 
Q 2728 306 2450 153 
Q 2172 0 1784 0 
Q 1141 0 747 490 
Q 353 981 353 1791 
Q 353 2603 747 3093 
Q 1141 3584 1784 3584 
Q 2172 3584 2450 3431 
Q 2728 3278 2906 2969 
L 2906 3500 
L 3481 3500 
L 3481 434 
z
" transform="scale(0.015625)"/>
      </defs>
      <use xlink:href="#DejaVuSans-42"/>
      <use xlink:href="#DejaVuSans-61" transform="translate(68.603516 0)"/>
      <use xlink:href="#DejaVuSans-73" transform="translate(129.882812 0)"/>
      <use xlink:href="#DejaVuSans-65" transform="translate(181.982422 0)"/>
      <use xlink:href="#DejaVuSans-6c" transform="translate(243.505859 0)"/>
      <use xlink:href="#DejaVuSans-69" transform="translate(271.289062 0)"/>
      <use xlink:href="#DejaVuSans-6e" transform="translate(299.072266 0)"/>
      <use xlink:href="#DejaVuSans-65" transform="translate(362.451172 0)"/>
      <use xlink:href="#DejaVuSans-5f" transform="translate(423.974609 0)"/>
      <use xlink:href="#DejaVuSans-53" transform="translate(473.974609 0)"/>
      <use xlink:href="#DejaVuSans-55" transform="translate(537.451172 0)"/>
      <use xlink:href="#DejaVuSans-42" transform="translate(610.644531 0)"/>
      <use xlink:href="#DejaVuSans-20" transform="translate(679.248047 0)"/>
      <use xlink:href="#DejaVuSans-4c" transform="translate(711.035156 0)"/>
      <use xlink:href="#DejaVuSans-31" transform="translate(766.748047 0)"/>
      <use xlink:href="#DejaVuSans-44" transform="translate(830.371094 0)"/>
      <use xlink:href="#DejaVuSans-20" transform="translate(907.373047 0)"/>
      <use xlink:href="#DejaVuSans-43" transform="translate(939.160156 0)"/>
      <use xlink:href="#DejaVuSans-61" transform="translate(1008.984375 0)"/>
      <use xlink:href="#DejaVuSans-63" transform="translate(1070.263672 0)"/>
      <use xlink:href="#DejaVuSans-68" transform="translate(1125.244141 0)"/>
      <use xlink:href="#DejaVuSans-65" transform="translate(1188.623047 0)"/>
      <use xlink:href="#DejaVuSans-20" transform="translate(1250.146484 0)"/>
      <use xlink:href="#DejaVuSans-4d" transform="translate(1281.933594 0)"/>
      <use xlink:href="#DejaVuSans-69" transform="translate(1368.212891 0)"/>
      <use xlink:href="#DejaVuSans-73" transform="translate(1395.996094 0)"/>
      <use xlink:href="#DejaVuSans-73" transform="translate(1448.095703 0)"/>
      <use xlink:href="#DejaVuSans-20" transform="translate(1500.195312 0)"/>
      <use xlink:href="#DejaVuSans-50" transform="translate(1531.982422 0)"/>
      <use xlink:href="#DejaVuSans-65" transform="translate(1588.660156 0)"/>
      <use xlink:href="#DejaVuSans-72" transform="translate(1650.183594 0)"/>
      <use xlink:href="#DejaVuSans-63" transform="translate(1689.046875 0)"/>
      <use xlink:href="#DejaVuSans-65" transform="translate(1744.027344 0)"/>
      <use xlink:href="#DejaVuSans-6e" transform="translate(1805.550781 0)"/>
      <use xlink:href="#DejaVuSans-74" transform="translate(1868.929688 0)"/>
      <use xlink:href="#DejaVuSans-61" transform="translate(1908.138672 0)"/>
      <use xlink:href="#DejaVuSans-67" transform="translate(1969.417969 0)"/>
      <use xlink:href="#DejaVuSans-65" transform="translate(2032.894531 0)"/>
     </g>
    </g>
    <g id="patch_49">
     <path d="M 48.03875 85.178813 
L 68.03875 85.178813 
L 68.03875 78.178813 
L 48.03875 78.178813 
z
" style="fill: #d55e00; stroke: #ffffff; stroke-width: 0.8; stroke-linejoin: miter"/>
    </g>
    <g id="text_61">
     <!-- GMP_SUB L1D Cache Miss Percentage -->
     <g style="fill: #262626" transform="translate(76.03875 85.178813) scale(0.1 -0.1)">
      <defs>
       <path id="DejaVuSans-47" d="M 3809 666 
L 3809 1919 
L 2778 1919 
L 2778 2438 
L 4434 2438 
L 4434 434 
Q 4069 175 3628 42 
Q 3188 -91 2688 -91 
Q 1594 -91 976 548 
Q 359 1188 359 2328 
Q 359 3472 976 4111 
Q 1594 4750 2688 4750 
Q 3144 4750 3555 4637 
Q 3966 4525 4313 4306 
L 4313 3634 
Q 3963 3931 3569 4081 
Q 3175 4231 2741 4231 
Q 1884 4231 1454 3753 
Q 1025 3275 1025 2328 
Q 1025 1384 1454 906 
Q 1884 428 2741 428 
Q 3075 428 3337 486 
Q 3600 544 3809 666 
z
" transform="scale(0.015625)"/>
      </defs>
      <use xlink:href="#DejaVuSans-47"/>
      <use xlink:href="#DejaVuSans-4d" transform="translate(77.490234 0)"/>
      <use xlink:href="#DejaVuSans-50" transform="translate(163.769531 0)"/>
      <use xlink:href="#DejaVuSans-5f" transform="translate(224.072266 0)"/>
      <use xlink:href="#DejaVuSans-53" transform="translate(274.072266 0)"/>
      <use xlink:href="#DejaVuSans-55" transform="translate(337.548828 0)"/>
      <use xlink:href="#DejaVuSans-42" transform="translate(410.742188 0)"/>
      <use xlink:href="#DejaVuSans-20" transform="translate(479.345703 0)"/>
      <use xlink:href="#DejaVuSans-4c" transform="translate(511.132812 0)"/>
      <use xlink:href="#DejaVuSans-31" transform="translate(566.845703 0)"/>
      <use xlink:href="#DejaVuSans-44" transform="translate(630.46875 0)"/>
      <use xlink:href="#DejaVuSans-20" transform="translate(707.470703 0)"/>
      <use xlink:href="#DejaVuSans-43" transform="translate(739.257812 0)"/>
      <use xlink:href="#DejaVuSans-61" transform="translate(809.082031 0)"/>
      <use xlink:href="#DejaVuSans-63" transform="translate(870.361328 0)"/>
      <use xlink:href="#DejaVuSans-68" transform="translate(925.341797 0)"/>
      <use xlink:href="#DejaVuSans-65" transform="translate(988.720703 0)"/>
      <use xlink:href="#DejaVuSans-20" transform="translate(1050.244141 0)"/>
      <use xlink:href="#DejaVuSans-4d" transform="translate(1082.03125 0)"/>
      <use xlink:href="#DejaVuSans-69" transform="translate(1168.310547 0)"/>
      <use xlink:href="#DejaVuSans-73" transform="translate(1196.09375 0)"/>
      <use xlink:href="#DejaVuSans-73" transform="translate(1248.193359 0)"/>
      <use xlink:href="#DejaVuSans-20" transform="translate(1300.292969 0)"/>
      <use xlink:href="#DejaVuSans-50" transform="translate(1332.080078 0)"/>
      <use xlink:href="#DejaVuSans-65" transform="translate(1388.757812 0)"/>
      <use xlink:href="#DejaVuSans-72" transform="translate(1450.28125 0)"/>
      <use xlink:href="#DejaVuSans-63" transform="translate(1489.144531 0)"/>
      <use xlink:href="#DejaVuSans-65" transform="translate(1544.125 0)"/>
      <use xlink:href="#DejaVuSans-6e" transform="translate(1605.648438 0)"/>
      <use xlink:href="#DejaVuSans-74" transform="translate(1669.027344 0)"/>
      <use xlink:href="#DejaVuSans-61" transform="translate(1708.236328 0)"/>
      <use xlink:href="#DejaVuSans-67" transform="translate(1769.515625 0)"/>
      <use xlink:href="#DejaVuSans-65" transform="translate(1832.992188 0)"/>
     </g>
    </g>
    <g id="patch_50">
     <path d="M 305.4825 70.222563 
L 325.4825 70.222563 
L 325.4825 63.222563 
L 305.4825 63.222563 
z
" style="fill: #8cd17d; stroke: #ffffff; stroke-width: 0.8; stroke-linejoin: miter"/>
    </g>
    <g id="text_62">
     <!-- PML_SUB_WORST L1D Cache Miss Percentage -->
     <g style="fill: #262626" transform="translate(333.4825 70.222563) scale(0.1 -0.1)">
      <defs>
       <path id="DejaVuSans-57" d="M 213 4666 
L 850 4666 
L 1831 722 
L 2809 4666 
L 3519 4666 
L 4500 722 
L 5478 4666 
L 6119 4666 
L 4947 0 
L 4153 0 
L 3169 4050 
L 2175 0 
L 1381 0 
L 213 4666 
z
" transform="scale(0.015625)"/>
       <path id="DejaVuSans-4f" d="M 2522 4238 
Q 1834 4238 1429 3725 
Q 1025 3213 1025 2328 
Q 1025 1447 1429 934 
Q 1834 422 2522 422 
Q 3209 422 3611 934 
Q 4013 1447 4013 2328 
Q 4013 3213 3611 3725 
Q 3209 4238 2522 4238 
z
M 2522 4750 
Q 3503 4750 4090 4092 
Q 4678 3434 4678 2328 
Q 4678 1225 4090 567 
Q 3503 -91 2522 -91 
Q 1538 -91 948 565 
Q 359 1222 359 2328 
Q 359 3434 948 4092 
Q 1538 4750 2522 4750 
z
" transform="scale(0.015625)"/>
       <path id="DejaVuSans-52" d="M 2841 2188 
Q 3044 2119 3236 1894 
Q 3428 1669 3622 1275 
L 4263 0 
L 3584 0 
L 2988 1197 
Q 2756 1666 2539 1819 
Q 2322 1972 1947 1972 
L 1259 1972 
L 1259 0 
L 628 0 
L 628 4666 
L 2053 4666 
Q 2853 4666 3247 4331 
Q 3641 3997 3641 3322 
Q 3641 2881 3436 2590 
Q 3231 2300 2841 2188 
z
M 1259 4147 
L 1259 2491 
L 2053 2491 
Q 2509 2491 2742 2702 
Q 2975 2913 2975 3322 
Q 2975 3731 2742 3939 
Q 2509 4147 2053 4147 
L 1259 4147 
z
" transform="scale(0.015625)"/>
       <path id="DejaVuSans-54" d="M -19 4666 
L 3928 4666 
L 3928 4134 
L 2272 4134 
L 2272 0 
L 1638 0 
L 1638 4134 
L -19 4134 
L -19 4666 
z
" transform="scale(0.015625)"/>
      </defs>
      <use xlink:href="#DejaVuSans-50"/>
      <use xlink:href="#DejaVuSans-4d" transform="translate(60.302734 0)"/>
      <use xlink:href="#DejaVuSans-4c" transform="translate(146.582031 0)"/>
      <use xlink:href="#DejaVuSans-5f" transform="translate(202.294922 0)"/>
      <use xlink:href="#DejaVuSans-53" transform="translate(252.294922 0)"/>
      <use xlink:href="#DejaVuSans-55" transform="translate(315.771484 0)"/>
      <use xlink:href="#DejaVuSans-42" transform="translate(388.964844 0)"/>
      <use xlink:href="#DejaVuSans-5f" transform="translate(457.568359 0)"/>
      <use xlink:href="#DejaVuSans-57" transform="translate(507.568359 0)"/>
      <use xlink:href="#DejaVuSans-4f" transform="translate(606.445312 0)"/>
      <use xlink:href="#DejaVuSans-52" transform="translate(685.15625 0)"/>
      <use xlink:href="#DejaVuSans-53" transform="translate(754.638672 0)"/>
      <use xlink:href="#DejaVuSans-54" transform="translate(818.115234 0)"/>
      <use xlink:href="#DejaVuSans-20" transform="translate(879.199219 0)"/>
      <use xlink:href="#DejaVuSans-4c" transform="translate(910.986328 0)"/>
      <use xlink:href="#DejaVuSans-31" transform="translate(966.699219 0)"/>
      <use xlink:href="#DejaVuSans-44" transform="translate(1030.322266 0)"/>
      <use xlink:href="#DejaVuSans-20" transform="translate(1107.324219 0)"/>
      <use xlink:href="#DejaVuSans-43" transform="translate(1139.111328 0)"/>
      <use xlink:href="#DejaVuSans-61" transform="translate(1208.935547 0)"/>
      <use xlink:href="#DejaVuSans-63" transform="translate(1270.214844 0)"/>
      <use xlink:href="#DejaVuSans-68" transform="translate(1325.195312 0)"/>
      <use xlink:href="#DejaVuSans-65" transform="translate(1388.574219 0)"/>
      <use xlink:href="#DejaVuSans-20" transform="translate(1450.097656 0)"/>
      <use xlink:href="#DejaVuSans-4d" transform="translate(1481.884766 0)"/>
      <use xlink:href="#DejaVuSans-69" transform="translate(1568.164062 0)"/>
      <use xlink:href="#DejaVuSans-73" transform="translate(1595.947266 0)"/>
      <use xlink:href="#DejaVuSans-73" transform="translate(1648.046875 0)"/>
      <use xlink:href="#DejaVuSans-20" transform="translate(1700.146484 0)"/>
      <use xlink:href="#DejaVuSans-50" transform="translate(1731.933594 0)"/>
      <use xlink:href="#DejaVuSans-65" transform="translate(1788.611328 0)"/>
      <use xlink:href="#DejaVuSans-72" transform="translate(1850.134766 0)"/>
      <use xlink:href="#DejaVuSans-63" transform="translate(1888.998047 0)"/>
      <use xlink:href="#DejaVuSans-65" transform="translate(1943.978516 0)"/>
      <use xlink:href="#DejaVuSans-6e" transform="translate(2005.501953 0)"/>
      <use xlink:href="#DejaVuSans-74" transform="translate(2068.880859 0)"/>
      <use xlink:href="#DejaVuSans-61" transform="translate(2108.089844 0)"/>
      <use xlink:href="#DejaVuSans-67" transform="translate(2169.369141 0)"/>
      <use xlink:href="#DejaVuSans-65" transform="translate(2232.845703 0)"/>
     </g>
    </g>
    <g id="patch_51">
     <path d="M 305.4825 85.178813 
L 325.4825 85.178813 
L 325.4825 78.178813 
L 305.4825 78.178813 
z
" style="fill: #009e73; stroke: #ffffff; stroke-width: 0.8; stroke-linejoin: miter"/>
    </g>
    <g id="text_63">
     <!-- PML_SUB L1D Cache Miss Percentage -->
     <g style="fill: #262626" transform="translate(333.4825 85.178813) scale(0.1 -0.1)">
      <use xlink:href="#DejaVuSans-50"/>
      <use xlink:href="#DejaVuSans-4d" transform="translate(60.302734 0)"/>
      <use xlink:href="#DejaVuSans-4c" transform="translate(146.582031 0)"/>
      <use xlink:href="#DejaVuSans-5f" transform="translate(202.294922 0)"/>
      <use xlink:href="#DejaVuSans-53" transform="translate(252.294922 0)"/>
      <use xlink:href="#DejaVuSans-55" transform="translate(315.771484 0)"/>
      <use xlink:href="#DejaVuSans-42" transform="translate(388.964844 0)"/>
      <use xlink:href="#DejaVuSans-20" transform="translate(457.568359 0)"/>
      <use xlink:href="#DejaVuSans-4c" transform="translate(489.355469 0)"/>
      <use xlink:href="#DejaVuSans-31" transform="translate(545.068359 0)"/>
      <use xlink:href="#DejaVuSans-44" transform="translate(608.691406 0)"/>
      <use xlink:href="#DejaVuSans-20" transform="translate(685.693359 0)"/>
      <use xlink:href="#DejaVuSans-43" transform="translate(717.480469 0)"/>
      <use xlink:href="#DejaVuSans-61" transform="translate(787.304688 0)"/>
      <use xlink:href="#DejaVuSans-63" transform="translate(848.583984 0)"/>
      <use xlink:href="#DejaVuSans-68" transform="translate(903.564453 0)"/>
      <use xlink:href="#DejaVuSans-65" transform="translate(966.943359 0)"/>
      <use xlink:href="#DejaVuSans-20" transform="translate(1028.466797 0)"/>
      <use xlink:href="#DejaVuSans-4d" transform="translate(1060.253906 0)"/>
      <use xlink:href="#DejaVuSans-69" transform="translate(1146.533203 0)"/>
      <use xlink:href="#DejaVuSans-73" transform="translate(1174.316406 0)"/>
      <use xlink:href="#DejaVuSans-73" transform="translate(1226.416016 0)"/>
      <use xlink:href="#DejaVuSans-20" transform="translate(1278.515625 0)"/>
      <use xlink:href="#DejaVuSans-50" transform="translate(1310.302734 0)"/>
      <use xlink:href="#DejaVuSans-65" transform="translate(1366.980469 0)"/>
      <use xlink:href="#DejaVuSans-72" transform="translate(1428.503906 0)"/>
      <use xlink:href="#DejaVuSans-63" transform="translate(1467.367188 0)"/>
      <use xlink:href="#DejaVuSans-65" transform="translate(1522.347656 0)"/>
      <use xlink:href="#DejaVuSans-6e" transform="translate(1583.871094 0)"/>
      <use xlink:href="#DejaVuSans-74" transform="translate(1647.25 0)"/>
      <use xlink:href="#DejaVuSans-61" transform="translate(1686.458984 0)"/>
      <use xlink:href="#DejaVuSans-67" transform="translate(1747.738281 0)"/>
      <use xlink:href="#DejaVuSans-65" transform="translate(1811.214844 0)"/>
     </g>
    </g>
   </g>
  </g>
 </g>
 <defs>
  <clipPath id="p0f94e6ca57">
   <rect x="39.03875" y="53.624125" width="936.23" height="433.704798"/>
  </clipPath>
 </defs>
</svg>
