<?xml version="1.0" encoding="utf-8" standalone="no"?>
<!DOCTYPE svg PUBLIC "-//W3C//DTD SVG 1.1//EN"
  "http://www.w3.org/Graphics/SVG/1.1/DTD/svg11.dtd">
<svg xmlns:xlink="http://www.w3.org/1999/xlink" width="982.47375pt" height="549.896264pt" viewBox="0 0 982.47375 549.896264" xmlns="http://www.w3.org/2000/svg" version="1.1">
 <metadata>
  <rdf:RDF xmlns:dc="http://purl.org/dc/elements/1.1/" xmlns:cc="http://creativecommons.org/ns#" xmlns:rdf="http://www.w3.org/1999/02/22-rdf-syntax-ns#">
   <cc:Work>
    <dc:type rdf:resource="http://purl.org/dc/dcmitype/StillImage"/>
    <dc:date>2025-04-05T01:45:12.486652</dc:date>
    <dc:format>image/svg+xml</dc:format>
    <dc:creator>
     <cc:Agent>
      <dc:title>Matplotlib v3.10.0, https://matplotlib.org/</dc:title>
     </cc:Agent>
    </dc:creator>
   </cc:Work>
  </rdf:RDF>
 </metadata>
 <defs>
  <style type="text/css">*{stroke-linejoin: round; stroke-linecap: butt}</style>
 </defs>
 <g id="figure_1">
  <g id="patch_1">
   <path d="M 0 549.896264 
L 982.47375 549.896264 
L 982.47375 0 
L 0 0 
z
" style="fill: #ffffff"/>
  </g>
  <g id="axes_1">
   <g id="patch_2">
    <path d="M 51.76375 487.219548 
L 975.27375 487.219548 
L 975.27375 53.51475 
L 51.76375 53.51475 
z
" style="fill: #ffffff"/>
   </g>
   <g id="matplotlib.axis_1">
    <g id="xtick_1">
     <g id="line2d_1">
      <path d="M 131.903048 487.219548 
L 131.903048 53.51475 
" clip-path="url(#p98fd44f439)" style="fill: none; stroke-dasharray: 2.96,1.28; stroke-dashoffset: 0; stroke: #cccccc; stroke-opacity: 0.3; stroke-width: 0.8"/>
     </g>
     <g id="line2d_2"/>
     <g id="text_1">
      <!-- 256 -->
      <g style="fill: #262626" transform="translate(126.474346 510.852204) rotate(-45) scale(0.1 -0.1)">
       <defs>
        <path id="DejaVuSans-Bold-32" d="M 1844 884 
L 3897 884 
L 3897 0 
L 506 0 
L 506 884 
L 2209 2388 
Q 2438 2594 2547 2791 
Q 2656 2988 2656 3200 
Q 2656 3528 2436 3728 
Q 2216 3928 1850 3928 
Q 1569 3928 1234 3808 
Q 900 3688 519 3450 
L 519 4475 
Q 925 4609 1322 4679 
Q 1719 4750 2100 4750 
Q 2938 4750 3402 4381 
Q 3866 4013 3866 3353 
Q 3866 2972 3669 2642 
Q 3472 2313 2841 1759 
L 1844 884 
z
" transform="scale(0.015625)"/>
        <path id="DejaVuSans-Bold-35" d="M 678 4666 
L 3669 4666 
L 3669 3781 
L 1638 3781 
L 1638 3059 
Q 1775 3097 1914 3117 
Q 2053 3138 2203 3138 
Q 3056 3138 3531 2711 
Q 4006 2284 4006 1522 
Q 4006 766 3489 337 
Q 2972 -91 2053 -91 
Q 1656 -91 1267 -14 
Q 878 63 494 219 
L 494 1166 
Q 875 947 1217 837 
Q 1559 728 1863 728 
Q 2300 728 2551 942 
Q 2803 1156 2803 1522 
Q 2803 1891 2551 2103 
Q 2300 2316 1863 2316 
Q 1603 2316 1309 2248 
Q 1016 2181 678 2041 
L 678 4666 
z
" transform="scale(0.015625)"/>
        <path id="DejaVuSans-Bold-36" d="M 2316 2303 
Q 2000 2303 1842 2098 
Q 1684 1894 1684 1484 
Q 1684 1075 1842 870 
Q 2000 666 2316 666 
Q 2634 666 2792 870 
Q 2950 1075 2950 1484 
Q 2950 1894 2792 2098 
Q 2634 2303 2316 2303 
z
M 3803 4544 
L 3803 3681 
Q 3506 3822 3243 3889 
Q 2981 3956 2731 3956 
Q 2194 3956 1894 3657 
Q 1594 3359 1544 2772 
Q 1750 2925 1990 3001 
Q 2231 3078 2516 3078 
Q 3231 3078 3670 2659 
Q 4109 2241 4109 1563 
Q 4109 813 3618 361 
Q 3128 -91 2303 -91 
Q 1394 -91 895 523 
Q 397 1138 397 2266 
Q 397 3422 980 4083 
Q 1563 4744 2578 4744 
Q 2900 4744 3203 4694 
Q 3506 4644 3803 4544 
z
" transform="scale(0.015625)"/>
       </defs>
       <use xlink:href="#DejaVuSans-Bold-32"/>
       <use xlink:href="#DejaVuSans-Bold-35" transform="translate(69.580078 0)"/>
       <use xlink:href="#DejaVuSans-Bold-36" transform="translate(139.160156 0)"/>
      </g>
     </g>
    </g>
    <g id="xtick_2">
     <g id="line2d_3">
      <path d="M 216.706537 487.219548 
L 216.706537 53.51475 
" clip-path="url(#p98fd44f439)" style="fill: none; stroke-dasharray: 2.96,1.28; stroke-dashoffset: 0; stroke: #cccccc; stroke-opacity: 0.3; stroke-width: 0.8"/>
     </g>
     <g id="line2d_4"/>
     <g id="text_2">
      <!-- 512 -->
      <g style="fill: #262626" transform="translate(211.277835 510.852204) rotate(-45) scale(0.1 -0.1)">
       <defs>
        <path id="DejaVuSans-Bold-31" d="M 750 831 
L 1813 831 
L 1813 3847 
L 722 3622 
L 722 4441 
L 1806 4666 
L 2950 4666 
L 2950 831 
L 4013 831 
L 4013 0 
L 750 0 
L 750 831 
z
" transform="scale(0.015625)"/>
       </defs>
       <use xlink:href="#DejaVuSans-Bold-35"/>
       <use xlink:href="#DejaVuSans-Bold-31" transform="translate(69.580078 0)"/>
       <use xlink:href="#DejaVuSans-Bold-32" transform="translate(139.160156 0)"/>
      </g>
     </g>
    </g>
    <g id="xtick_3">
     <g id="line2d_5">
      <path d="M 301.510026 487.219548 
L 301.510026 53.51475 
" clip-path="url(#p98fd44f439)" style="fill: none; stroke-dasharray: 2.96,1.28; stroke-dashoffset: 0; stroke: #cccccc; stroke-opacity: 0.3; stroke-width: 0.8"/>
     </g>
     <g id="line2d_6"/>
     <g id="text_3">
      <!-- 1024 -->
      <g style="fill: #262626" transform="translate(293.621366 515.77212) rotate(-45) scale(0.1 -0.1)">
       <defs>
        <path id="DejaVuSans-Bold-30" d="M 2944 2338 
Q 2944 3213 2780 3570 
Q 2616 3928 2228 3928 
Q 1841 3928 1675 3570 
Q 1509 3213 1509 2338 
Q 1509 1453 1675 1090 
Q 1841 728 2228 728 
Q 2613 728 2778 1090 
Q 2944 1453 2944 2338 
z
M 4147 2328 
Q 4147 1169 3647 539 
Q 3147 -91 2228 -91 
Q 1306 -91 806 539 
Q 306 1169 306 2328 
Q 306 3491 806 4120 
Q 1306 4750 2228 4750 
Q 3147 4750 3647 4120 
Q 4147 3491 4147 2328 
z
" transform="scale(0.015625)"/>
        <path id="DejaVuSans-Bold-34" d="M 2356 3675 
L 1038 1722 
L 2356 1722 
L 2356 3675 
z
M 2156 4666 
L 3494 4666 
L 3494 1722 
L 4159 1722 
L 4159 850 
L 3494 850 
L 3494 0 
L 2356 0 
L 2356 850 
L 288 850 
L 288 1881 
L 2156 4666 
z
" transform="scale(0.015625)"/>
       </defs>
       <use xlink:href="#DejaVuSans-Bold-31"/>
       <use xlink:href="#DejaVuSans-Bold-30" transform="translate(69.580078 0)"/>
       <use xlink:href="#DejaVuSans-Bold-32" transform="translate(139.160156 0)"/>
       <use xlink:href="#DejaVuSans-Bold-34" transform="translate(208.740234 0)"/>
      </g>
     </g>
    </g>
    <g id="xtick_4">
     <g id="line2d_7">
      <path d="M 386.313516 487.219548 
L 386.313516 53.51475 
" clip-path="url(#p98fd44f439)" style="fill: none; stroke-dasharray: 2.96,1.28; stroke-dashoffset: 0; stroke: #cccccc; stroke-opacity: 0.3; stroke-width: 0.8"/>
     </g>
     <g id="line2d_8"/>
     <g id="text_4">
      <!-- 2048 -->
      <g style="fill: #262626" transform="translate(378.424856 515.77212) rotate(-45) scale(0.1 -0.1)">
       <defs>
        <path id="DejaVuSans-Bold-38" d="M 2228 2088 
Q 1891 2088 1709 1903 
Q 1528 1719 1528 1375 
Q 1528 1031 1709 848 
Q 1891 666 2228 666 
Q 2563 666 2741 848 
Q 2919 1031 2919 1375 
Q 2919 1722 2741 1905 
Q 2563 2088 2228 2088 
z
M 1350 2484 
Q 925 2613 709 2878 
Q 494 3144 494 3541 
Q 494 4131 934 4440 
Q 1375 4750 2228 4750 
Q 3075 4750 3515 4442 
Q 3956 4134 3956 3541 
Q 3956 3144 3739 2878 
Q 3522 2613 3097 2484 
Q 3572 2353 3814 2058 
Q 4056 1763 4056 1313 
Q 4056 619 3595 264 
Q 3134 -91 2228 -91 
Q 1319 -91 855 264 
Q 391 619 391 1313 
Q 391 1763 633 2058 
Q 875 2353 1350 2484 
z
M 1631 3419 
Q 1631 3141 1786 2991 
Q 1941 2841 2228 2841 
Q 2509 2841 2662 2991 
Q 2816 3141 2816 3419 
Q 2816 3697 2662 3845 
Q 2509 3994 2228 3994 
Q 1941 3994 1786 3844 
Q 1631 3694 1631 3419 
z
" transform="scale(0.015625)"/>
       </defs>
       <use xlink:href="#DejaVuSans-Bold-32"/>
       <use xlink:href="#DejaVuSans-Bold-30" transform="translate(69.580078 0)"/>
       <use xlink:href="#DejaVuSans-Bold-34" transform="translate(139.160156 0)"/>
       <use xlink:href="#DejaVuSans-Bold-38" transform="translate(208.740234 0)"/>
      </g>
     </g>
    </g>
    <g id="xtick_5">
     <g id="line2d_9">
      <path d="M 471.117005 487.219548 
L 471.117005 53.51475 
" clip-path="url(#p98fd44f439)" style="fill: none; stroke-dasharray: 2.96,1.28; stroke-dashoffset: 0; stroke: #cccccc; stroke-opacity: 0.3; stroke-width: 0.8"/>
     </g>
     <g id="line2d_10"/>
     <g id="text_5">
      <!-- 4096 -->
      <g style="fill: #262626" transform="translate(463.228345 515.77212) rotate(-45) scale(0.1 -0.1)">
       <defs>
        <path id="DejaVuSans-Bold-39" d="M 641 103 
L 641 966 
Q 928 831 1190 764 
Q 1453 697 1709 697 
Q 2247 697 2547 995 
Q 2847 1294 2900 1881 
Q 2688 1725 2447 1647 
Q 2206 1569 1925 1569 
Q 1209 1569 770 1986 
Q 331 2403 331 3084 
Q 331 3838 820 4291 
Q 1309 4744 2131 4744 
Q 3044 4744 3544 4128 
Q 4044 3513 4044 2388 
Q 4044 1231 3459 570 
Q 2875 -91 1856 -91 
Q 1528 -91 1228 -42 
Q 928 6 641 103 
z
M 2125 2350 
Q 2441 2350 2600 2554 
Q 2759 2759 2759 3169 
Q 2759 3575 2600 3781 
Q 2441 3988 2125 3988 
Q 1809 3988 1650 3781 
Q 1491 3575 1491 3169 
Q 1491 2759 1650 2554 
Q 1809 2350 2125 2350 
z
" transform="scale(0.015625)"/>
       </defs>
       <use xlink:href="#DejaVuSans-Bold-34"/>
       <use xlink:href="#DejaVuSans-Bold-30" transform="translate(69.580078 0)"/>
       <use xlink:href="#DejaVuSans-Bold-39" transform="translate(139.160156 0)"/>
       <use xlink:href="#DejaVuSans-Bold-36" transform="translate(208.740234 0)"/>
      </g>
     </g>
    </g>
    <g id="xtick_6">
     <g id="line2d_11">
      <path d="M 555.920495 487.219548 
L 555.920495 53.51475 
" clip-path="url(#p98fd44f439)" style="fill: none; stroke-dasharray: 2.96,1.28; stroke-dashoffset: 0; stroke: #cccccc; stroke-opacity: 0.3; stroke-width: 0.8"/>
     </g>
     <g id="line2d_12"/>
     <g id="text_6">
      <!-- 8192 -->
      <g style="fill: #262626" transform="translate(548.031835 515.77212) rotate(-45) scale(0.1 -0.1)">
       <use xlink:href="#DejaVuSans-Bold-38"/>
       <use xlink:href="#DejaVuSans-Bold-31" transform="translate(69.580078 0)"/>
       <use xlink:href="#DejaVuSans-Bold-39" transform="translate(139.160156 0)"/>
       <use xlink:href="#DejaVuSans-Bold-32" transform="translate(208.740234 0)"/>
      </g>
     </g>
    </g>
    <g id="xtick_7">
     <g id="line2d_13">
      <path d="M 640.723984 487.219548 
L 640.723984 53.51475 
" clip-path="url(#p98fd44f439)" style="fill: none; stroke-dasharray: 2.96,1.28; stroke-dashoffset: 0; stroke: #cccccc; stroke-opacity: 0.3; stroke-width: 0.8"/>
     </g>
     <g id="line2d_14"/>
     <g id="text_7">
      <!-- 16384 -->
      <g style="fill: #262626" transform="translate(630.375366 520.692036) rotate(-45) scale(0.1 -0.1)">
       <defs>
        <path id="DejaVuSans-Bold-33" d="M 2981 2516 
Q 3453 2394 3698 2092 
Q 3944 1791 3944 1325 
Q 3944 631 3412 270 
Q 2881 -91 1863 -91 
Q 1503 -91 1142 -33 
Q 781 25 428 141 
L 428 1069 
Q 766 900 1098 814 
Q 1431 728 1753 728 
Q 2231 728 2486 893 
Q 2741 1059 2741 1369 
Q 2741 1688 2480 1852 
Q 2219 2016 1709 2016 
L 1228 2016 
L 1228 2791 
L 1734 2791 
Q 2188 2791 2409 2933 
Q 2631 3075 2631 3366 
Q 2631 3634 2415 3781 
Q 2200 3928 1806 3928 
Q 1516 3928 1219 3862 
Q 922 3797 628 3669 
L 628 4550 
Q 984 4650 1334 4700 
Q 1684 4750 2022 4750 
Q 2931 4750 3382 4451 
Q 3834 4153 3834 3553 
Q 3834 3144 3618 2883 
Q 3403 2622 2981 2516 
z
" transform="scale(0.015625)"/>
       </defs>
       <use xlink:href="#DejaVuSans-Bold-31"/>
       <use xlink:href="#DejaVuSans-Bold-36" transform="translate(69.580078 0)"/>
       <use xlink:href="#DejaVuSans-Bold-33" transform="translate(139.160156 0)"/>
       <use xlink:href="#DejaVuSans-Bold-38" transform="translate(208.740234 0)"/>
       <use xlink:href="#DejaVuSans-Bold-34" transform="translate(278.320312 0)"/>
      </g>
     </g>
    </g>
    <g id="xtick_8">
     <g id="line2d_15">
      <path d="M 725.527474 487.219548 
L 725.527474 53.51475 
" clip-path="url(#p98fd44f439)" style="fill: none; stroke-dasharray: 2.96,1.28; stroke-dashoffset: 0; stroke: #cccccc; stroke-opacity: 0.3; stroke-width: 0.8"/>
     </g>
     <g id="line2d_16"/>
     <g id="text_8">
      <!-- 32768 -->
      <g style="fill: #262626" transform="translate(715.178855 520.692036) rotate(-45) scale(0.1 -0.1)">
       <defs>
        <path id="DejaVuSans-Bold-37" d="M 428 4666 
L 3944 4666 
L 3944 3988 
L 2125 0 
L 953 0 
L 2675 3781 
L 428 3781 
L 428 4666 
z
" transform="scale(0.015625)"/>
       </defs>
       <use xlink:href="#DejaVuSans-Bold-33"/>
       <use xlink:href="#DejaVuSans-Bold-32" transform="translate(69.580078 0)"/>
       <use xlink:href="#DejaVuSans-Bold-37" transform="translate(139.160156 0)"/>
       <use xlink:href="#DejaVuSans-Bold-36" transform="translate(208.740234 0)"/>
       <use xlink:href="#DejaVuSans-Bold-38" transform="translate(278.320312 0)"/>
      </g>
     </g>
    </g>
    <g id="xtick_9">
     <g id="line2d_17">
      <path d="M 810.330963 487.219548 
L 810.330963 53.51475 
" clip-path="url(#p98fd44f439)" style="fill: none; stroke-dasharray: 2.96,1.28; stroke-dashoffset: 0; stroke: #cccccc; stroke-opacity: 0.3; stroke-width: 0.8"/>
     </g>
     <g id="line2d_18"/>
     <g id="text_9">
      <!-- 65536 -->
      <g style="fill: #262626" transform="translate(799.982345 520.692036) rotate(-45) scale(0.1 -0.1)">
       <use xlink:href="#DejaVuSans-Bold-36"/>
       <use xlink:href="#DejaVuSans-Bold-35" transform="translate(69.580078 0)"/>
       <use xlink:href="#DejaVuSans-Bold-35" transform="translate(139.160156 0)"/>
       <use xlink:href="#DejaVuSans-Bold-33" transform="translate(208.740234 0)"/>
       <use xlink:href="#DejaVuSans-Bold-36" transform="translate(278.320312 0)"/>
      </g>
     </g>
    </g>
    <g id="xtick_10">
     <g id="line2d_19">
      <path d="M 895.134452 487.219548 
L 895.134452 53.51475 
" clip-path="url(#p98fd44f439)" style="fill: none; stroke-dasharray: 2.96,1.28; stroke-dashoffset: 0; stroke: #cccccc; stroke-opacity: 0.3; stroke-width: 0.8"/>
     </g>
     <g id="line2d_20"/>
     <g id="text_10">
      <!-- 131072 -->
      <g style="fill: #262626" transform="translate(882.325876 525.611953) rotate(-45) scale(0.1 -0.1)">
       <use xlink:href="#DejaVuSans-Bold-31"/>
       <use xlink:href="#DejaVuSans-Bold-33" transform="translate(69.580078 0)"/>
       <use xlink:href="#DejaVuSans-Bold-31" transform="translate(139.160156 0)"/>
       <use xlink:href="#DejaVuSans-Bold-30" transform="translate(208.740234 0)"/>
       <use xlink:href="#DejaVuSans-Bold-37" transform="translate(278.320312 0)"/>
       <use xlink:href="#DejaVuSans-Bold-32" transform="translate(347.900391 0)"/>
      </g>
     </g>
    </g>
    <g id="text_11">
     <!-- Bit Size -->
     <g style="fill: #262626" transform="translate(487.9925 540.200639) scale(0.12 -0.12)">
      <defs>
       <path id="DejaVuSans-Bold-42" d="M 2456 2859 
Q 2741 2859 2887 2984 
Q 3034 3109 3034 3353 
Q 3034 3594 2887 3720 
Q 2741 3847 2456 3847 
L 1791 3847 
L 1791 2859 
L 2456 2859 
z
M 2497 819 
Q 2859 819 3042 972 
Q 3225 1125 3225 1434 
Q 3225 1738 3044 1889 
Q 2863 2041 2497 2041 
L 1791 2041 
L 1791 819 
L 2497 819 
z
M 3616 2497 
Q 4003 2384 4215 2081 
Q 4428 1778 4428 1338 
Q 4428 663 3972 331 
Q 3516 0 2584 0 
L 588 0 
L 588 4666 
L 2394 4666 
Q 3366 4666 3802 4372 
Q 4238 4078 4238 3431 
Q 4238 3091 4078 2852 
Q 3919 2613 3616 2497 
z
" transform="scale(0.015625)"/>
       <path id="DejaVuSans-Bold-69" d="M 538 3500 
L 1656 3500 
L 1656 0 
L 538 0 
L 538 3500 
z
M 538 4863 
L 1656 4863 
L 1656 3950 
L 538 3950 
L 538 4863 
z
" transform="scale(0.015625)"/>
       <path id="DejaVuSans-Bold-74" d="M 1759 4494 
L 1759 3500 
L 2913 3500 
L 2913 2700 
L 1759 2700 
L 1759 1216 
Q 1759 972 1856 886 
Q 1953 800 2241 800 
L 2816 800 
L 2816 0 
L 1856 0 
Q 1194 0 917 276 
Q 641 553 641 1216 
L 641 2700 
L 84 2700 
L 84 3500 
L 641 3500 
L 641 4494 
L 1759 4494 
z
" transform="scale(0.015625)"/>
       <path id="DejaVuSans-Bold-20" transform="scale(0.015625)"/>
       <path id="DejaVuSans-Bold-53" d="M 3834 4519 
L 3834 3531 
Q 3450 3703 3084 3790 
Q 2719 3878 2394 3878 
Q 1963 3878 1756 3759 
Q 1550 3641 1550 3391 
Q 1550 3203 1689 3098 
Q 1828 2994 2194 2919 
L 2706 2816 
Q 3484 2659 3812 2340 
Q 4141 2022 4141 1434 
Q 4141 663 3683 286 
Q 3225 -91 2284 -91 
Q 1841 -91 1394 -6 
Q 947 78 500 244 
L 500 1259 
Q 947 1022 1364 901 
Q 1781 781 2169 781 
Q 2563 781 2772 912 
Q 2981 1044 2981 1288 
Q 2981 1506 2839 1625 
Q 2697 1744 2272 1838 
L 1806 1941 
Q 1106 2091 782 2419 
Q 459 2747 459 3303 
Q 459 4000 909 4375 
Q 1359 4750 2203 4750 
Q 2588 4750 2994 4692 
Q 3400 4634 3834 4519 
z
" transform="scale(0.015625)"/>
       <path id="DejaVuSans-Bold-7a" d="M 366 3500 
L 3419 3500 
L 3419 2719 
L 1575 800 
L 3419 800 
L 3419 0 
L 288 0 
L 288 781 
L 2131 2700 
L 366 2700 
L 366 3500 
z
" transform="scale(0.015625)"/>
       <path id="DejaVuSans-Bold-65" d="M 4031 1759 
L 4031 1441 
L 1416 1441 
Q 1456 1047 1700 850 
Q 1944 653 2381 653 
Q 2734 653 3104 758 
Q 3475 863 3866 1075 
L 3866 213 
Q 3469 63 3072 -14 
Q 2675 -91 2278 -91 
Q 1328 -91 801 392 
Q 275 875 275 1747 
Q 275 2603 792 3093 
Q 1309 3584 2216 3584 
Q 3041 3584 3536 3087 
Q 4031 2591 4031 1759 
z
M 2881 2131 
Q 2881 2450 2695 2645 
Q 2509 2841 2209 2841 
Q 1884 2841 1681 2658 
Q 1478 2475 1428 2131 
L 2881 2131 
z
" transform="scale(0.015625)"/>
      </defs>
      <use xlink:href="#DejaVuSans-Bold-42"/>
      <use xlink:href="#DejaVuSans-Bold-69" transform="translate(76.220703 0)"/>
      <use xlink:href="#DejaVuSans-Bold-74" transform="translate(110.498047 0)"/>
      <use xlink:href="#DejaVuSans-Bold-20" transform="translate(158.300781 0)"/>
      <use xlink:href="#DejaVuSans-Bold-53" transform="translate(193.115234 0)"/>
      <use xlink:href="#DejaVuSans-Bold-69" transform="translate(265.136719 0)"/>
      <use xlink:href="#DejaVuSans-Bold-7a" transform="translate(299.414062 0)"/>
      <use xlink:href="#DejaVuSans-Bold-65" transform="translate(357.617188 0)"/>
     </g>
    </g>
   </g>
   <g id="matplotlib.axis_2">
    <g id="ytick_1">
     <g id="line2d_21">
      <path d="M 51.76375 487.219548 
L 975.27375 487.219548 
" clip-path="url(#p98fd44f439)" style="fill: none; stroke-dasharray: 2.96,1.28; stroke-dashoffset: 0; stroke: #cccccc; stroke-opacity: 0.3; stroke-width: 0.8"/>
     </g>
     <g id="line2d_22"/>
     <g id="text_12">
      <!-- 0 -->
      <g style="fill: #262626" transform="translate(41.90125 491.018766) scale(0.1 -0.1)">
       <defs>
        <path id="DejaVuSans-30" d="M 2034 4250 
Q 1547 4250 1301 3770 
Q 1056 3291 1056 2328 
Q 1056 1369 1301 889 
Q 1547 409 2034 409 
Q 2525 409 2770 889 
Q 3016 1369 3016 2328 
Q 3016 3291 2770 3770 
Q 2525 4250 2034 4250 
z
M 2034 4750 
Q 2819 4750 3233 4129 
Q 3647 3509 3647 2328 
Q 3647 1150 3233 529 
Q 2819 -91 2034 -91 
Q 1250 -91 836 529 
Q 422 1150 422 2328 
Q 422 3509 836 4129 
Q 1250 4750 2034 4750 
z
" transform="scale(0.015625)"/>
       </defs>
       <use xlink:href="#DejaVuSans-30"/>
      </g>
     </g>
    </g>
    <g id="ytick_2">
     <g id="line2d_23">
      <path d="M 51.76375 436.84733 
L 975.27375 436.84733 
" clip-path="url(#p98fd44f439)" style="fill: none; stroke-dasharray: 2.96,1.28; stroke-dashoffset: 0; stroke: #cccccc; stroke-opacity: 0.3; stroke-width: 0.8"/>
     </g>
     <g id="line2d_24"/>
     <g id="text_13">
      <!-- 1000 -->
      <g style="fill: #262626" transform="translate(22.81375 440.646548) scale(0.1 -0.1)">
       <defs>
        <path id="DejaVuSans-31" d="M 794 531 
L 1825 531 
L 1825 4091 
L 703 3866 
L 703 4441 
L 1819 4666 
L 2450 4666 
L 2450 531 
L 3481 531 
L 3481 0 
L 794 0 
L 794 531 
z
" transform="scale(0.015625)"/>
       </defs>
       <use xlink:href="#DejaVuSans-31"/>
       <use xlink:href="#DejaVuSans-30" transform="translate(63.623047 0)"/>
       <use xlink:href="#DejaVuSans-30" transform="translate(127.246094 0)"/>
       <use xlink:href="#DejaVuSans-30" transform="translate(190.869141 0)"/>
      </g>
     </g>
    </g>
    <g id="ytick_3">
     <g id="line2d_25">
      <path d="M 51.76375 386.475112 
L 975.27375 386.475112 
" clip-path="url(#p98fd44f439)" style="fill: none; stroke-dasharray: 2.96,1.28; stroke-dashoffset: 0; stroke: #cccccc; stroke-opacity: 0.3; stroke-width: 0.8"/>
     </g>
     <g id="line2d_26"/>
     <g id="text_14">
      <!-- 2000 -->
      <g style="fill: #262626" transform="translate(22.81375 390.27433) scale(0.1 -0.1)">
       <defs>
        <path id="DejaVuSans-32" d="M 1228 531 
L 3431 531 
L 3431 0 
L 469 0 
L 469 531 
Q 828 903 1448 1529 
Q 2069 2156 2228 2338 
Q 2531 2678 2651 2914 
Q 2772 3150 2772 3378 
Q 2772 3750 2511 3984 
Q 2250 4219 1831 4219 
Q 1534 4219 1204 4116 
Q 875 4013 500 3803 
L 500 4441 
Q 881 4594 1212 4672 
Q 1544 4750 1819 4750 
Q 2544 4750 2975 4387 
Q 3406 4025 3406 3419 
Q 3406 3131 3298 2873 
Q 3191 2616 2906 2266 
Q 2828 2175 2409 1742 
Q 1991 1309 1228 531 
z
" transform="scale(0.015625)"/>
       </defs>
       <use xlink:href="#DejaVuSans-32"/>
       <use xlink:href="#DejaVuSans-30" transform="translate(63.623047 0)"/>
       <use xlink:href="#DejaVuSans-30" transform="translate(127.246094 0)"/>
       <use xlink:href="#DejaVuSans-30" transform="translate(190.869141 0)"/>
      </g>
     </g>
    </g>
    <g id="ytick_4">
     <g id="line2d_27">
      <path d="M 51.76375 336.102893 
L 975.27375 336.102893 
" clip-path="url(#p98fd44f439)" style="fill: none; stroke-dasharray: 2.96,1.28; stroke-dashoffset: 0; stroke: #cccccc; stroke-opacity: 0.3; stroke-width: 0.8"/>
     </g>
     <g id="line2d_28"/>
     <g id="text_15">
      <!-- 3000 -->
      <g style="fill: #262626" transform="translate(22.81375 339.902112) scale(0.1 -0.1)">
       <defs>
        <path id="DejaVuSans-33" d="M 2597 2516 
Q 3050 2419 3304 2112 
Q 3559 1806 3559 1356 
Q 3559 666 3084 287 
Q 2609 -91 1734 -91 
Q 1441 -91 1130 -33 
Q 819 25 488 141 
L 488 750 
Q 750 597 1062 519 
Q 1375 441 1716 441 
Q 2309 441 2620 675 
Q 2931 909 2931 1356 
Q 2931 1769 2642 2001 
Q 2353 2234 1838 2234 
L 1294 2234 
L 1294 2753 
L 1863 2753 
Q 2328 2753 2575 2939 
Q 2822 3125 2822 3475 
Q 2822 3834 2567 4026 
Q 2313 4219 1838 4219 
Q 1578 4219 1281 4162 
Q 984 4106 628 3988 
L 628 4550 
Q 988 4650 1302 4700 
Q 1616 4750 1894 4750 
Q 2613 4750 3031 4423 
Q 3450 4097 3450 3541 
Q 3450 3153 3228 2886 
Q 3006 2619 2597 2516 
z
" transform="scale(0.015625)"/>
       </defs>
       <use xlink:href="#DejaVuSans-33"/>
       <use xlink:href="#DejaVuSans-30" transform="translate(63.623047 0)"/>
       <use xlink:href="#DejaVuSans-30" transform="translate(127.246094 0)"/>
       <use xlink:href="#DejaVuSans-30" transform="translate(190.869141 0)"/>
      </g>
     </g>
    </g>
    <g id="ytick_5">
     <g id="line2d_29">
      <path d="M 51.76375 285.730675 
L 975.27375 285.730675 
" clip-path="url(#p98fd44f439)" style="fill: none; stroke-dasharray: 2.96,1.28; stroke-dashoffset: 0; stroke: #cccccc; stroke-opacity: 0.3; stroke-width: 0.8"/>
     </g>
     <g id="line2d_30"/>
     <g id="text_16">
      <!-- 4000 -->
      <g style="fill: #262626" transform="translate(22.81375 289.529894) scale(0.1 -0.1)">
       <defs>
        <path id="DejaVuSans-34" d="M 2419 4116 
L 825 1625 
L 2419 1625 
L 2419 4116 
z
M 2253 4666 
L 3047 4666 
L 3047 1625 
L 3713 1625 
L 3713 1100 
L 3047 1100 
L 3047 0 
L 2419 0 
L 2419 1100 
L 313 1100 
L 313 1709 
L 2253 4666 
z
" transform="scale(0.015625)"/>
       </defs>
       <use xlink:href="#DejaVuSans-34"/>
       <use xlink:href="#DejaVuSans-30" transform="translate(63.623047 0)"/>
       <use xlink:href="#DejaVuSans-30" transform="translate(127.246094 0)"/>
       <use xlink:href="#DejaVuSans-30" transform="translate(190.869141 0)"/>
      </g>
     </g>
    </g>
    <g id="ytick_6">
     <g id="line2d_31">
      <path d="M 51.76375 235.358457 
L 975.27375 235.358457 
" clip-path="url(#p98fd44f439)" style="fill: none; stroke-dasharray: 2.96,1.28; stroke-dashoffset: 0; stroke: #cccccc; stroke-opacity: 0.3; stroke-width: 0.8"/>
     </g>
     <g id="line2d_32"/>
     <g id="text_17">
      <!-- 5000 -->
      <g style="fill: #262626" transform="translate(22.81375 239.157676) scale(0.1 -0.1)">
       <defs>
        <path id="DejaVuSans-35" d="M 691 4666 
L 3169 4666 
L 3169 4134 
L 1269 4134 
L 1269 2991 
Q 1406 3038 1543 3061 
Q 1681 3084 1819 3084 
Q 2600 3084 3056 2656 
Q 3513 2228 3513 1497 
Q 3513 744 3044 326 
Q 2575 -91 1722 -91 
Q 1428 -91 1123 -41 
Q 819 9 494 109 
L 494 744 
Q 775 591 1075 516 
Q 1375 441 1709 441 
Q 2250 441 2565 725 
Q 2881 1009 2881 1497 
Q 2881 1984 2565 2268 
Q 2250 2553 1709 2553 
Q 1456 2553 1204 2497 
Q 953 2441 691 2322 
L 691 4666 
z
" transform="scale(0.015625)"/>
       </defs>
       <use xlink:href="#DejaVuSans-35"/>
       <use xlink:href="#DejaVuSans-30" transform="translate(63.623047 0)"/>
       <use xlink:href="#DejaVuSans-30" transform="translate(127.246094 0)"/>
       <use xlink:href="#DejaVuSans-30" transform="translate(190.869141 0)"/>
      </g>
     </g>
    </g>
    <g id="ytick_7">
     <g id="line2d_33">
      <path d="M 51.76375 184.986239 
L 975.27375 184.986239 
" clip-path="url(#p98fd44f439)" style="fill: none; stroke-dasharray: 2.96,1.28; stroke-dashoffset: 0; stroke: #cccccc; stroke-opacity: 0.3; stroke-width: 0.8"/>
     </g>
     <g id="line2d_34"/>
     <g id="text_18">
      <!-- 6000 -->
      <g style="fill: #262626" transform="translate(22.81375 188.785458) scale(0.1 -0.1)">
       <defs>
        <path id="DejaVuSans-36" d="M 2113 2584 
Q 1688 2584 1439 2293 
Q 1191 2003 1191 1497 
Q 1191 994 1439 701 
Q 1688 409 2113 409 
Q 2538 409 2786 701 
Q 3034 994 3034 1497 
Q 3034 2003 2786 2293 
Q 2538 2584 2113 2584 
z
M 3366 4563 
L 3366 3988 
Q 3128 4100 2886 4159 
Q 2644 4219 2406 4219 
Q 1781 4219 1451 3797 
Q 1122 3375 1075 2522 
Q 1259 2794 1537 2939 
Q 1816 3084 2150 3084 
Q 2853 3084 3261 2657 
Q 3669 2231 3669 1497 
Q 3669 778 3244 343 
Q 2819 -91 2113 -91 
Q 1303 -91 875 529 
Q 447 1150 447 2328 
Q 447 3434 972 4092 
Q 1497 4750 2381 4750 
Q 2619 4750 2861 4703 
Q 3103 4656 3366 4563 
z
" transform="scale(0.015625)"/>
       </defs>
       <use xlink:href="#DejaVuSans-36"/>
       <use xlink:href="#DejaVuSans-30" transform="translate(63.623047 0)"/>
       <use xlink:href="#DejaVuSans-30" transform="translate(127.246094 0)"/>
       <use xlink:href="#DejaVuSans-30" transform="translate(190.869141 0)"/>
      </g>
     </g>
    </g>
    <g id="ytick_8">
     <g id="line2d_35">
      <path d="M 51.76375 134.614021 
L 975.27375 134.614021 
" clip-path="url(#p98fd44f439)" style="fill: none; stroke-dasharray: 2.96,1.28; stroke-dashoffset: 0; stroke: #cccccc; stroke-opacity: 0.3; stroke-width: 0.8"/>
     </g>
     <g id="line2d_36"/>
     <g id="text_19">
      <!-- 7000 -->
      <g style="fill: #262626" transform="translate(22.81375 138.41324) scale(0.1 -0.1)">
       <defs>
        <path id="DejaVuSans-37" d="M 525 4666 
L 3525 4666 
L 3525 4397 
L 1831 0 
L 1172 0 
L 2766 4134 
L 525 4134 
L 525 4666 
z
" transform="scale(0.015625)"/>
       </defs>
       <use xlink:href="#DejaVuSans-37"/>
       <use xlink:href="#DejaVuSans-30" transform="translate(63.623047 0)"/>
       <use xlink:href="#DejaVuSans-30" transform="translate(127.246094 0)"/>
       <use xlink:href="#DejaVuSans-30" transform="translate(190.869141 0)"/>
      </g>
     </g>
    </g>
    <g id="ytick_9">
     <g id="line2d_37">
      <path d="M 51.76375 84.241803 
L 975.27375 84.241803 
" clip-path="url(#p98fd44f439)" style="fill: none; stroke-dasharray: 2.96,1.28; stroke-dashoffset: 0; stroke: #cccccc; stroke-opacity: 0.3; stroke-width: 0.8"/>
     </g>
     <g id="line2d_38"/>
     <g id="text_20">
      <!-- 8000 -->
      <g style="fill: #262626" transform="translate(22.81375 88.041022) scale(0.1 -0.1)">
       <defs>
        <path id="DejaVuSans-38" d="M 2034 2216 
Q 1584 2216 1326 1975 
Q 1069 1734 1069 1313 
Q 1069 891 1326 650 
Q 1584 409 2034 409 
Q 2484 409 2743 651 
Q 3003 894 3003 1313 
Q 3003 1734 2745 1975 
Q 2488 2216 2034 2216 
z
M 1403 2484 
Q 997 2584 770 2862 
Q 544 3141 544 3541 
Q 544 4100 942 4425 
Q 1341 4750 2034 4750 
Q 2731 4750 3128 4425 
Q 3525 4100 3525 3541 
Q 3525 3141 3298 2862 
Q 3072 2584 2669 2484 
Q 3125 2378 3379 2068 
Q 3634 1759 3634 1313 
Q 3634 634 3220 271 
Q 2806 -91 2034 -91 
Q 1263 -91 848 271 
Q 434 634 434 1313 
Q 434 1759 690 2068 
Q 947 2378 1403 2484 
z
M 1172 3481 
Q 1172 3119 1398 2916 
Q 1625 2713 2034 2713 
Q 2441 2713 2670 2916 
Q 2900 3119 2900 3481 
Q 2900 3844 2670 4047 
Q 2441 4250 2034 4250 
Q 1625 4250 1398 4047 
Q 1172 3844 1172 3481 
z
" transform="scale(0.015625)"/>
       </defs>
       <use xlink:href="#DejaVuSans-38"/>
       <use xlink:href="#DejaVuSans-30" transform="translate(63.623047 0)"/>
       <use xlink:href="#DejaVuSans-30" transform="translate(127.246094 0)"/>
       <use xlink:href="#DejaVuSans-30" transform="translate(190.869141 0)"/>
      </g>
     </g>
    </g>
    <g id="text_21">
     <!-- L1D Cache Reads -->
     <g style="fill: #262626" transform="translate(16.318125 328.478086) rotate(-90) scale(0.12 -0.12)">
      <defs>
       <path id="DejaVuSans-Bold-4c" d="M 588 4666 
L 1791 4666 
L 1791 909 
L 3903 909 
L 3903 0 
L 588 0 
L 588 4666 
z
" transform="scale(0.015625)"/>
       <path id="DejaVuSans-Bold-44" d="M 1791 3756 
L 1791 909 
L 2222 909 
Q 2959 909 3348 1275 
Q 3738 1641 3738 2338 
Q 3738 3031 3350 3393 
Q 2963 3756 2222 3756 
L 1791 3756 
z
M 588 4666 
L 1856 4666 
Q 2919 4666 3439 4514 
Q 3959 4363 4331 4000 
Q 4659 3684 4818 3271 
Q 4978 2859 4978 2338 
Q 4978 1809 4818 1395 
Q 4659 981 4331 666 
Q 3956 303 3431 151 
Q 2906 0 1856 0 
L 588 0 
L 588 4666 
z
" transform="scale(0.015625)"/>
       <path id="DejaVuSans-Bold-43" d="M 4288 256 
Q 3956 84 3597 -3 
Q 3238 -91 2847 -91 
Q 1681 -91 1000 561 
Q 319 1213 319 2328 
Q 319 3447 1000 4098 
Q 1681 4750 2847 4750 
Q 3238 4750 3597 4662 
Q 3956 4575 4288 4403 
L 4288 3438 
Q 3953 3666 3628 3772 
Q 3303 3878 2944 3878 
Q 2300 3878 1931 3465 
Q 1563 3053 1563 2328 
Q 1563 1606 1931 1193 
Q 2300 781 2944 781 
Q 3303 781 3628 887 
Q 3953 994 4288 1222 
L 4288 256 
z
" transform="scale(0.015625)"/>
       <path id="DejaVuSans-Bold-61" d="M 2106 1575 
Q 1756 1575 1579 1456 
Q 1403 1338 1403 1106 
Q 1403 894 1545 773 
Q 1688 653 1941 653 
Q 2256 653 2472 879 
Q 2688 1106 2688 1447 
L 2688 1575 
L 2106 1575 
z
M 3816 1997 
L 3816 0 
L 2688 0 
L 2688 519 
Q 2463 200 2181 54 
Q 1900 -91 1497 -91 
Q 953 -91 614 226 
Q 275 544 275 1050 
Q 275 1666 698 1953 
Q 1122 2241 2028 2241 
L 2688 2241 
L 2688 2328 
Q 2688 2594 2478 2717 
Q 2269 2841 1825 2841 
Q 1466 2841 1156 2769 
Q 847 2697 581 2553 
L 581 3406 
Q 941 3494 1303 3539 
Q 1666 3584 2028 3584 
Q 2975 3584 3395 3211 
Q 3816 2838 3816 1997 
z
" transform="scale(0.015625)"/>
       <path id="DejaVuSans-Bold-63" d="M 3366 3391 
L 3366 2478 
Q 3138 2634 2908 2709 
Q 2678 2784 2431 2784 
Q 1963 2784 1702 2511 
Q 1441 2238 1441 1747 
Q 1441 1256 1702 982 
Q 1963 709 2431 709 
Q 2694 709 2930 787 
Q 3166 866 3366 1019 
L 3366 103 
Q 3103 6 2833 -42 
Q 2563 -91 2291 -91 
Q 1344 -91 809 395 
Q 275 881 275 1747 
Q 275 2613 809 3098 
Q 1344 3584 2291 3584 
Q 2566 3584 2833 3536 
Q 3100 3488 3366 3391 
z
" transform="scale(0.015625)"/>
       <path id="DejaVuSans-Bold-68" d="M 4056 2131 
L 4056 0 
L 2931 0 
L 2931 347 
L 2931 1625 
Q 2931 2084 2911 2256 
Q 2891 2428 2841 2509 
Q 2775 2619 2662 2680 
Q 2550 2741 2406 2741 
Q 2056 2741 1856 2470 
Q 1656 2200 1656 1722 
L 1656 0 
L 538 0 
L 538 4863 
L 1656 4863 
L 1656 2988 
Q 1909 3294 2193 3439 
Q 2478 3584 2822 3584 
Q 3428 3584 3742 3212 
Q 4056 2841 4056 2131 
z
" transform="scale(0.015625)"/>
       <path id="DejaVuSans-Bold-52" d="M 2297 2597 
Q 2675 2597 2839 2737 
Q 3003 2878 3003 3200 
Q 3003 3519 2839 3656 
Q 2675 3794 2297 3794 
L 1791 3794 
L 1791 2597 
L 2297 2597 
z
M 1791 1766 
L 1791 0 
L 588 0 
L 588 4666 
L 2425 4666 
Q 3347 4666 3776 4356 
Q 4206 4047 4206 3378 
Q 4206 2916 3982 2619 
Q 3759 2322 3309 2181 
Q 3556 2125 3751 1926 
Q 3947 1728 4147 1325 
L 4800 0 
L 3519 0 
L 2950 1159 
Q 2778 1509 2601 1637 
Q 2425 1766 2131 1766 
L 1791 1766 
z
" transform="scale(0.015625)"/>
       <path id="DejaVuSans-Bold-64" d="M 2919 2988 
L 2919 4863 
L 4044 4863 
L 4044 0 
L 2919 0 
L 2919 506 
Q 2688 197 2409 53 
Q 2131 -91 1766 -91 
Q 1119 -91 703 423 
Q 288 938 288 1747 
Q 288 2556 703 3070 
Q 1119 3584 1766 3584 
Q 2128 3584 2408 3439 
Q 2688 3294 2919 2988 
z
M 2181 722 
Q 2541 722 2730 984 
Q 2919 1247 2919 1747 
Q 2919 2247 2730 2509 
Q 2541 2772 2181 2772 
Q 1825 2772 1636 2509 
Q 1447 2247 1447 1747 
Q 1447 1247 1636 984 
Q 1825 722 2181 722 
z
" transform="scale(0.015625)"/>
       <path id="DejaVuSans-Bold-73" d="M 3272 3391 
L 3272 2541 
Q 2913 2691 2578 2766 
Q 2244 2841 1947 2841 
Q 1628 2841 1473 2761 
Q 1319 2681 1319 2516 
Q 1319 2381 1436 2309 
Q 1553 2238 1856 2203 
L 2053 2175 
Q 2913 2066 3209 1816 
Q 3506 1566 3506 1031 
Q 3506 472 3093 190 
Q 2681 -91 1863 -91 
Q 1516 -91 1145 -36 
Q 775 19 384 128 
L 384 978 
Q 719 816 1070 734 
Q 1422 653 1784 653 
Q 2113 653 2278 743 
Q 2444 834 2444 1013 
Q 2444 1163 2330 1236 
Q 2216 1309 1875 1350 
L 1678 1375 
Q 931 1469 631 1722 
Q 331 1975 331 2491 
Q 331 3047 712 3315 
Q 1094 3584 1881 3584 
Q 2191 3584 2531 3537 
Q 2872 3491 3272 3391 
z
" transform="scale(0.015625)"/>
      </defs>
      <use xlink:href="#DejaVuSans-Bold-4c"/>
      <use xlink:href="#DejaVuSans-Bold-31" transform="translate(63.720703 0)"/>
      <use xlink:href="#DejaVuSans-Bold-44" transform="translate(133.300781 0)"/>
      <use xlink:href="#DejaVuSans-Bold-20" transform="translate(216.308594 0)"/>
      <use xlink:href="#DejaVuSans-Bold-43" transform="translate(251.123047 0)"/>
      <use xlink:href="#DejaVuSans-Bold-61" transform="translate(324.511719 0)"/>
      <use xlink:href="#DejaVuSans-Bold-63" transform="translate(391.992188 0)"/>
      <use xlink:href="#DejaVuSans-Bold-68" transform="translate(451.269531 0)"/>
      <use xlink:href="#DejaVuSans-Bold-65" transform="translate(522.460938 0)"/>
      <use xlink:href="#DejaVuSans-Bold-20" transform="translate(590.283203 0)"/>
      <use xlink:href="#DejaVuSans-Bold-52" transform="translate(625.097656 0)"/>
      <use xlink:href="#DejaVuSans-Bold-65" transform="translate(702.099609 0)"/>
      <use xlink:href="#DejaVuSans-Bold-61" transform="translate(769.921875 0)"/>
      <use xlink:href="#DejaVuSans-Bold-64" transform="translate(837.402344 0)"/>
      <use xlink:href="#DejaVuSans-Bold-73" transform="translate(908.984375 0)"/>
     </g>
    </g>
   </g>
   <g id="patch_3">
    <path d="M 93.741477 487.219548 
L 112.822262 487.219548 
L 112.822262 486.060987 
L 93.741477 486.060987 
z
" clip-path="url(#p98fd44f439)" style="fill: #0072b2; stroke: #ffffff; stroke-width: 0.8; stroke-linejoin: miter"/>
   </g>
   <g id="patch_4">
    <path d="M 178.544967 487.219548 
L 197.625752 487.219548 
L 197.625752 485.204659 
L 178.544967 485.204659 
z
" clip-path="url(#p98fd44f439)" style="fill: #0072b2; stroke: #ffffff; stroke-width: 0.8; stroke-linejoin: miter"/>
   </g>
   <g id="patch_5">
    <path d="M 263.348456 487.219548 
L 282.429241 487.219548 
L 282.429241 483.592748 
L 263.348456 483.592748 
z
" clip-path="url(#p98fd44f439)" style="fill: #0072b2; stroke: #ffffff; stroke-width: 0.8; stroke-linejoin: miter"/>
   </g>
   <g id="patch_6">
    <path d="M 348.151946 487.219548 
L 367.232731 487.219548 
L 367.232731 480.368926 
L 348.151946 480.368926 
z
" clip-path="url(#p98fd44f439)" style="fill: #0072b2; stroke: #ffffff; stroke-width: 0.8; stroke-linejoin: miter"/>
   </g>
   <g id="patch_7">
    <path d="M 432.955435 487.219548 
L 452.03622 487.219548 
L 452.03622 473.921282 
L 432.955435 473.921282 
z
" clip-path="url(#p98fd44f439)" style="fill: #0072b2; stroke: #ffffff; stroke-width: 0.8; stroke-linejoin: miter"/>
   </g>
   <g id="patch_8">
    <path d="M 517.758924 487.219548 
L 536.83971 487.219548 
L 536.83971 461.025994 
L 517.758924 461.025994 
z
" clip-path="url(#p98fd44f439)" style="fill: #0072b2; stroke: #ffffff; stroke-width: 0.8; stroke-linejoin: miter"/>
   </g>
   <g id="patch_9">
    <path d="M 602.562414 487.219548 
L 621.643199 487.219548 
L 621.643199 435.235419 
L 602.562414 435.235419 
z
" clip-path="url(#p98fd44f439)" style="fill: #0072b2; stroke: #ffffff; stroke-width: 0.8; stroke-linejoin: miter"/>
   </g>
   <g id="patch_10">
    <path d="M 687.365903 487.219548 
L 706.446688 487.219548 
L 706.446688 383.654267 
L 687.365903 383.654267 
z
" clip-path="url(#p98fd44f439)" style="fill: #0072b2; stroke: #ffffff; stroke-width: 0.8; stroke-linejoin: miter"/>
   </g>
   <g id="patch_11">
    <path d="M 772.169393 487.219548 
L 791.250178 487.219548 
L 791.250178 280.491965 
L 772.169393 280.491965 
z
" clip-path="url(#p98fd44f439)" style="fill: #0072b2; stroke: #ffffff; stroke-width: 0.8; stroke-linejoin: miter"/>
   </g>
   <g id="patch_12">
    <path d="M 856.972882 487.219548 
L 876.053667 487.219548 
L 876.053667 74.167359 
L 856.972882 74.167359 
z
" clip-path="url(#p98fd44f439)" style="fill: #0072b2; stroke: #ffffff; stroke-width: 0.8; stroke-linejoin: miter"/>
   </g>
   <g id="patch_13">
    <path d="M 112.822262 487.219548 
L 131.903048 487.219548 
L 131.903048 485.758753 
L 112.822262 485.758753 
z
" clip-path="url(#p98fd44f439)" style="fill: #d55e00; stroke: #ffffff; stroke-width: 0.8; stroke-linejoin: miter"/>
   </g>
   <g id="patch_14">
    <path d="M 197.625752 487.219548 
L 216.706537 487.219548 
L 216.706537 485.355776 
L 197.625752 485.355776 
z
" clip-path="url(#p98fd44f439)" style="fill: #d55e00; stroke: #ffffff; stroke-width: 0.8; stroke-linejoin: miter"/>
   </g>
   <g id="patch_15">
    <path d="M 282.429241 487.219548 
L 301.510026 487.219548 
L 301.510026 484.54982 
L 282.429241 484.54982 
z
" clip-path="url(#p98fd44f439)" style="fill: #d55e00; stroke: #ffffff; stroke-width: 0.8; stroke-linejoin: miter"/>
   </g>
   <g id="patch_16">
    <path d="M 367.232731 487.219548 
L 386.313516 487.219548 
L 386.313516 482.937909 
L 367.232731 482.937909 
z
" clip-path="url(#p98fd44f439)" style="fill: #d55e00; stroke: #ffffff; stroke-width: 0.8; stroke-linejoin: miter"/>
   </g>
   <g id="patch_17">
    <path d="M 452.03622 487.219548 
L 471.117005 487.219548 
L 471.117005 479.714087 
L 452.03622 479.714087 
z
" clip-path="url(#p98fd44f439)" style="fill: #d55e00; stroke: #ffffff; stroke-width: 0.8; stroke-linejoin: miter"/>
   </g>
   <g id="patch_18">
    <path d="M 536.83971 487.219548 
L 555.920495 487.219548 
L 555.920495 473.266443 
L 536.83971 473.266443 
z
" clip-path="url(#p98fd44f439)" style="fill: #d55e00; stroke: #ffffff; stroke-width: 0.8; stroke-linejoin: miter"/>
   </g>
   <g id="patch_19">
    <path d="M 621.643199 487.219548 
L 640.723984 487.219548 
L 640.723984 460.371155 
L 621.643199 460.371155 
z
" clip-path="url(#p98fd44f439)" style="fill: #d55e00; stroke: #ffffff; stroke-width: 0.8; stroke-linejoin: miter"/>
   </g>
   <g id="patch_20">
    <path d="M 706.446688 487.219548 
L 725.527474 487.219548 
L 725.527474 434.429463 
L 706.446688 434.429463 
z
" clip-path="url(#p98fd44f439)" style="fill: #d55e00; stroke: #ffffff; stroke-width: 0.8; stroke-linejoin: miter"/>
   </g>
   <g id="patch_21">
    <path d="M 791.250178 487.219548 
L 810.330963 487.219548 
L 810.330963 382.999428 
L 791.250178 382.999428 
z
" clip-path="url(#p98fd44f439)" style="fill: #d55e00; stroke: #ffffff; stroke-width: 0.8; stroke-linejoin: miter"/>
   </g>
   <g id="patch_22">
    <path d="M 876.053667 487.219548 
L 895.134452 487.219548 
L 895.134452 279.837126 
L 876.053667 279.837126 
z
" clip-path="url(#p98fd44f439)" style="fill: #d55e00; stroke: #ffffff; stroke-width: 0.8; stroke-linejoin: miter"/>
   </g>
   <g id="patch_23">
    <path d="M 131.903048 487.219548 
L 150.983833 487.219548 
L 150.983833 486.060987 
L 131.903048 486.060987 
z
" clip-path="url(#p98fd44f439)" style="fill: #8cd17d; stroke: #ffffff; stroke-width: 0.8; stroke-linejoin: miter"/>
   </g>
   <g id="patch_24">
    <path d="M 216.706537 487.219548 
L 235.787322 487.219548 
L 235.787322 485.204659 
L 216.706537 485.204659 
z
" clip-path="url(#p98fd44f439)" style="fill: #8cd17d; stroke: #ffffff; stroke-width: 0.8; stroke-linejoin: miter"/>
   </g>
   <g id="patch_25">
    <path d="M 301.510026 487.219548 
L 320.590812 487.219548 
L 320.590812 483.592748 
L 301.510026 483.592748 
z
" clip-path="url(#p98fd44f439)" style="fill: #8cd17d; stroke: #ffffff; stroke-width: 0.8; stroke-linejoin: miter"/>
   </g>
   <g id="patch_26">
    <path d="M 386.313516 487.219548 
L 405.394301 487.219548 
L 405.394301 480.368926 
L 386.313516 480.368926 
z
" clip-path="url(#p98fd44f439)" style="fill: #8cd17d; stroke: #ffffff; stroke-width: 0.8; stroke-linejoin: miter"/>
   </g>
   <g id="patch_27">
    <path d="M 471.117005 487.219548 
L 490.19779 487.219548 
L 490.19779 473.87091 
L 471.117005 473.87091 
z
" clip-path="url(#p98fd44f439)" style="fill: #8cd17d; stroke: #ffffff; stroke-width: 0.8; stroke-linejoin: miter"/>
   </g>
   <g id="patch_28">
    <path d="M 555.920495 487.219548 
L 575.00128 487.219548 
L 575.00128 461.025994 
L 555.920495 461.025994 
z
" clip-path="url(#p98fd44f439)" style="fill: #8cd17d; stroke: #ffffff; stroke-width: 0.8; stroke-linejoin: miter"/>
   </g>
   <g id="patch_29">
    <path d="M 640.723984 487.219548 
L 659.804769 487.219548 
L 659.804769 435.235419 
L 640.723984 435.235419 
z
" clip-path="url(#p98fd44f439)" style="fill: #8cd17d; stroke: #ffffff; stroke-width: 0.8; stroke-linejoin: miter"/>
   </g>
   <g id="patch_30">
    <path d="M 725.527474 487.219548 
L 744.608259 487.219548 
L 744.608259 435.789513 
L 725.527474 435.789513 
z
" clip-path="url(#p98fd44f439)" style="fill: #8cd17d; stroke: #ffffff; stroke-width: 0.8; stroke-linejoin: miter"/>
   </g>
   <g id="patch_31">
    <path d="M 810.330963 487.219548 
L 829.411748 487.219548 
L 829.411748 280.491965 
L 810.330963 280.491965 
z
" clip-path="url(#p98fd44f439)" style="fill: #8cd17d; stroke: #ffffff; stroke-width: 0.8; stroke-linejoin: miter"/>
   </g>
   <g id="patch_32">
    <path d="M 895.134452 487.219548 
L 914.215238 487.219548 
L 914.215238 282.960203 
L 895.134452 282.960203 
z
" clip-path="url(#p98fd44f439)" style="fill: #8cd17d; stroke: #ffffff; stroke-width: 0.8; stroke-linejoin: miter"/>
   </g>
   <g id="patch_33">
    <path d="M 150.983833 487.219548 
L 170.064618 487.219548 
L 170.064618 486.060987 
L 150.983833 486.060987 
z
" clip-path="url(#p98fd44f439)" style="fill: #009e73; stroke: #ffffff; stroke-width: 0.8; stroke-linejoin: miter"/>
   </g>
   <g id="patch_34">
    <path d="M 235.787322 487.219548 
L 254.868107 487.219548 
L 254.868107 485.204659 
L 235.787322 485.204659 
z
" clip-path="url(#p98fd44f439)" style="fill: #009e73; stroke: #ffffff; stroke-width: 0.8; stroke-linejoin: miter"/>
   </g>
   <g id="patch_35">
    <path d="M 320.590812 487.219548 
L 339.671597 487.219548 
L 339.671597 483.592748 
L 320.590812 483.592748 
z
" clip-path="url(#p98fd44f439)" style="fill: #009e73; stroke: #ffffff; stroke-width: 0.8; stroke-linejoin: miter"/>
   </g>
   <g id="patch_36">
    <path d="M 405.394301 487.219548 
L 424.475086 487.219548 
L 424.475086 480.368926 
L 405.394301 480.368926 
z
" clip-path="url(#p98fd44f439)" style="fill: #009e73; stroke: #ffffff; stroke-width: 0.8; stroke-linejoin: miter"/>
   </g>
   <g id="patch_37">
    <path d="M 490.19779 487.219548 
L 509.278576 487.219548 
L 509.278576 473.921282 
L 490.19779 473.921282 
z
" clip-path="url(#p98fd44f439)" style="fill: #009e73; stroke: #ffffff; stroke-width: 0.8; stroke-linejoin: miter"/>
   </g>
   <g id="patch_38">
    <path d="M 575.00128 487.219548 
L 594.082065 487.219548 
L 594.082065 461.025994 
L 575.00128 461.025994 
z
" clip-path="url(#p98fd44f439)" style="fill: #009e73; stroke: #ffffff; stroke-width: 0.8; stroke-linejoin: miter"/>
   </g>
   <g id="patch_39">
    <path d="M 659.804769 487.219548 
L 678.885554 487.219548 
L 678.885554 435.235419 
L 659.804769 435.235419 
z
" clip-path="url(#p98fd44f439)" style="fill: #009e73; stroke: #ffffff; stroke-width: 0.8; stroke-linejoin: miter"/>
   </g>
   <g id="patch_40">
    <path d="M 744.608259 487.219548 
L 763.689044 487.219548 
L 763.689044 435.789513 
L 744.608259 435.789513 
z
" clip-path="url(#p98fd44f439)" style="fill: #009e73; stroke: #ffffff; stroke-width: 0.8; stroke-linejoin: miter"/>
   </g>
   <g id="patch_41">
    <path d="M 829.411748 487.219548 
L 848.492533 487.219548 
L 848.492533 280.491965 
L 829.411748 280.491965 
z
" clip-path="url(#p98fd44f439)" style="fill: #009e73; stroke: #ffffff; stroke-width: 0.8; stroke-linejoin: miter"/>
   </g>
   <g id="patch_42">
    <path d="M 914.215238 487.219548 
L 933.296023 487.219548 
L 933.296023 282.960203 
L 914.215238 282.960203 
z
" clip-path="url(#p98fd44f439)" style="fill: #009e73; stroke: #ffffff; stroke-width: 0.8; stroke-linejoin: miter"/>
   </g>
   <g id="patch_43">
    <path d="M 51.76375 487.219548 
L 51.76375 53.51475 
" style="fill: none; stroke: #cccccc; stroke-linejoin: miter; stroke-linecap: square"/>
   </g>
   <g id="patch_44">
    <path d="M 975.27375 487.219548 
L 975.27375 53.51475 
" style="fill: none; stroke: #cccccc; stroke-linejoin: miter; stroke-linecap: square"/>
   </g>
   <g id="patch_45">
    <path d="M 51.76375 487.219548 
L 975.27375 487.219548 
" style="fill: none; stroke: #cccccc; stroke-linejoin: miter; stroke-linecap: square"/>
   </g>
   <g id="patch_46">
    <path d="M 51.76375 53.51475 
L 975.27375 53.51475 
" style="fill: none; stroke: #cccccc; stroke-linejoin: miter; stroke-linecap: square"/>
   </g>
   <g id="text_22">
    <!-- 23 -->
    <g style="fill: #0072b2" transform="translate(97.71562 484.374065) scale(0.08 -0.08)">
     <use xlink:href="#DejaVuSans-Bold-32"/>
     <use xlink:href="#DejaVuSans-Bold-33" transform="translate(69.580078 0)"/>
    </g>
   </g>
   <g id="text_23">
    <!-- 29 -->
    <g style="fill: #d55e00" transform="translate(116.796405 484.065787) scale(0.08 -0.08)">
     <use xlink:href="#DejaVuSans-Bold-32"/>
     <use xlink:href="#DejaVuSans-Bold-39" transform="translate(69.580078 0)"/>
    </g>
   </g>
   <g id="text_24">
    <!-- 23 -->
    <g style="fill: #8cd17d" transform="translate(135.87719 484.374065) scale(0.08 -0.08)">
     <use xlink:href="#DejaVuSans-Bold-32"/>
     <use xlink:href="#DejaVuSans-Bold-33" transform="translate(69.580078 0)"/>
    </g>
   </g>
   <g id="text_25">
    <!-- 23 -->
    <g style="fill: #009e73" transform="translate(154.957975 484.374065) scale(0.08 -0.08)">
     <use xlink:href="#DejaVuSans-Bold-32"/>
     <use xlink:href="#DejaVuSans-Bold-33" transform="translate(69.580078 0)"/>
    </g>
   </g>
   <g id="text_26">
    <!-- 40 -->
    <g style="fill: #0072b2" transform="translate(182.519109 483.500611) scale(0.08 -0.08)">
     <use xlink:href="#DejaVuSans-Bold-34"/>
     <use xlink:href="#DejaVuSans-Bold-30" transform="translate(69.580078 0)"/>
    </g>
   </g>
   <g id="text_27">
    <!-- 37 -->
    <g style="fill: #d55e00" transform="translate(201.599894 483.65475) scale(0.08 -0.08)">
     <use xlink:href="#DejaVuSans-Bold-33"/>
     <use xlink:href="#DejaVuSans-Bold-37" transform="translate(69.580078 0)"/>
    </g>
   </g>
   <g id="text_28">
    <!-- 40 -->
    <g style="fill: #8cd17d" transform="translate(220.68068 483.500611) scale(0.08 -0.08)">
     <use xlink:href="#DejaVuSans-Bold-34"/>
     <use xlink:href="#DejaVuSans-Bold-30" transform="translate(69.580078 0)"/>
    </g>
   </g>
   <g id="text_29">
    <!-- 40 -->
    <g style="fill: #009e73" transform="translate(239.761465 483.500611) scale(0.08 -0.08)">
     <use xlink:href="#DejaVuSans-Bold-34"/>
     <use xlink:href="#DejaVuSans-Bold-30" transform="translate(69.580078 0)"/>
    </g>
   </g>
   <g id="text_30">
    <!-- 72 -->
    <g style="fill: #0072b2" transform="translate(267.322599 481.856462) scale(0.08 -0.08)">
     <use xlink:href="#DejaVuSans-Bold-37"/>
     <use xlink:href="#DejaVuSans-Bold-32" transform="translate(69.580078 0)"/>
    </g>
   </g>
   <g id="text_31">
    <!-- 53 -->
    <g style="fill: #d55e00" transform="translate(286.403384 482.832676) scale(0.08 -0.08)">
     <use xlink:href="#DejaVuSans-Bold-35"/>
     <use xlink:href="#DejaVuSans-Bold-33" transform="translate(69.580078 0)"/>
    </g>
   </g>
   <g id="text_32">
    <!-- 72 -->
    <g style="fill: #8cd17d" transform="translate(305.484169 481.856462) scale(0.08 -0.08)">
     <use xlink:href="#DejaVuSans-Bold-37"/>
     <use xlink:href="#DejaVuSans-Bold-32" transform="translate(69.580078 0)"/>
    </g>
   </g>
   <g id="text_33">
    <!-- 72 -->
    <g style="fill: #009e73" transform="translate(324.564954 481.856462) scale(0.08 -0.08)">
     <use xlink:href="#DejaVuSans-Bold-37"/>
     <use xlink:href="#DejaVuSans-Bold-32" transform="translate(69.580078 0)"/>
    </g>
   </g>
   <g id="text_34">
    <!-- 136 -->
    <g style="fill: #0072b2" transform="translate(349.342963 478.568164) scale(0.08 -0.08)">
     <use xlink:href="#DejaVuSans-Bold-31"/>
     <use xlink:href="#DejaVuSans-Bold-33" transform="translate(69.580078 0)"/>
     <use xlink:href="#DejaVuSans-Bold-36" transform="translate(139.160156 0)"/>
    </g>
   </g>
   <g id="text_35">
    <!-- 85 -->
    <g style="fill: #d55e00" transform="translate(371.206873 481.188526) scale(0.08 -0.08)">
     <use xlink:href="#DejaVuSans-Bold-38"/>
     <use xlink:href="#DejaVuSans-Bold-35" transform="translate(69.580078 0)"/>
    </g>
   </g>
   <g id="text_36">
    <!-- 136 -->
    <g style="fill: #8cd17d" transform="translate(387.504533 478.568164) scale(0.08 -0.08)">
     <use xlink:href="#DejaVuSans-Bold-31"/>
     <use xlink:href="#DejaVuSans-Bold-33" transform="translate(69.580078 0)"/>
     <use xlink:href="#DejaVuSans-Bold-36" transform="translate(139.160156 0)"/>
    </g>
   </g>
   <g id="text_37">
    <!-- 136 -->
    <g style="fill: #009e73" transform="translate(406.585319 478.568164) scale(0.08 -0.08)">
     <use xlink:href="#DejaVuSans-Bold-31"/>
     <use xlink:href="#DejaVuSans-Bold-33" transform="translate(69.580078 0)"/>
     <use xlink:href="#DejaVuSans-Bold-36" transform="translate(139.160156 0)"/>
    </g>
   </g>
   <g id="text_38">
    <!-- 264 -->
    <g style="fill: #0072b2" transform="translate(434.146453 471.991567) scale(0.08 -0.08)">
     <use xlink:href="#DejaVuSans-Bold-32"/>
     <use xlink:href="#DejaVuSans-Bold-36" transform="translate(69.580078 0)"/>
     <use xlink:href="#DejaVuSans-Bold-34" transform="translate(139.160156 0)"/>
    </g>
   </g>
   <g id="text_39">
    <!-- 149 -->
    <g style="fill: #d55e00" transform="translate(453.227238 477.900228) scale(0.08 -0.08)">
     <use xlink:href="#DejaVuSans-Bold-31"/>
     <use xlink:href="#DejaVuSans-Bold-34" transform="translate(69.580078 0)"/>
     <use xlink:href="#DejaVuSans-Bold-39" transform="translate(139.160156 0)"/>
    </g>
   </g>
   <g id="text_40">
    <!-- 265 -->
    <g style="fill: #8cd17d" transform="translate(472.308023 471.940187) scale(0.08 -0.08)">
     <use xlink:href="#DejaVuSans-Bold-32"/>
     <use xlink:href="#DejaVuSans-Bold-36" transform="translate(69.580078 0)"/>
     <use xlink:href="#DejaVuSans-Bold-35" transform="translate(139.160156 0)"/>
    </g>
   </g>
   <g id="text_41">
    <!-- 264 -->
    <g style="fill: #009e73" transform="translate(491.388808 471.991567) scale(0.08 -0.08)">
     <use xlink:href="#DejaVuSans-Bold-32"/>
     <use xlink:href="#DejaVuSans-Bold-36" transform="translate(69.580078 0)"/>
     <use xlink:href="#DejaVuSans-Bold-34" transform="translate(139.160156 0)"/>
    </g>
   </g>
   <g id="text_42">
    <!-- 520 -->
    <g style="fill: #0072b2" transform="translate(518.949942 458.838373) scale(0.08 -0.08)">
     <use xlink:href="#DejaVuSans-Bold-35"/>
     <use xlink:href="#DejaVuSans-Bold-32" transform="translate(69.580078 0)"/>
     <use xlink:href="#DejaVuSans-Bold-30" transform="translate(139.160156 0)"/>
    </g>
   </g>
   <g id="text_43">
    <!-- 277 -->
    <g style="fill: #d55e00" transform="translate(538.030727 471.323631) scale(0.08 -0.08)">
     <use xlink:href="#DejaVuSans-Bold-32"/>
     <use xlink:href="#DejaVuSans-Bold-37" transform="translate(69.580078 0)"/>
     <use xlink:href="#DejaVuSans-Bold-37" transform="translate(139.160156 0)"/>
    </g>
   </g>
   <g id="text_44">
    <!-- 520 -->
    <g style="fill: #8cd17d" transform="translate(557.111512 458.838373) scale(0.08 -0.08)">
     <use xlink:href="#DejaVuSans-Bold-35"/>
     <use xlink:href="#DejaVuSans-Bold-32" transform="translate(69.580078 0)"/>
     <use xlink:href="#DejaVuSans-Bold-30" transform="translate(139.160156 0)"/>
    </g>
   </g>
   <g id="text_45">
    <!-- 520 -->
    <g style="fill: #009e73" transform="translate(576.192297 458.838373) scale(0.08 -0.08)">
     <use xlink:href="#DejaVuSans-Bold-35"/>
     <use xlink:href="#DejaVuSans-Bold-32" transform="translate(69.580078 0)"/>
     <use xlink:href="#DejaVuSans-Bold-30" transform="translate(139.160156 0)"/>
    </g>
   </g>
   <g id="text_46">
    <!-- 1.0K -->
    <g style="fill: #0072b2" transform="translate(601.917806 432.531986) scale(0.08 -0.08)">
     <defs>
      <path id="DejaVuSans-Bold-2e" d="M 653 1209 
L 1778 1209 
L 1778 0 
L 653 0 
L 653 1209 
z
" transform="scale(0.015625)"/>
      <path id="DejaVuSans-Bold-4b" d="M 588 4666 
L 1791 4666 
L 1791 2963 
L 3525 4666 
L 4922 4666 
L 2675 2456 
L 5153 0 
L 3647 0 
L 1791 1838 
L 1791 0 
L 588 0 
L 588 4666 
z
" transform="scale(0.015625)"/>
     </defs>
     <use xlink:href="#DejaVuSans-Bold-31"/>
     <use xlink:href="#DejaVuSans-Bold-2e" transform="translate(69.580078 0)"/>
     <use xlink:href="#DejaVuSans-Bold-30" transform="translate(107.568359 0)"/>
     <use xlink:href="#DejaVuSans-Bold-4b" transform="translate(177.148438 0)"/>
    </g>
   </g>
   <g id="text_47">
    <!-- 533 -->
    <g style="fill: #d55e00" transform="translate(622.834217 458.170438) scale(0.08 -0.08)">
     <use xlink:href="#DejaVuSans-Bold-35"/>
     <use xlink:href="#DejaVuSans-Bold-33" transform="translate(69.580078 0)"/>
     <use xlink:href="#DejaVuSans-Bold-33" transform="translate(139.160156 0)"/>
    </g>
   </g>
   <g id="text_48">
    <!-- 1.0K -->
    <g style="fill: #8cd17d" transform="translate(640.079377 432.531986) scale(0.08 -0.08)">
     <use xlink:href="#DejaVuSans-Bold-31"/>
     <use xlink:href="#DejaVuSans-Bold-2e" transform="translate(69.580078 0)"/>
     <use xlink:href="#DejaVuSans-Bold-30" transform="translate(107.568359 0)"/>
     <use xlink:href="#DejaVuSans-Bold-4b" transform="translate(177.148438 0)"/>
    </g>
   </g>
   <g id="text_49">
    <!-- 1.0K -->
    <g style="fill: #009e73" transform="translate(659.160162 432.531986) scale(0.08 -0.08)">
     <use xlink:href="#DejaVuSans-Bold-31"/>
     <use xlink:href="#DejaVuSans-Bold-2e" transform="translate(69.580078 0)"/>
     <use xlink:href="#DejaVuSans-Bold-30" transform="translate(107.568359 0)"/>
     <use xlink:href="#DejaVuSans-Bold-4b" transform="translate(177.148438 0)"/>
    </g>
   </g>
   <g id="text_50">
    <!-- 2.1K -->
    <g style="fill: #0072b2" transform="translate(686.721296 379.919212) scale(0.08 -0.08)">
     <use xlink:href="#DejaVuSans-Bold-32"/>
     <use xlink:href="#DejaVuSans-Bold-2e" transform="translate(69.580078 0)"/>
     <use xlink:href="#DejaVuSans-Bold-31" transform="translate(107.568359 0)"/>
     <use xlink:href="#DejaVuSans-Bold-4b" transform="translate(177.148438 0)"/>
    </g>
   </g>
   <g id="text_51">
    <!-- 1.0K -->
    <g style="fill: #d55e00" transform="translate(705.802081 431.709911) scale(0.08 -0.08)">
     <use xlink:href="#DejaVuSans-Bold-31"/>
     <use xlink:href="#DejaVuSans-Bold-2e" transform="translate(69.580078 0)"/>
     <use xlink:href="#DejaVuSans-Bold-30" transform="translate(107.568359 0)"/>
     <use xlink:href="#DejaVuSans-Bold-4b" transform="translate(177.148438 0)"/>
    </g>
   </g>
   <g id="text_52">
    <!-- 1.0K -->
    <g style="fill: #8cd17d" transform="translate(724.882866 433.097162) scale(0.08 -0.08)">
     <use xlink:href="#DejaVuSans-Bold-31"/>
     <use xlink:href="#DejaVuSans-Bold-2e" transform="translate(69.580078 0)"/>
     <use xlink:href="#DejaVuSans-Bold-30" transform="translate(107.568359 0)"/>
     <use xlink:href="#DejaVuSans-Bold-4b" transform="translate(177.148438 0)"/>
    </g>
   </g>
   <g id="text_53">
    <!-- 1.0K -->
    <g style="fill: #009e73" transform="translate(743.963651 433.097162) scale(0.08 -0.08)">
     <use xlink:href="#DejaVuSans-Bold-31"/>
     <use xlink:href="#DejaVuSans-Bold-2e" transform="translate(69.580078 0)"/>
     <use xlink:href="#DejaVuSans-Bold-30" transform="translate(107.568359 0)"/>
     <use xlink:href="#DejaVuSans-Bold-4b" transform="translate(177.148438 0)"/>
    </g>
   </g>
   <g id="text_54">
    <!-- 4.1K -->
    <g style="fill: #0072b2" transform="translate(771.524785 274.693663) scale(0.08 -0.08)">
     <use xlink:href="#DejaVuSans-Bold-34"/>
     <use xlink:href="#DejaVuSans-Bold-2e" transform="translate(69.580078 0)"/>
     <use xlink:href="#DejaVuSans-Bold-31" transform="translate(107.568359 0)"/>
     <use xlink:href="#DejaVuSans-Bold-4b" transform="translate(177.148438 0)"/>
    </g>
   </g>
   <g id="text_55">
    <!-- 2.1K -->
    <g style="fill: #d55e00" transform="translate(790.60557 379.251276) scale(0.08 -0.08)">
     <use xlink:href="#DejaVuSans-Bold-32"/>
     <use xlink:href="#DejaVuSans-Bold-2e" transform="translate(69.580078 0)"/>
     <use xlink:href="#DejaVuSans-Bold-31" transform="translate(107.568359 0)"/>
     <use xlink:href="#DejaVuSans-Bold-4b" transform="translate(177.148438 0)"/>
    </g>
   </g>
   <g id="text_56">
    <!-- 4.1K -->
    <g style="fill: #8cd17d" transform="translate(809.686356 274.693663) scale(0.08 -0.08)">
     <use xlink:href="#DejaVuSans-Bold-34"/>
     <use xlink:href="#DejaVuSans-Bold-2e" transform="translate(69.580078 0)"/>
     <use xlink:href="#DejaVuSans-Bold-31" transform="translate(107.568359 0)"/>
     <use xlink:href="#DejaVuSans-Bold-4b" transform="translate(177.148438 0)"/>
    </g>
   </g>
   <g id="text_57">
    <!-- 4.1K -->
    <g style="fill: #009e73" transform="translate(828.767141 274.693663) scale(0.08 -0.08)">
     <use xlink:href="#DejaVuSans-Bold-34"/>
     <use xlink:href="#DejaVuSans-Bold-2e" transform="translate(69.580078 0)"/>
     <use xlink:href="#DejaVuSans-Bold-31" transform="translate(107.568359 0)"/>
     <use xlink:href="#DejaVuSans-Bold-4b" transform="translate(177.148438 0)"/>
    </g>
   </g>
   <g id="text_58">
    <!-- 8.2K -->
    <g style="fill: #0072b2" transform="translate(856.328275 64.242566) scale(0.08 -0.08)">
     <use xlink:href="#DejaVuSans-Bold-38"/>
     <use xlink:href="#DejaVuSans-Bold-2e" transform="translate(69.580078 0)"/>
     <use xlink:href="#DejaVuSans-Bold-32" transform="translate(107.568359 0)"/>
     <use xlink:href="#DejaVuSans-Bold-4b" transform="translate(177.148438 0)"/>
    </g>
   </g>
   <g id="text_59">
    <!-- 4.1K -->
    <g style="fill: #d55e00" transform="translate(875.40906 274.025727) scale(0.08 -0.08)">
     <use xlink:href="#DejaVuSans-Bold-34"/>
     <use xlink:href="#DejaVuSans-Bold-2e" transform="translate(69.580078 0)"/>
     <use xlink:href="#DejaVuSans-Bold-31" transform="translate(107.568359 0)"/>
     <use xlink:href="#DejaVuSans-Bold-4b" transform="translate(177.148438 0)"/>
    </g>
   </g>
   <g id="text_60">
    <!-- 4.1K -->
    <g style="fill: #8cd17d" transform="translate(894.489845 277.211266) scale(0.08 -0.08)">
     <use xlink:href="#DejaVuSans-Bold-34"/>
     <use xlink:href="#DejaVuSans-Bold-2e" transform="translate(69.580078 0)"/>
     <use xlink:href="#DejaVuSans-Bold-31" transform="translate(107.568359 0)"/>
     <use xlink:href="#DejaVuSans-Bold-4b" transform="translate(177.148438 0)"/>
    </g>
   </g>
   <g id="text_61">
    <!-- 4.1K -->
    <g style="fill: #009e73" transform="translate(913.57063 277.211266) scale(0.08 -0.08)">
     <use xlink:href="#DejaVuSans-Bold-34"/>
     <use xlink:href="#DejaVuSans-Bold-2e" transform="translate(69.580078 0)"/>
     <use xlink:href="#DejaVuSans-Bold-31" transform="translate(107.568359 0)"/>
     <use xlink:href="#DejaVuSans-Bold-4b" transform="translate(177.148438 0)"/>
    </g>
   </g>
   <g id="text_62">
    <!-- Comparison of L1D Cache Reads between Implementations (Subtraction) -->
    <g style="fill: #262626" transform="translate(225.350625 17.837813) scale(0.14 -0.14)">
     <defs>
      <path id="DejaVuSans-Bold-6f" d="M 2203 2784 
Q 1831 2784 1636 2517 
Q 1441 2250 1441 1747 
Q 1441 1244 1636 976 
Q 1831 709 2203 709 
Q 2569 709 2762 976 
Q 2956 1244 2956 1747 
Q 2956 2250 2762 2517 
Q 2569 2784 2203 2784 
z
M 2203 3584 
Q 3106 3584 3614 3096 
Q 4122 2609 4122 1747 
Q 4122 884 3614 396 
Q 3106 -91 2203 -91 
Q 1297 -91 786 396 
Q 275 884 275 1747 
Q 275 2609 786 3096 
Q 1297 3584 2203 3584 
z
" transform="scale(0.015625)"/>
      <path id="DejaVuSans-Bold-6d" d="M 3781 2919 
Q 3994 3244 4286 3414 
Q 4578 3584 4928 3584 
Q 5531 3584 5847 3212 
Q 6163 2841 6163 2131 
L 6163 0 
L 5038 0 
L 5038 1825 
Q 5041 1866 5042 1909 
Q 5044 1953 5044 2034 
Q 5044 2406 4934 2573 
Q 4825 2741 4581 2741 
Q 4263 2741 4089 2478 
Q 3916 2216 3909 1719 
L 3909 0 
L 2784 0 
L 2784 1825 
Q 2784 2406 2684 2573 
Q 2584 2741 2328 2741 
Q 2006 2741 1831 2477 
Q 1656 2213 1656 1722 
L 1656 0 
L 531 0 
L 531 3500 
L 1656 3500 
L 1656 2988 
Q 1863 3284 2130 3434 
Q 2397 3584 2719 3584 
Q 3081 3584 3359 3409 
Q 3638 3234 3781 2919 
z
" transform="scale(0.015625)"/>
      <path id="DejaVuSans-Bold-70" d="M 1656 506 
L 1656 -1331 
L 538 -1331 
L 538 3500 
L 1656 3500 
L 1656 2988 
Q 1888 3294 2169 3439 
Q 2450 3584 2816 3584 
Q 3463 3584 3878 3070 
Q 4294 2556 4294 1747 
Q 4294 938 3878 423 
Q 3463 -91 2816 -91 
Q 2450 -91 2169 54 
Q 1888 200 1656 506 
z
M 2400 2772 
Q 2041 2772 1848 2508 
Q 1656 2244 1656 1747 
Q 1656 1250 1848 986 
Q 2041 722 2400 722 
Q 2759 722 2948 984 
Q 3138 1247 3138 1747 
Q 3138 2247 2948 2509 
Q 2759 2772 2400 2772 
z
" transform="scale(0.015625)"/>
      <path id="DejaVuSans-Bold-72" d="M 3138 2547 
Q 2991 2616 2845 2648 
Q 2700 2681 2553 2681 
Q 2122 2681 1889 2404 
Q 1656 2128 1656 1613 
L 1656 0 
L 538 0 
L 538 3500 
L 1656 3500 
L 1656 2925 
Q 1872 3269 2151 3426 
Q 2431 3584 2822 3584 
Q 2878 3584 2943 3579 
Q 3009 3575 3134 3559 
L 3138 2547 
z
" transform="scale(0.015625)"/>
      <path id="DejaVuSans-Bold-6e" d="M 4056 2131 
L 4056 0 
L 2931 0 
L 2931 347 
L 2931 1631 
Q 2931 2084 2911 2256 
Q 2891 2428 2841 2509 
Q 2775 2619 2662 2680 
Q 2550 2741 2406 2741 
Q 2056 2741 1856 2470 
Q 1656 2200 1656 1722 
L 1656 0 
L 538 0 
L 538 3500 
L 1656 3500 
L 1656 2988 
Q 1909 3294 2193 3439 
Q 2478 3584 2822 3584 
Q 3428 3584 3742 3212 
Q 4056 2841 4056 2131 
z
" transform="scale(0.015625)"/>
      <path id="DejaVuSans-Bold-66" d="M 2841 4863 
L 2841 4128 
L 2222 4128 
Q 1984 4128 1890 4042 
Q 1797 3956 1797 3744 
L 1797 3500 
L 2753 3500 
L 2753 2700 
L 1797 2700 
L 1797 0 
L 678 0 
L 678 2700 
L 122 2700 
L 122 3500 
L 678 3500 
L 678 3744 
Q 678 4316 997 4589 
Q 1316 4863 1984 4863 
L 2841 4863 
z
" transform="scale(0.015625)"/>
      <path id="DejaVuSans-Bold-62" d="M 2400 722 
Q 2759 722 2948 984 
Q 3138 1247 3138 1747 
Q 3138 2247 2948 2509 
Q 2759 2772 2400 2772 
Q 2041 2772 1848 2508 
Q 1656 2244 1656 1747 
Q 1656 1250 1848 986 
Q 2041 722 2400 722 
z
M 1656 2988 
Q 1888 3294 2169 3439 
Q 2450 3584 2816 3584 
Q 3463 3584 3878 3070 
Q 4294 2556 4294 1747 
Q 4294 938 3878 423 
Q 3463 -91 2816 -91 
Q 2450 -91 2169 54 
Q 1888 200 1656 506 
L 1656 0 
L 538 0 
L 538 4863 
L 1656 4863 
L 1656 2988 
z
" transform="scale(0.015625)"/>
      <path id="DejaVuSans-Bold-77" d="M 225 3500 
L 1313 3500 
L 1900 1088 
L 2491 3500 
L 3425 3500 
L 4013 1113 
L 4603 3500 
L 5691 3500 
L 4769 0 
L 3547 0 
L 2956 2406 
L 2369 0 
L 1147 0 
L 225 3500 
z
" transform="scale(0.015625)"/>
      <path id="DejaVuSans-Bold-49" d="M 588 4666 
L 1791 4666 
L 1791 0 
L 588 0 
L 588 4666 
z
" transform="scale(0.015625)"/>
      <path id="DejaVuSans-Bold-6c" d="M 538 4863 
L 1656 4863 
L 1656 0 
L 538 0 
L 538 4863 
z
" transform="scale(0.015625)"/>
      <path id="DejaVuSans-Bold-28" d="M 2413 -844 
L 1484 -844 
Q 1006 -72 778 623 
Q 550 1319 550 2003 
Q 550 2688 779 3389 
Q 1009 4091 1484 4856 
L 2413 4856 
Q 2013 4116 1813 3408 
Q 1613 2700 1613 2009 
Q 1613 1319 1811 609 
Q 2009 -100 2413 -844 
z
" transform="scale(0.015625)"/>
      <path id="DejaVuSans-Bold-75" d="M 500 1363 
L 500 3500 
L 1625 3500 
L 1625 3150 
Q 1625 2866 1622 2436 
Q 1619 2006 1619 1863 
Q 1619 1441 1641 1255 
Q 1663 1069 1716 984 
Q 1784 875 1895 815 
Q 2006 756 2150 756 
Q 2500 756 2700 1025 
Q 2900 1294 2900 1772 
L 2900 3500 
L 4019 3500 
L 4019 0 
L 2900 0 
L 2900 506 
Q 2647 200 2364 54 
Q 2081 -91 1741 -91 
Q 1134 -91 817 281 
Q 500 653 500 1363 
z
" transform="scale(0.015625)"/>
      <path id="DejaVuSans-Bold-29" d="M 513 -844 
Q 913 -100 1113 609 
Q 1313 1319 1313 2009 
Q 1313 2700 1113 3408 
Q 913 4116 513 4856 
L 1441 4856 
Q 1916 4091 2145 3389 
Q 2375 2688 2375 2003 
Q 2375 1319 2147 623 
Q 1919 -72 1441 -844 
L 513 -844 
z
" transform="scale(0.015625)"/>
     </defs>
     <use xlink:href="#DejaVuSans-Bold-43"/>
     <use xlink:href="#DejaVuSans-Bold-6f" transform="translate(73.388672 0)"/>
     <use xlink:href="#DejaVuSans-Bold-6d" transform="translate(142.089844 0)"/>
     <use xlink:href="#DejaVuSans-Bold-70" transform="translate(246.289062 0)"/>
     <use xlink:href="#DejaVuSans-Bold-61" transform="translate(317.871094 0)"/>
     <use xlink:href="#DejaVuSans-Bold-72" transform="translate(385.351562 0)"/>
     <use xlink:href="#DejaVuSans-Bold-69" transform="translate(434.667969 0)"/>
     <use xlink:href="#DejaVuSans-Bold-73" transform="translate(468.945312 0)"/>
     <use xlink:href="#DejaVuSans-Bold-6f" transform="translate(528.466797 0)"/>
     <use xlink:href="#DejaVuSans-Bold-6e" transform="translate(597.167969 0)"/>
     <use xlink:href="#DejaVuSans-Bold-20" transform="translate(668.359375 0)"/>
     <use xlink:href="#DejaVuSans-Bold-6f" transform="translate(703.173828 0)"/>
     <use xlink:href="#DejaVuSans-Bold-66" transform="translate(771.875 0)"/>
     <use xlink:href="#DejaVuSans-Bold-20" transform="translate(815.380859 0)"/>
     <use xlink:href="#DejaVuSans-Bold-4c" transform="translate(850.195312 0)"/>
     <use xlink:href="#DejaVuSans-Bold-31" transform="translate(913.916016 0)"/>
     <use xlink:href="#DejaVuSans-Bold-44" transform="translate(983.496094 0)"/>
     <use xlink:href="#DejaVuSans-Bold-20" transform="translate(1066.503906 0)"/>
     <use xlink:href="#DejaVuSans-Bold-43" transform="translate(1101.318359 0)"/>
     <use xlink:href="#DejaVuSans-Bold-61" transform="translate(1174.707031 0)"/>
     <use xlink:href="#DejaVuSans-Bold-63" transform="translate(1242.1875 0)"/>
     <use xlink:href="#DejaVuSans-Bold-68" transform="translate(1301.464844 0)"/>
     <use xlink:href="#DejaVuSans-Bold-65" transform="translate(1372.65625 0)"/>
     <use xlink:href="#DejaVuSans-Bold-20" transform="translate(1440.478516 0)"/>
     <use xlink:href="#DejaVuSans-Bold-52" transform="translate(1475.292969 0)"/>
     <use xlink:href="#DejaVuSans-Bold-65" transform="translate(1552.294922 0)"/>
     <use xlink:href="#DejaVuSans-Bold-61" transform="translate(1620.117188 0)"/>
     <use xlink:href="#DejaVuSans-Bold-64" transform="translate(1687.597656 0)"/>
     <use xlink:href="#DejaVuSans-Bold-73" transform="translate(1759.179688 0)"/>
     <use xlink:href="#DejaVuSans-Bold-20" transform="translate(1818.701172 0)"/>
     <use xlink:href="#DejaVuSans-Bold-62" transform="translate(1853.515625 0)"/>
     <use xlink:href="#DejaVuSans-Bold-65" transform="translate(1925.097656 0)"/>
     <use xlink:href="#DejaVuSans-Bold-74" transform="translate(1992.919922 0)"/>
     <use xlink:href="#DejaVuSans-Bold-77" transform="translate(2040.722656 0)"/>
     <use xlink:href="#DejaVuSans-Bold-65" transform="translate(2133.105469 0)"/>
     <use xlink:href="#DejaVuSans-Bold-65" transform="translate(2200.927734 0)"/>
     <use xlink:href="#DejaVuSans-Bold-6e" transform="translate(2268.75 0)"/>
     <use xlink:href="#DejaVuSans-Bold-20" transform="translate(2339.941406 0)"/>
     <use xlink:href="#DejaVuSans-Bold-49" transform="translate(2374.755859 0)"/>
     <use xlink:href="#DejaVuSans-Bold-6d" transform="translate(2411.962891 0)"/>
     <use xlink:href="#DejaVuSans-Bold-70" transform="translate(2516.162109 0)"/>
     <use xlink:href="#DejaVuSans-Bold-6c" transform="translate(2587.744141 0)"/>
     <use xlink:href="#DejaVuSans-Bold-65" transform="translate(2622.021484 0)"/>
     <use xlink:href="#DejaVuSans-Bold-6d" transform="translate(2689.84375 0)"/>
     <use xlink:href="#DejaVuSans-Bold-65" transform="translate(2794.042969 0)"/>
     <use xlink:href="#DejaVuSans-Bold-6e" transform="translate(2861.865234 0)"/>
     <use xlink:href="#DejaVuSans-Bold-74" transform="translate(2933.056641 0)"/>
     <use xlink:href="#DejaVuSans-Bold-61" transform="translate(2980.859375 0)"/>
     <use xlink:href="#DejaVuSans-Bold-74" transform="translate(3048.339844 0)"/>
     <use xlink:href="#DejaVuSans-Bold-69" transform="translate(3096.142578 0)"/>
     <use xlink:href="#DejaVuSans-Bold-6f" transform="translate(3130.419922 0)"/>
     <use xlink:href="#DejaVuSans-Bold-6e" transform="translate(3199.121094 0)"/>
     <use xlink:href="#DejaVuSans-Bold-73" transform="translate(3270.3125 0)"/>
     <use xlink:href="#DejaVuSans-Bold-20" transform="translate(3329.833984 0)"/>
     <use xlink:href="#DejaVuSans-Bold-28" transform="translate(3364.648438 0)"/>
     <use xlink:href="#DejaVuSans-Bold-53" transform="translate(3410.351562 0)"/>
     <use xlink:href="#DejaVuSans-Bold-75" transform="translate(3482.373047 0)"/>
     <use xlink:href="#DejaVuSans-Bold-62" transform="translate(3553.564453 0)"/>
     <use xlink:href="#DejaVuSans-Bold-74" transform="translate(3625.146484 0)"/>
     <use xlink:href="#DejaVuSans-Bold-72" transform="translate(3672.949219 0)"/>
     <use xlink:href="#DejaVuSans-Bold-61" transform="translate(3722.265625 0)"/>
     <use xlink:href="#DejaVuSans-Bold-63" transform="translate(3789.746094 0)"/>
     <use xlink:href="#DejaVuSans-Bold-74" transform="translate(3849.023438 0)"/>
     <use xlink:href="#DejaVuSans-Bold-69" transform="translate(3896.826172 0)"/>
     <use xlink:href="#DejaVuSans-Bold-6f" transform="translate(3931.103516 0)"/>
     <use xlink:href="#DejaVuSans-Bold-6e" transform="translate(3999.804688 0)"/>
     <use xlink:href="#DejaVuSans-Bold-29" transform="translate(4070.996094 0)"/>
    </g>
    <!-- Intel Xeon E-2314 @ 2.80GHz -->
    <g style="fill: #262626" transform="translate(398.820469 33.51475) scale(0.14 -0.14)">
     <defs>
      <path id="DejaVuSans-Bold-58" d="M 3188 2381 
L 4806 0 
L 3553 0 
L 2463 1594 
L 1381 0 
L 122 0 
L 1741 2381 
L 184 4666 
L 1441 4666 
L 2463 3163 
L 3481 4666 
L 4744 4666 
L 3188 2381 
z
" transform="scale(0.015625)"/>
      <path id="DejaVuSans-Bold-45" d="M 588 4666 
L 3834 4666 
L 3834 3756 
L 1791 3756 
L 1791 2888 
L 3713 2888 
L 3713 1978 
L 1791 1978 
L 1791 909 
L 3903 909 
L 3903 0 
L 588 0 
L 588 4666 
z
" transform="scale(0.015625)"/>
      <path id="DejaVuSans-Bold-2d" d="M 347 2297 
L 2309 2297 
L 2309 1388 
L 347 1388 
L 347 2297 
z
" transform="scale(0.015625)"/>
      <path id="DejaVuSans-Bold-40" d="M 2597 1684 
Q 2597 1300 2761 1078 
Q 2925 856 3206 856 
Q 3484 856 3650 1079 
Q 3816 1303 3816 1684 
Q 3816 2063 3648 2283 
Q 3481 2503 3200 2503 
Q 2925 2503 2761 2283 
Q 2597 2063 2597 1684 
z
M 3878 744 
Q 3784 522 3576 398 
Q 3369 275 3091 275 
Q 2553 275 2217 664 
Q 1881 1053 1881 1678 
Q 1881 2303 2218 2693 
Q 2556 3084 3091 3084 
Q 3369 3084 3576 2959 
Q 3784 2834 3878 2613 
L 3878 3022 
L 4531 3022 
L 4531 856 
Q 4919 916 5141 1230 
Q 5363 1544 5363 2034 
Q 5363 2347 5272 2620 
Q 5181 2894 4997 3122 
Q 4700 3503 4254 3709 
Q 3809 3916 3291 3916 
Q 2928 3916 2597 3820 
Q 2266 3725 1984 3541 
Q 1522 3234 1264 2748 
Q 1006 2263 1006 1697 
Q 1006 1231 1173 823 
Q 1341 416 1656 103 
Q 1969 -203 2373 -364 
Q 2778 -525 3238 -525 
Q 3631 -525 4025 -378 
Q 4419 -231 4697 19 
L 5031 -488 
Q 4641 -791 4180 -952 
Q 3719 -1113 3244 -1113 
Q 2666 -1113 2153 -908 
Q 1641 -703 1241 -313 
Q 841 78 631 592 
Q 422 1106 422 1697 
Q 422 2266 634 2781 
Q 847 3297 1241 3688 
Q 1634 4075 2157 4287 
Q 2681 4500 3244 4500 
Q 3944 4500 4516 4233 
Q 5088 3966 5472 3463 
Q 5706 3156 5826 2798 
Q 5947 2441 5947 2047 
Q 5947 1200 5437 731 
Q 4928 263 4000 263 
L 3878 263 
L 3878 744 
z
" transform="scale(0.015625)"/>
      <path id="DejaVuSans-Bold-47" d="M 4781 347 
Q 4331 128 3847 18 
Q 3363 -91 2847 -91 
Q 1681 -91 1000 561 
Q 319 1213 319 2328 
Q 319 3456 1012 4103 
Q 1706 4750 2913 4750 
Q 3378 4750 3804 4662 
Q 4231 4575 4609 4403 
L 4609 3438 
Q 4219 3659 3833 3768 
Q 3447 3878 3059 3878 
Q 2341 3878 1952 3476 
Q 1563 3075 1563 2328 
Q 1563 1588 1938 1184 
Q 2313 781 3003 781 
Q 3191 781 3352 804 
Q 3513 828 3641 878 
L 3641 1784 
L 2906 1784 
L 2906 2591 
L 4781 2591 
L 4781 347 
z
" transform="scale(0.015625)"/>
      <path id="DejaVuSans-Bold-48" d="M 588 4666 
L 1791 4666 
L 1791 2888 
L 3566 2888 
L 3566 4666 
L 4769 4666 
L 4769 0 
L 3566 0 
L 3566 1978 
L 1791 1978 
L 1791 0 
L 588 0 
L 588 4666 
z
" transform="scale(0.015625)"/>
     </defs>
     <use xlink:href="#DejaVuSans-Bold-49"/>
     <use xlink:href="#DejaVuSans-Bold-6e" transform="translate(37.207031 0)"/>
     <use xlink:href="#DejaVuSans-Bold-74" transform="translate(108.398438 0)"/>
     <use xlink:href="#DejaVuSans-Bold-65" transform="translate(156.201172 0)"/>
     <use xlink:href="#DejaVuSans-Bold-6c" transform="translate(224.023438 0)"/>
     <use xlink:href="#DejaVuSans-Bold-20" transform="translate(258.300781 0)"/>
     <use xlink:href="#DejaVuSans-Bold-58" transform="translate(293.115234 0)"/>
     <use xlink:href="#DejaVuSans-Bold-65" transform="translate(367.589844 0)"/>
     <use xlink:href="#DejaVuSans-Bold-6f" transform="translate(435.412109 0)"/>
     <use xlink:href="#DejaVuSans-Bold-6e" transform="translate(504.113281 0)"/>
     <use xlink:href="#DejaVuSans-Bold-20" transform="translate(575.304688 0)"/>
     <use xlink:href="#DejaVuSans-Bold-45" transform="translate(610.119141 0)"/>
     <use xlink:href="#DejaVuSans-Bold-2d" transform="translate(678.429688 0)"/>
     <use xlink:href="#DejaVuSans-Bold-32" transform="translate(719.933594 0)"/>
     <use xlink:href="#DejaVuSans-Bold-33" transform="translate(789.513672 0)"/>
     <use xlink:href="#DejaVuSans-Bold-31" transform="translate(859.09375 0)"/>
     <use xlink:href="#DejaVuSans-Bold-34" transform="translate(928.673828 0)"/>
     <use xlink:href="#DejaVuSans-Bold-20" transform="translate(998.253906 0)"/>
     <use xlink:href="#DejaVuSans-Bold-40" transform="translate(1033.068359 0)"/>
     <use xlink:href="#DejaVuSans-Bold-20" transform="translate(1133.068359 0)"/>
     <use xlink:href="#DejaVuSans-Bold-32" transform="translate(1167.882812 0)"/>
     <use xlink:href="#DejaVuSans-Bold-2e" transform="translate(1237.462891 0)"/>
     <use xlink:href="#DejaVuSans-Bold-38" transform="translate(1275.451172 0)"/>
     <use xlink:href="#DejaVuSans-Bold-30" transform="translate(1345.03125 0)"/>
     <use xlink:href="#DejaVuSans-Bold-47" transform="translate(1414.611328 0)"/>
     <use xlink:href="#DejaVuSans-Bold-48" transform="translate(1496.691406 0)"/>
     <use xlink:href="#DejaVuSans-Bold-7a" transform="translate(1580.382812 0)"/>
    </g>
   </g>
   <g id="legend_1">
    <g id="patch_47">
     <path d="M 58.76375 91.42725 
L 475.824688 91.42725 
Q 477.824688 91.42725 477.824688 89.42725 
L 477.824688 60.51475 
Q 477.824688 58.51475 475.824688 58.51475 
L 58.76375 58.51475 
Q 56.76375 58.51475 56.76375 60.51475 
L 56.76375 89.42725 
Q 56.76375 91.42725 58.76375 91.42725 
z
" style="fill: #ffffff; opacity: 0.9; stroke: #cccccc; stroke-linejoin: miter"/>
    </g>
    <g id="patch_48">
     <path d="M 60.76375 70.113188 
L 80.76375 70.113188 
L 80.76375 63.113188 
L 60.76375 63.113188 
z
" style="fill: #0072b2; stroke: #ffffff; stroke-width: 0.8; stroke-linejoin: miter"/>
    </g>
    <g id="text_63">
     <!-- Baseline_SUB L1D Cache Reads -->
     <g style="fill: #262626" transform="translate(88.76375 70.113188) scale(0.1 -0.1)">
      <defs>
       <path id="DejaVuSans-42" d="M 1259 2228 
L 1259 519 
L 2272 519 
Q 2781 519 3026 730 
Q 3272 941 3272 1375 
Q 3272 1813 3026 2020 
Q 2781 2228 2272 2228 
L 1259 2228 
z
M 1259 4147 
L 1259 2741 
L 2194 2741 
Q 2656 2741 2882 2914 
Q 3109 3088 3109 3444 
Q 3109 3797 2882 3972 
Q 2656 4147 2194 4147 
L 1259 4147 
z
M 628 4666 
L 2241 4666 
Q 2963 4666 3353 4366 
Q 3744 4066 3744 3513 
Q 3744 3084 3544 2831 
Q 3344 2578 2956 2516 
Q 3422 2416 3680 2098 
Q 3938 1781 3938 1306 
Q 3938 681 3513 340 
Q 3088 0 2303 0 
L 628 0 
L 628 4666 
z
" transform="scale(0.015625)"/>
       <path id="DejaVuSans-61" d="M 2194 1759 
Q 1497 1759 1228 1600 
Q 959 1441 959 1056 
Q 959 750 1161 570 
Q 1363 391 1709 391 
Q 2188 391 2477 730 
Q 2766 1069 2766 1631 
L 2766 1759 
L 2194 1759 
z
M 3341 1997 
L 3341 0 
L 2766 0 
L 2766 531 
Q 2569 213 2275 61 
Q 1981 -91 1556 -91 
Q 1019 -91 701 211 
Q 384 513 384 1019 
Q 384 1609 779 1909 
Q 1175 2209 1959 2209 
L 2766 2209 
L 2766 2266 
Q 2766 2663 2505 2880 
Q 2244 3097 1772 3097 
Q 1472 3097 1187 3025 
Q 903 2953 641 2809 
L 641 3341 
Q 956 3463 1253 3523 
Q 1550 3584 1831 3584 
Q 2591 3584 2966 3190 
Q 3341 2797 3341 1997 
z
" transform="scale(0.015625)"/>
       <path id="DejaVuSans-73" d="M 2834 3397 
L 2834 2853 
Q 2591 2978 2328 3040 
Q 2066 3103 1784 3103 
Q 1356 3103 1142 2972 
Q 928 2841 928 2578 
Q 928 2378 1081 2264 
Q 1234 2150 1697 2047 
L 1894 2003 
Q 2506 1872 2764 1633 
Q 3022 1394 3022 966 
Q 3022 478 2636 193 
Q 2250 -91 1575 -91 
Q 1294 -91 989 -36 
Q 684 19 347 128 
L 347 722 
Q 666 556 975 473 
Q 1284 391 1588 391 
Q 1994 391 2212 530 
Q 2431 669 2431 922 
Q 2431 1156 2273 1281 
Q 2116 1406 1581 1522 
L 1381 1569 
Q 847 1681 609 1914 
Q 372 2147 372 2553 
Q 372 3047 722 3315 
Q 1072 3584 1716 3584 
Q 2034 3584 2315 3537 
Q 2597 3491 2834 3397 
z
" transform="scale(0.015625)"/>
       <path id="DejaVuSans-65" d="M 3597 1894 
L 3597 1613 
L 953 1613 
Q 991 1019 1311 708 
Q 1631 397 2203 397 
Q 2534 397 2845 478 
Q 3156 559 3463 722 
L 3463 178 
Q 3153 47 2828 -22 
Q 2503 -91 2169 -91 
Q 1331 -91 842 396 
Q 353 884 353 1716 
Q 353 2575 817 3079 
Q 1281 3584 2069 3584 
Q 2775 3584 3186 3129 
Q 3597 2675 3597 1894 
z
M 3022 2063 
Q 3016 2534 2758 2815 
Q 2500 3097 2075 3097 
Q 1594 3097 1305 2825 
Q 1016 2553 972 2059 
L 3022 2063 
z
" transform="scale(0.015625)"/>
       <path id="DejaVuSans-6c" d="M 603 4863 
L 1178 4863 
L 1178 0 
L 603 0 
L 603 4863 
z
" transform="scale(0.015625)"/>
       <path id="DejaVuSans-69" d="M 603 3500 
L 1178 3500 
L 1178 0 
L 603 0 
L 603 3500 
z
M 603 4863 
L 1178 4863 
L 1178 4134 
L 603 4134 
L 603 4863 
z
" transform="scale(0.015625)"/>
       <path id="DejaVuSans-6e" d="M 3513 2113 
L 3513 0 
L 2938 0 
L 2938 2094 
Q 2938 2591 2744 2837 
Q 2550 3084 2163 3084 
Q 1697 3084 1428 2787 
Q 1159 2491 1159 1978 
L 1159 0 
L 581 0 
L 581 3500 
L 1159 3500 
L 1159 2956 
Q 1366 3272 1645 3428 
Q 1925 3584 2291 3584 
Q 2894 3584 3203 3211 
Q 3513 2838 3513 2113 
z
" transform="scale(0.015625)"/>
       <path id="DejaVuSans-5f" d="M 3263 -1063 
L 3263 -1509 
L -63 -1509 
L -63 -1063 
L 3263 -1063 
z
" transform="scale(0.015625)"/>
       <path id="DejaVuSans-53" d="M 3425 4513 
L 3425 3897 
Q 3066 4069 2747 4153 
Q 2428 4238 2131 4238 
Q 1616 4238 1336 4038 
Q 1056 3838 1056 3469 
Q 1056 3159 1242 3001 
Q 1428 2844 1947 2747 
L 2328 2669 
Q 3034 2534 3370 2195 
Q 3706 1856 3706 1288 
Q 3706 609 3251 259 
Q 2797 -91 1919 -91 
Q 1588 -91 1214 -16 
Q 841 59 441 206 
L 441 856 
Q 825 641 1194 531 
Q 1563 422 1919 422 
Q 2459 422 2753 634 
Q 3047 847 3047 1241 
Q 3047 1584 2836 1778 
Q 2625 1972 2144 2069 
L 1759 2144 
Q 1053 2284 737 2584 
Q 422 2884 422 3419 
Q 422 4038 858 4394 
Q 1294 4750 2059 4750 
Q 2388 4750 2728 4690 
Q 3069 4631 3425 4513 
z
" transform="scale(0.015625)"/>
       <path id="DejaVuSans-55" d="M 556 4666 
L 1191 4666 
L 1191 1831 
Q 1191 1081 1462 751 
Q 1734 422 2344 422 
Q 2950 422 3222 751 
Q 3494 1081 3494 1831 
L 3494 4666 
L 4128 4666 
L 4128 1753 
Q 4128 841 3676 375 
Q 3225 -91 2344 -91 
Q 1459 -91 1007 375 
Q 556 841 556 1753 
L 556 4666 
z
" transform="scale(0.015625)"/>
       <path id="DejaVuSans-20" transform="scale(0.015625)"/>
       <path id="DejaVuSans-4c" d="M 628 4666 
L 1259 4666 
L 1259 531 
L 3531 531 
L 3531 0 
L 628 0 
L 628 4666 
z
" transform="scale(0.015625)"/>
       <path id="DejaVuSans-44" d="M 1259 4147 
L 1259 519 
L 2022 519 
Q 2988 519 3436 956 
Q 3884 1394 3884 2338 
Q 3884 3275 3436 3711 
Q 2988 4147 2022 4147 
L 1259 4147 
z
M 628 4666 
L 1925 4666 
Q 3281 4666 3915 4102 
Q 4550 3538 4550 2338 
Q 4550 1131 3912 565 
Q 3275 0 1925 0 
L 628 0 
L 628 4666 
z
" transform="scale(0.015625)"/>
       <path id="DejaVuSans-43" d="M 4122 4306 
L 4122 3641 
Q 3803 3938 3442 4084 
Q 3081 4231 2675 4231 
Q 1875 4231 1450 3742 
Q 1025 3253 1025 2328 
Q 1025 1406 1450 917 
Q 1875 428 2675 428 
Q 3081 428 3442 575 
Q 3803 722 4122 1019 
L 4122 359 
Q 3791 134 3420 21 
Q 3050 -91 2638 -91 
Q 1578 -91 968 557 
Q 359 1206 359 2328 
Q 359 3453 968 4101 
Q 1578 4750 2638 4750 
Q 3056 4750 3426 4639 
Q 3797 4528 4122 4306 
z
" transform="scale(0.015625)"/>
       <path id="DejaVuSans-63" d="M 3122 3366 
L 3122 2828 
Q 2878 2963 2633 3030 
Q 2388 3097 2138 3097 
Q 1578 3097 1268 2742 
Q 959 2388 959 1747 
Q 959 1106 1268 751 
Q 1578 397 2138 397 
Q 2388 397 2633 464 
Q 2878 531 3122 666 
L 3122 134 
Q 2881 22 2623 -34 
Q 2366 -91 2075 -91 
Q 1284 -91 818 406 
Q 353 903 353 1747 
Q 353 2603 823 3093 
Q 1294 3584 2113 3584 
Q 2378 3584 2631 3529 
Q 2884 3475 3122 3366 
z
" transform="scale(0.015625)"/>
       <path id="DejaVuSans-68" d="M 3513 2113 
L 3513 0 
L 2938 0 
L 2938 2094 
Q 2938 2591 2744 2837 
Q 2550 3084 2163 3084 
Q 1697 3084 1428 2787 
Q 1159 2491 1159 1978 
L 1159 0 
L 581 0 
L 581 4863 
L 1159 4863 
L 1159 2956 
Q 1366 3272 1645 3428 
Q 1925 3584 2291 3584 
Q 2894 3584 3203 3211 
Q 3513 2838 3513 2113 
z
" transform="scale(0.015625)"/>
       <path id="DejaVuSans-52" d="M 2841 2188 
Q 3044 2119 3236 1894 
Q 3428 1669 3622 1275 
L 4263 0 
L 3584 0 
L 2988 1197 
Q 2756 1666 2539 1819 
Q 2322 1972 1947 1972 
L 1259 1972 
L 1259 0 
L 628 0 
L 628 4666 
L 2053 4666 
Q 2853 4666 3247 4331 
Q 3641 3997 3641 3322 
Q 3641 2881 3436 2590 
Q 3231 2300 2841 2188 
z
M 1259 4147 
L 1259 2491 
L 2053 2491 
Q 2509 2491 2742 2702 
Q 2975 2913 2975 3322 
Q 2975 3731 2742 3939 
Q 2509 4147 2053 4147 
L 1259 4147 
z
" transform="scale(0.015625)"/>
       <path id="DejaVuSans-64" d="M 2906 2969 
L 2906 4863 
L 3481 4863 
L 3481 0 
L 2906 0 
L 2906 525 
Q 2725 213 2448 61 
Q 2172 -91 1784 -91 
Q 1150 -91 751 415 
Q 353 922 353 1747 
Q 353 2572 751 3078 
Q 1150 3584 1784 3584 
Q 2172 3584 2448 3432 
Q 2725 3281 2906 2969 
z
M 947 1747 
Q 947 1113 1208 752 
Q 1469 391 1925 391 
Q 2381 391 2643 752 
Q 2906 1113 2906 1747 
Q 2906 2381 2643 2742 
Q 2381 3103 1925 3103 
Q 1469 3103 1208 2742 
Q 947 2381 947 1747 
z
" transform="scale(0.015625)"/>
      </defs>
      <use xlink:href="#DejaVuSans-42"/>
      <use xlink:href="#DejaVuSans-61" transform="translate(68.603516 0)"/>
      <use xlink:href="#DejaVuSans-73" transform="translate(129.882812 0)"/>
      <use xlink:href="#DejaVuSans-65" transform="translate(181.982422 0)"/>
      <use xlink:href="#DejaVuSans-6c" transform="translate(243.505859 0)"/>
      <use xlink:href="#DejaVuSans-69" transform="translate(271.289062 0)"/>
      <use xlink:href="#DejaVuSans-6e" transform="translate(299.072266 0)"/>
      <use xlink:href="#DejaVuSans-65" transform="translate(362.451172 0)"/>
      <use xlink:href="#DejaVuSans-5f" transform="translate(423.974609 0)"/>
      <use xlink:href="#DejaVuSans-53" transform="translate(473.974609 0)"/>
      <use xlink:href="#DejaVuSans-55" transform="translate(537.451172 0)"/>
      <use xlink:href="#DejaVuSans-42" transform="translate(610.644531 0)"/>
      <use xlink:href="#DejaVuSans-20" transform="translate(679.248047 0)"/>
      <use xlink:href="#DejaVuSans-4c" transform="translate(711.035156 0)"/>
      <use xlink:href="#DejaVuSans-31" transform="translate(766.748047 0)"/>
      <use xlink:href="#DejaVuSans-44" transform="translate(830.371094 0)"/>
      <use xlink:href="#DejaVuSans-20" transform="translate(907.373047 0)"/>
      <use xlink:href="#DejaVuSans-43" transform="translate(939.160156 0)"/>
      <use xlink:href="#DejaVuSans-61" transform="translate(1008.984375 0)"/>
      <use xlink:href="#DejaVuSans-63" transform="translate(1070.263672 0)"/>
      <use xlink:href="#DejaVuSans-68" transform="translate(1125.244141 0)"/>
      <use xlink:href="#DejaVuSans-65" transform="translate(1188.623047 0)"/>
      <use xlink:href="#DejaVuSans-20" transform="translate(1250.146484 0)"/>
      <use xlink:href="#DejaVuSans-52" transform="translate(1281.933594 0)"/>
      <use xlink:href="#DejaVuSans-65" transform="translate(1346.916016 0)"/>
      <use xlink:href="#DejaVuSans-61" transform="translate(1408.439453 0)"/>
      <use xlink:href="#DejaVuSans-64" transform="translate(1469.71875 0)"/>
      <use xlink:href="#DejaVuSans-73" transform="translate(1533.195312 0)"/>
     </g>
    </g>
    <g id="patch_49">
     <path d="M 60.76375 85.069438 
L 80.76375 85.069438 
L 80.76375 78.069438 
L 60.76375 78.069438 
z
" style="fill: #d55e00; stroke: #ffffff; stroke-width: 0.8; stroke-linejoin: miter"/>
    </g>
    <g id="text_64">
     <!-- GMP_SUB L1D Cache Reads -->
     <g style="fill: #262626" transform="translate(88.76375 85.069438) scale(0.1 -0.1)">
      <defs>
       <path id="DejaVuSans-47" d="M 3809 666 
L 3809 1919 
L 2778 1919 
L 2778 2438 
L 4434 2438 
L 4434 434 
Q 4069 175 3628 42 
Q 3188 -91 2688 -91 
Q 1594 -91 976 548 
Q 359 1188 359 2328 
Q 359 3472 976 4111 
Q 1594 4750 2688 4750 
Q 3144 4750 3555 4637 
Q 3966 4525 4313 4306 
L 4313 3634 
Q 3963 3931 3569 4081 
Q 3175 4231 2741 4231 
Q 1884 4231 1454 3753 
Q 1025 3275 1025 2328 
Q 1025 1384 1454 906 
Q 1884 428 2741 428 
Q 3075 428 3337 486 
Q 3600 544 3809 666 
z
" transform="scale(0.015625)"/>
       <path id="DejaVuSans-4d" d="M 628 4666 
L 1569 4666 
L 2759 1491 
L 3956 4666 
L 4897 4666 
L 4897 0 
L 4281 0 
L 4281 4097 
L 3078 897 
L 2444 897 
L 1241 4097 
L 1241 0 
L 628 0 
L 628 4666 
z
" transform="scale(0.015625)"/>
       <path id="DejaVuSans-50" d="M 1259 4147 
L 1259 2394 
L 2053 2394 
Q 2494 2394 2734 2622 
Q 2975 2850 2975 3272 
Q 2975 3691 2734 3919 
Q 2494 4147 2053 4147 
L 1259 4147 
z
M 628 4666 
L 2053 4666 
Q 2838 4666 3239 4311 
Q 3641 3956 3641 3272 
Q 3641 2581 3239 2228 
Q 2838 1875 2053 1875 
L 1259 1875 
L 1259 0 
L 628 0 
L 628 4666 
z
" transform="scale(0.015625)"/>
      </defs>
      <use xlink:href="#DejaVuSans-47"/>
      <use xlink:href="#DejaVuSans-4d" transform="translate(77.490234 0)"/>
      <use xlink:href="#DejaVuSans-50" transform="translate(163.769531 0)"/>
      <use xlink:href="#DejaVuSans-5f" transform="translate(224.072266 0)"/>
      <use xlink:href="#DejaVuSans-53" transform="translate(274.072266 0)"/>
      <use xlink:href="#DejaVuSans-55" transform="translate(337.548828 0)"/>
      <use xlink:href="#DejaVuSans-42" transform="translate(410.742188 0)"/>
      <use xlink:href="#DejaVuSans-20" transform="translate(479.345703 0)"/>
      <use xlink:href="#DejaVuSans-4c" transform="translate(511.132812 0)"/>
      <use xlink:href="#DejaVuSans-31" transform="translate(566.845703 0)"/>
      <use xlink:href="#DejaVuSans-44" transform="translate(630.46875 0)"/>
      <use xlink:href="#DejaVuSans-20" transform="translate(707.470703 0)"/>
      <use xlink:href="#DejaVuSans-43" transform="translate(739.257812 0)"/>
      <use xlink:href="#DejaVuSans-61" transform="translate(809.082031 0)"/>
      <use xlink:href="#DejaVuSans-63" transform="translate(870.361328 0)"/>
      <use xlink:href="#DejaVuSans-68" transform="translate(925.341797 0)"/>
      <use xlink:href="#DejaVuSans-65" transform="translate(988.720703 0)"/>
      <use xlink:href="#DejaVuSans-20" transform="translate(1050.244141 0)"/>
      <use xlink:href="#DejaVuSans-52" transform="translate(1082.03125 0)"/>
      <use xlink:href="#DejaVuSans-65" transform="translate(1147.013672 0)"/>
      <use xlink:href="#DejaVuSans-61" transform="translate(1208.537109 0)"/>
      <use xlink:href="#DejaVuSans-64" transform="translate(1269.816406 0)"/>
      <use xlink:href="#DejaVuSans-73" transform="translate(1333.292969 0)"/>
     </g>
    </g>
    <g id="patch_50">
     <path d="M 267.296562 70.113188 
L 287.296562 70.113188 
L 287.296562 63.113188 
L 267.296562 63.113188 
z
" style="fill: #8cd17d; stroke: #ffffff; stroke-width: 0.8; stroke-linejoin: miter"/>
    </g>
    <g id="text_65">
     <!-- PML_SUB_WORST L1D Cache Reads -->
     <g style="fill: #262626" transform="translate(295.296562 70.113188) scale(0.1 -0.1)">
      <defs>
       <path id="DejaVuSans-57" d="M 213 4666 
L 850 4666 
L 1831 722 
L 2809 4666 
L 3519 4666 
L 4500 722 
L 5478 4666 
L 6119 4666 
L 4947 0 
L 4153 0 
L 3169 4050 
L 2175 0 
L 1381 0 
L 213 4666 
z
" transform="scale(0.015625)"/>
       <path id="DejaVuSans-4f" d="M 2522 4238 
Q 1834 4238 1429 3725 
Q 1025 3213 1025 2328 
Q 1025 1447 1429 934 
Q 1834 422 2522 422 
Q 3209 422 3611 934 
Q 4013 1447 4013 2328 
Q 4013 3213 3611 3725 
Q 3209 4238 2522 4238 
z
M 2522 4750 
Q 3503 4750 4090 4092 
Q 4678 3434 4678 2328 
Q 4678 1225 4090 567 
Q 3503 -91 2522 -91 
Q 1538 -91 948 565 
Q 359 1222 359 2328 
Q 359 3434 948 4092 
Q 1538 4750 2522 4750 
z
" transform="scale(0.015625)"/>
       <path id="DejaVuSans-54" d="M -19 4666 
L 3928 4666 
L 3928 4134 
L 2272 4134 
L 2272 0 
L 1638 0 
L 1638 4134 
L -19 4134 
L -19 4666 
z
" transform="scale(0.015625)"/>
      </defs>
      <use xlink:href="#DejaVuSans-50"/>
      <use xlink:href="#DejaVuSans-4d" transform="translate(60.302734 0)"/>
      <use xlink:href="#DejaVuSans-4c" transform="translate(146.582031 0)"/>
      <use xlink:href="#DejaVuSans-5f" transform="translate(202.294922 0)"/>
      <use xlink:href="#DejaVuSans-53" transform="translate(252.294922 0)"/>
      <use xlink:href="#DejaVuSans-55" transform="translate(315.771484 0)"/>
      <use xlink:href="#DejaVuSans-42" transform="translate(388.964844 0)"/>
      <use xlink:href="#DejaVuSans-5f" transform="translate(457.568359 0)"/>
      <use xlink:href="#DejaVuSans-57" transform="translate(507.568359 0)"/>
      <use xlink:href="#DejaVuSans-4f" transform="translate(606.445312 0)"/>
      <use xlink:href="#DejaVuSans-52" transform="translate(685.15625 0)"/>
      <use xlink:href="#DejaVuSans-53" transform="translate(754.638672 0)"/>
      <use xlink:href="#DejaVuSans-54" transform="translate(818.115234 0)"/>
      <use xlink:href="#DejaVuSans-20" transform="translate(879.199219 0)"/>
      <use xlink:href="#DejaVuSans-4c" transform="translate(910.986328 0)"/>
      <use xlink:href="#DejaVuSans-31" transform="translate(966.699219 0)"/>
      <use xlink:href="#DejaVuSans-44" transform="translate(1030.322266 0)"/>
      <use xlink:href="#DejaVuSans-20" transform="translate(1107.324219 0)"/>
      <use xlink:href="#DejaVuSans-43" transform="translate(1139.111328 0)"/>
      <use xlink:href="#DejaVuSans-61" transform="translate(1208.935547 0)"/>
      <use xlink:href="#DejaVuSans-63" transform="translate(1270.214844 0)"/>
      <use xlink:href="#DejaVuSans-68" transform="translate(1325.195312 0)"/>
      <use xlink:href="#DejaVuSans-65" transform="translate(1388.574219 0)"/>
      <use xlink:href="#DejaVuSans-20" transform="translate(1450.097656 0)"/>
      <use xlink:href="#DejaVuSans-52" transform="translate(1481.884766 0)"/>
      <use xlink:href="#DejaVuSans-65" transform="translate(1546.867188 0)"/>
      <use xlink:href="#DejaVuSans-61" transform="translate(1608.390625 0)"/>
      <use xlink:href="#DejaVuSans-64" transform="translate(1669.669922 0)"/>
      <use xlink:href="#DejaVuSans-73" transform="translate(1733.146484 0)"/>
     </g>
    </g>
    <g id="patch_51">
     <path d="M 267.296562 85.069438 
L 287.296562 85.069438 
L 287.296562 78.069438 
L 267.296562 78.069438 
z
" style="fill: #009e73; stroke: #ffffff; stroke-width: 0.8; stroke-linejoin: miter"/>
    </g>
    <g id="text_66">
     <!-- PML_SUB L1D Cache Reads -->
     <g style="fill: #262626" transform="translate(295.296562 85.069438) scale(0.1 -0.1)">
      <use xlink:href="#DejaVuSans-50"/>
      <use xlink:href="#DejaVuSans-4d" transform="translate(60.302734 0)"/>
      <use xlink:href="#DejaVuSans-4c" transform="translate(146.582031 0)"/>
      <use xlink:href="#DejaVuSans-5f" transform="translate(202.294922 0)"/>
      <use xlink:href="#DejaVuSans-53" transform="translate(252.294922 0)"/>
      <use xlink:href="#DejaVuSans-55" transform="translate(315.771484 0)"/>
      <use xlink:href="#DejaVuSans-42" transform="translate(388.964844 0)"/>
      <use xlink:href="#DejaVuSans-20" transform="translate(457.568359 0)"/>
      <use xlink:href="#DejaVuSans-4c" transform="translate(489.355469 0)"/>
      <use xlink:href="#DejaVuSans-31" transform="translate(545.068359 0)"/>
      <use xlink:href="#DejaVuSans-44" transform="translate(608.691406 0)"/>
      <use xlink:href="#DejaVuSans-20" transform="translate(685.693359 0)"/>
      <use xlink:href="#DejaVuSans-43" transform="translate(717.480469 0)"/>
      <use xlink:href="#DejaVuSans-61" transform="translate(787.304688 0)"/>
      <use xlink:href="#DejaVuSans-63" transform="translate(848.583984 0)"/>
      <use xlink:href="#DejaVuSans-68" transform="translate(903.564453 0)"/>
      <use xlink:href="#DejaVuSans-65" transform="translate(966.943359 0)"/>
      <use xlink:href="#DejaVuSans-20" transform="translate(1028.466797 0)"/>
      <use xlink:href="#DejaVuSans-52" transform="translate(1060.253906 0)"/>
      <use xlink:href="#DejaVuSans-65" transform="translate(1125.236328 0)"/>
      <use xlink:href="#DejaVuSans-61" transform="translate(1186.759766 0)"/>
      <use xlink:href="#DejaVuSans-64" transform="translate(1248.039062 0)"/>
      <use xlink:href="#DejaVuSans-73" transform="translate(1311.515625 0)"/>
     </g>
    </g>
   </g>
  </g>
 </g>
 <defs>
  <clipPath id="p98fd44f439">
   <rect x="51.76375" y="53.51475" width="923.51" height="433.704798"/>
  </clipPath>
 </defs>
</svg>
